<?xml version="1.0" encoding="UTF-8" ?>
<!DOCTYPE svg PUBLIC "-//W3C//DTD SVG 1.1//EN" "http://www.w3.org/Graphics/SVG/1.1/DTD/svg11.dtd">
<svg width="700pt" height="467pt" viewBox="0 0 700 467" version="1.1" xmlns="http://www.w3.org/2000/svg">
<g id="#ffffffff">
<path fill="#ffffff" opacity="1.00" d=" M 0.00 0.00 L 700.00 0.00 L 700.00 467.00 L 0.00 467.00 L 0.00 0.00 M 311.56 42.38 C 303.65 42.77 295.86 44.41 287.95 44.81 C 288.63 44.93 289.32 45.06 290.02 45.18 C 288.01 45.29 286.01 45.43 284.02 45.71 C 264.27 48.94 244.64 53.14 225.57 59.28 C 188.45 71.12 152.65 88.54 122.65 113.66 C 97.92 134.35 76.96 160.84 67.20 191.91 C 59.74 215.14 59.08 240.55 65.71 264.05 C 72.97 291.50 89.44 315.73 109.49 335.50 C 134.23 359.67 164.40 377.67 196.19 390.94 C 239.86 408.88 286.88 418.20 334.01 419.71 C 344.30 420.49 354.69 420.54 364.99 419.82 C 397.24 418.80 429.46 414.41 460.61 405.93 C 501.31 394.81 540.76 377.32 573.96 351.00 C 601.72 328.98 625.35 299.91 635.01 265.32 C 639.88 249.22 640.76 232.15 639.07 215.48 C 636.16 192.63 627.19 170.77 613.95 151.99 C 592.10 120.68 560.63 97.26 526.86 80.09 C 484.66 58.77 438.05 47.00 391.12 42.50 C 375.48 40.78 359.71 41.17 344.00 41.11 C 333.18 41.23 322.32 41.09 311.56 42.38 Z" />
</g>
<g id="#1e1917ff">
<path fill="#1e1917" opacity="1.00" d=" M 311.56 42.38 C 322.32 41.09 333.18 41.23 344.00 41.11 C 359.71 41.17 375.48 40.78 391.12 42.50 C 438.05 47.00 484.66 58.77 526.86 80.09 C 560.63 97.26 592.10 120.68 613.95 151.99 C 627.19 170.77 636.16 192.63 639.07 215.48 C 640.76 232.15 639.88 249.22 635.01 265.32 C 625.35 299.91 601.72 328.98 573.96 351.00 C 540.76 377.32 501.31 394.81 460.61 405.93 C 429.46 414.41 397.24 418.80 364.99 419.82 C 354.69 420.54 344.30 420.49 334.01 419.71 C 286.88 418.20 239.86 408.88 196.19 390.94 C 164.40 377.67 134.23 359.67 109.49 335.50 C 89.44 315.73 72.97 291.50 65.71 264.05 C 59.08 240.55 59.74 215.14 67.20 191.91 C 76.96 160.84 97.92 134.35 122.65 113.66 C 152.65 88.54 188.45 71.12 225.57 59.28 C 244.64 53.14 264.27 48.94 284.02 45.71 C 286.01 45.43 288.01 45.29 290.02 45.18 C 289.32 45.06 288.63 44.93 287.95 44.81 C 295.86 44.41 303.65 42.77 311.56 42.38 M 185.64 84.70 C 150.32 101.49 117.03 125.00 94.70 157.62 C 78.36 181.27 68.99 210.26 71.50 239.14 C 76.38 237.29 80.91 234.61 85.82 232.82 C 97.07 228.77 109.80 227.05 121.26 231.29 C 121.17 219.01 124.41 206.81 129.83 195.83 C 140.73 173.91 159.32 156.80 179.57 143.55 C 210.81 123.51 246.65 111.55 283.00 104.89 C 302.49 101.51 322.22 99.40 342.00 99.17 C 351.68 98.21 361.36 99.42 371.05 99.40 C 376.87 99.40 382.65 100.11 388.45 100.47 C 393.74 93.53 399.17 86.70 404.66 79.91 C 403.23 76.55 402.04 72.80 403.20 69.17 C 404.79 62.09 413.83 58.90 420.00 62.11 C 426.47 64.88 428.38 73.82 424.37 79.40 C 421.94 83.59 416.90 84.71 412.42 84.84 C 414.18 89.88 416.71 94.67 420.32 98.65 C 422.99 101.59 425.24 105.71 429.58 106.23 C 448.70 110.21 467.36 116.18 485.49 123.43 C 488.35 124.47 491.04 126.19 494.09 126.59 C 504.69 124.97 514.83 121.27 524.33 116.34 C 532.32 112.79 539.91 108.43 547.00 103.31 C 536.17 96.38 524.90 90.14 513.21 84.79 C 466.24 63.15 414.65 52.17 363.06 50.52 C 302.42 48.65 240.84 58.98 185.64 84.70 M 406.26 72.13 C 405.95 74.68 407.36 76.93 408.41 79.13 C 374.42 123.31 340.72 167.72 306.81 211.96 C 301.49 210.45 296.35 208.34 290.90 207.30 C 269.68 202.81 247.49 201.52 226.11 205.64 C 236.92 220.76 252.97 231.52 270.15 238.16 C 270.57 238.22 271.41 238.34 271.83 238.40 C 277.62 232.31 283.39 226.05 290.57 221.54 C 295.72 218.28 301.61 214.70 307.96 215.63 C 319.90 220.90 331.28 228.43 339.01 239.14 C 329.79 242.78 319.83 243.84 309.99 244.06 C 297.17 243.93 284.27 242.43 272.00 238.62 C 270.96 239.87 269.92 241.12 268.88 242.37 C 249.99 235.59 233.19 223.25 220.89 207.42 C 209.93 210.29 199.67 215.49 190.45 222.02 C 199.02 231.37 208.97 239.41 219.39 246.61 C 230.51 254.20 242.66 260.59 255.88 263.53 C 260.12 256.37 264.18 249.09 269.06 242.33 C 289.12 247.89 310.36 250.61 331.02 247.03 C 335.00 246.44 338.74 244.78 342.72 244.21 C 348.01 249.77 351.28 257.02 353.99 264.11 C 354.96 265.73 352.53 266.05 351.55 266.40 C 343.35 268.41 335.04 270.01 326.64 270.88 C 302.86 273.49 278.94 269.54 256.00 263.38 C 255.02 265.99 254.02 268.58 253.10 271.20 C 263.77 273.98 274.59 276.21 285.52 277.72 C 309.40 281.23 333.83 279.29 357.19 273.45 C 358.35 276.75 359.41 280.11 359.81 283.61 C 361.10 283.95 362.40 284.28 363.71 284.61 C 362.73 275.38 359.47 266.64 355.98 258.12 C 359.11 258.23 362.24 258.65 365.21 259.68 C 382.02 265.01 399.86 266.76 417.41 265.21 C 426.89 264.08 435.97 260.96 445.34 259.24 C 456.82 256.96 468.99 256.02 480.33 259.48 C 488.72 261.77 497.16 263.91 505.53 266.28 C 514.84 269.01 524.56 266.88 534.03 266.55 C 539.49 266.40 544.61 264.31 549.93 263.32 C 555.05 262.33 560.19 261.44 565.30 260.38 C 567.60 253.58 569.33 246.55 569.64 239.35 C 562.32 239.35 555.76 242.85 548.81 244.63 C 540.08 247.06 531.10 249.05 521.97 248.68 C 512.35 248.93 503.27 245.40 494.24 242.56 C 486.72 240.09 478.92 238.47 471.05 237.72 C 456.83 237.00 443.11 241.32 429.36 244.22 C 420.25 245.39 411.21 247.71 401.96 247.31 C 389.27 246.80 376.69 243.93 365.02 238.92 C 358.03 235.63 350.22 236.96 342.85 237.70 C 334.09 227.40 322.98 219.24 310.65 213.73 C 317.92 203.11 326.26 193.25 333.87 182.86 C 359.66 149.09 385.30 115.20 411.16 81.48 C 413.86 81.40 416.90 81.99 419.21 80.19 C 424.41 77.05 424.05 68.07 418.40 65.58 C 413.54 62.81 406.69 66.64 406.26 72.13 M 408.94 90.21 C 402.99 107.86 396.06 125.60 384.25 140.25 C 372.97 153.30 358.94 163.55 346.64 175.54 C 356.57 183.95 369.26 188.11 381.89 190.36 C 398.81 193.27 416.16 193.14 433.17 191.07 C 442.84 189.71 452.57 188.16 461.80 184.86 C 483.09 177.49 503.36 166.37 519.59 150.59 C 532.59 138.16 542.96 122.96 549.66 106.26 C 543.73 109.72 538.42 114.14 532.37 117.41 C 519.91 124.29 506.27 129.00 492.27 131.53 C 484.60 132.86 476.80 133.95 469.00 133.30 C 454.66 131.80 441.37 124.79 430.72 115.28 C 422.12 108.16 415.77 98.91 408.94 90.21 M 552.66 107.92 C 551.82 111.32 551.11 114.74 550.25 118.13 C 546.88 130.05 539.40 140.14 531.33 149.31 C 543.61 159.06 555.21 169.93 564.16 182.90 C 571.95 193.98 577.90 206.55 580.16 219.98 C 583.69 238.98 579.13 258.94 569.47 275.50 C 559.86 291.93 546.06 305.59 530.72 316.71 C 516.62 327.02 501.01 335.09 484.99 341.99 C 445.13 358.39 402.01 366.17 359.00 366.83 C 351.99 367.57 344.97 366.68 337.95 366.68 C 329.63 366.60 321.36 365.72 313.06 365.32 C 306.70 364.97 300.38 363.32 293.99 364.08 C 268.93 365.33 245.07 353.34 219.96 355.93 C 212.05 356.49 204.86 360.28 196.99 361.02 C 186.55 361.96 176.08 362.62 165.66 363.77 C 181.07 372.93 197.52 380.28 214.33 386.46 C 239.56 395.98 265.97 402.16 292.62 406.12 C 330.13 411.59 368.37 411.48 405.92 406.44 C 447.65 400.75 488.87 389.04 526.18 369.26 C 556.25 353.31 584.10 331.92 603.91 303.96 C 615.50 287.37 623.97 268.34 627.13 248.28 C 630.38 227.99 627.91 206.84 620.19 187.80 C 607.04 154.75 581.59 127.92 552.66 107.92 M 179.51 237.96 C 178.78 246.24 182.61 254.11 187.15 260.78 C 189.91 265.08 195.06 267.03 199.97 267.46 C 209.28 268.12 218.61 266.74 227.92 267.45 C 232.15 267.77 236.34 269.60 239.10 272.89 C 241.99 276.28 244.47 280.01 247.43 283.35 C 249.18 279.25 250.88 275.13 252.75 271.08 C 239.64 267.15 227.54 260.40 216.26 252.74 C 205.21 244.94 194.72 236.27 185.65 226.20 C 182.29 229.24 179.85 233.37 179.51 237.96 M 86.72 240.66 C 81.86 242.26 77.51 244.97 73.10 247.49 C 73.70 253.33 75.39 259.00 77.30 264.52 C 77.73 265.54 78.18 267.43 79.73 266.71 C 89.51 263.13 99.44 259.06 110.01 258.84 C 126.55 258.80 141.86 266.05 157.99 268.50 C 163.39 269.63 168.92 266.42 174.10 267.83 C 178.19 275.88 184.06 282.77 189.80 289.67 C 190.57 289.35 192.10 288.73 192.86 288.42 C 185.21 278.28 177.06 268.04 173.20 255.75 C 171.63 250.96 172.47 245.86 173.63 241.08 C 164.36 242.84 154.88 244.72 145.41 243.34 C 135.62 241.66 126.25 238.12 116.40 236.74 C 111.61 236.18 106.76 236.15 101.95 236.33 C 96.55 236.34 91.72 238.99 86.72 240.66 M 90.65 270.51 C 87.43 271.95 83.88 272.87 81.03 275.03 C 82.31 279.52 84.89 283.50 86.87 287.71 C 96.39 282.59 107.32 280.90 118.01 280.72 C 124.77 280.67 131.42 281.98 138.10 282.85 C 135.20 278.35 132.45 273.75 129.96 269.00 C 128.80 266.53 125.65 266.52 123.38 265.78 C 112.31 262.97 100.95 266.50 90.65 270.51 M 200.99 290.09 C 195.35 291.51 189.83 293.59 184.00 294.13 C 166.92 295.61 149.73 293.06 133.25 288.56 C 128.95 287.31 124.42 287.38 119.98 287.40 C 109.97 287.40 99.95 289.32 90.68 293.09 C 93.86 299.01 97.91 304.40 101.92 309.77 C 116.48 303.52 133.05 304.64 148.03 308.71 C 154.52 310.56 161.21 311.82 167.98 311.79 C 187.21 312.53 205.86 306.72 224.94 305.50 C 231.73 305.47 238.72 304.83 245.31 306.84 C 261.31 311.88 278.23 314.19 294.99 313.20 C 309.62 312.31 323.42 306.64 337.99 305.30 C 344.97 304.33 352.13 304.36 359.01 305.99 C 369.31 308.63 379.55 311.43 389.83 314.13 C 398.88 316.64 408.20 314.18 417.39 314.24 C 428.67 312.64 439.66 309.37 450.83 307.14 C 460.29 304.33 470.27 305.14 479.97 305.82 C 492.14 307.59 503.99 311.00 516.06 313.31 C 518.14 313.75 520.36 313.53 522.03 312.10 C 530.21 306.36 537.94 299.84 544.45 292.22 C 539.95 292.58 535.51 293.51 530.99 293.51 C 513.94 293.90 497.54 288.57 480.91 285.69 C 473.63 284.68 466.35 286.36 459.07 286.49 C 454.42 286.58 449.78 287.22 445.29 288.41 C 424.65 294.40 402.52 296.31 381.38 291.88 C 372.47 290.17 364.21 285.67 355.01 285.44 C 342.26 284.48 329.80 287.78 317.44 290.34 C 310.61 292.56 303.41 292.89 296.41 294.24 C 280.50 296.09 264.23 293.47 249.40 287.54 C 233.65 281.51 216.54 285.44 200.99 290.09 M 106.73 314.50 C 110.43 320.82 116.01 325.71 121.05 330.94 C 130.30 329.53 139.69 329.12 149.00 330.19 C 162.75 330.94 177.14 333.24 190.33 328.04 C 185.36 324.99 180.61 321.55 175.51 318.71 C 169.72 317.81 163.80 317.87 158.01 316.82 C 150.28 315.70 142.83 313.11 135.05 312.24 C 125.62 311.06 115.62 310.56 106.73 314.50 M 202.02 333.24 C 191.65 336.32 180.90 338.89 170.00 338.29 C 156.04 337.34 142.04 335.30 128.03 336.89 C 134.00 343.04 141.08 347.96 147.82 353.21 C 150.61 355.73 154.47 355.82 157.99 356.23 C 184.99 358.31 211.08 347.87 238.05 349.27 C 245.05 349.39 251.97 350.92 258.52 353.36 C 268.01 356.61 278.15 356.30 288.00 357.34 C 300.34 357.67 312.74 356.90 325.03 358.42 C 356.21 360.72 387.63 358.49 418.38 352.98 C 438.45 348.96 458.61 344.29 477.44 336.14 C 464.62 329.89 449.43 330.01 435.87 333.58 C 423.24 335.48 410.88 339.60 397.99 339.46 C 388.68 339.67 379.39 338.21 370.43 335.75 C 358.27 332.42 345.65 330.00 333.00 330.84 C 322.42 331.97 311.96 333.99 301.59 336.29 C 292.70 338.17 283.53 339.57 274.45 338.35 C 266.65 336.86 258.90 335.12 251.13 333.49 C 235.11 329.51 218.05 329.12 202.02 333.24 Z" />
<path fill="#1e1917" opacity="1.00" d=" M 310.94 63.95 C 314.30 59.77 320.40 59.64 325.16 60.97 C 328.20 61.89 329.77 64.87 330.44 67.76 C 328.75 67.76 327.05 67.93 325.38 67.65 C 324.29 66.60 323.34 65.41 322.35 64.27 C 319.97 64.48 316.95 64.04 315.42 66.32 C 312.65 70.30 313.49 75.59 315.00 79.88 C 316.47 83.99 322.93 85.29 325.35 81.35 C 326.75 79.12 329.04 78.19 331.64 78.52 C 331.57 86.74 321.40 89.56 314.93 87.02 C 310.90 85.02 308.51 80.42 308.32 76.02 C 308.17 71.92 307.86 67.16 310.94 63.95 Z" />
<path fill="#1e1917" opacity="1.00" d=" M 339.31 60.36 C 341.04 59.84 342.85 59.73 344.65 59.58 C 344.71 63.21 344.68 66.83 344.65 70.46 C 348.02 70.41 351.38 70.31 354.75 70.21 C 354.66 66.66 354.58 63.11 354.57 59.56 C 356.42 59.63 358.29 59.65 360.14 59.88 C 360.55 68.72 360.42 77.59 360.50 86.44 C 358.59 86.42 356.68 86.40 354.78 86.37 C 354.77 82.44 354.76 78.51 354.76 74.58 C 351.40 74.55 348.04 74.57 344.68 74.59 C 344.73 78.57 344.89 82.56 344.80 86.55 C 342.97 86.60 341.14 86.66 339.31 86.72 C 338.43 79.50 338.88 72.22 338.63 64.96 C 338.87 63.47 338.03 61.50 339.31 60.36 Z" />
<path fill="#1e1917" opacity="1.00" d=" M 367.19 59.64 C 374.24 60.50 381.36 60.37 388.43 60.87 C 388.46 62.18 388.49 63.50 388.53 64.81 C 385.84 64.83 383.15 64.77 380.46 64.76 C 380.26 72.14 379.40 79.49 379.47 86.89 C 377.52 86.89 375.57 86.88 373.63 86.86 C 373.75 79.37 374.72 71.92 374.67 64.42 C 372.17 64.30 369.67 64.18 367.18 63.97 C 367.17 62.53 367.18 61.09 367.19 59.64 Z" />
<path fill="#1e1917" opacity="1.00" d=" M 285.64 64.68 C 287.85 64.29 290.05 63.86 292.25 63.43 C 296.79 71.72 301.28 80.05 305.36 88.57 C 303.59 88.86 301.83 89.16 300.06 89.44 C 299.24 87.64 298.41 85.86 297.58 84.07 C 293.97 84.40 290.41 85.07 286.85 85.71 C 286.50 87.66 286.12 89.60 285.70 91.53 C 283.99 91.79 282.29 92.07 280.59 92.34 C 282.15 83.10 284.00 73.91 285.64 64.68 M 289.81 69.89 C 289.06 73.49 288.43 77.11 288.14 80.78 C 290.29 80.55 292.46 80.33 294.60 79.92 C 293.72 76.28 291.55 73.15 289.81 69.89 Z" />
<path fill="#1e1917" opacity="1.00" d=" M 266.77 67.87 C 268.67 67.58 270.58 67.29 272.48 67.00 C 272.53 74.36 272.32 81.71 272.36 89.06 C 272.18 90.72 272.75 92.84 271.20 94.01 C 269.49 94.75 267.68 95.20 265.92 95.73 C 262.64 89.79 260.02 83.50 256.57 77.65 C 255.97 84.53 256.71 91.48 255.58 98.32 C 253.54 98.51 251.50 98.83 249.45 98.75 C 245.18 90.82 241.26 82.70 237.17 74.68 C 239.19 74.18 241.22 73.72 243.25 73.28 C 246.18 79.24 248.30 85.58 251.55 91.39 C 251.77 84.60 252.24 77.83 252.35 71.05 C 254.30 70.77 256.25 70.53 258.21 70.29 C 261.22 76.27 263.89 82.42 267.14 88.27 C 267.62 81.47 266.76 74.67 266.77 67.87 Z" />
<path fill="#1e1917" opacity="1.00" d=" M 211.06 84.26 C 216.60 82.54 221.97 79.07 227.95 79.61 C 233.03 80.83 233.94 87.59 230.58 91.05 C 235.66 92.60 236.86 98.28 239.13 102.43 C 237.28 102.98 235.43 103.52 233.56 103.98 C 232.04 101.09 230.62 98.16 229.25 95.20 C 226.82 95.60 224.41 96.17 222.01 96.72 C 222.85 100.57 224.66 104.18 224.86 108.16 C 223.28 108.39 221.70 108.63 220.12 108.89 C 216.89 100.76 213.92 92.53 211.06 84.26 M 218.15 85.87 C 218.65 88.29 219.37 90.66 220.22 92.97 C 222.96 91.92 228.50 91.26 227.29 87.13 C 226.34 82.58 221.07 85.22 218.15 85.87 Z" />
<path fill="#1e1917" opacity="1.00" d=" M 186.99 93.83 C 192.39 91.69 197.55 88.94 203.08 87.13 C 203.56 88.44 204.00 89.76 204.41 91.10 C 201.23 93.15 197.63 94.42 194.19 95.96 C 194.92 97.75 195.67 99.53 196.41 101.31 C 199.88 100.08 203.25 98.57 206.64 97.15 C 207.15 98.47 207.64 99.80 208.14 101.13 C 204.96 102.62 201.64 103.84 198.55 105.52 C 198.48 107.77 200.22 109.73 201.02 111.80 C 204.76 110.16 208.48 108.46 212.33 107.08 C 212.81 108.46 213.30 109.85 213.78 111.24 C 208.47 113.76 203.06 116.07 197.72 118.52 C 194.20 110.27 189.88 102.33 186.99 93.83 Z" />
<path fill="#1e1917" opacity="1.00" d=" M 164.59 106.52 C 167.45 103.78 171.48 101.47 175.57 102.47 C 177.51 102.89 178.63 104.72 179.98 106.00 C 178.09 107.31 175.95 108.26 173.72 107.12 C 171.29 105.79 168.74 107.33 167.41 109.45 C 167.17 110.87 167.80 112.25 168.09 113.62 C 173.61 114.09 179.02 111.27 184.49 112.60 C 187.52 114.55 189.53 119.08 187.34 122.32 C 184.47 126.63 179.60 130.47 174.13 129.77 C 171.29 129.77 169.79 127.06 168.24 125.12 C 170.10 124.52 172.12 122.38 174.10 123.75 C 176.06 124.76 178.34 125.87 180.35 124.31 C 182.83 123.20 182.72 120.40 182.80 118.10 C 177.51 116.31 172.41 119.81 167.13 119.15 C 161.84 117.62 160.83 110.09 164.59 106.52 Z" />
<path fill="#1e1917" opacity="1.00" d=" M 139.21 126.33 C 140.33 121.83 144.63 118.73 148.99 117.78 C 151.69 117.37 153.84 119.46 155.95 120.78 C 154.93 121.74 153.90 122.70 152.87 123.66 C 150.74 123.00 148.22 121.44 146.14 123.08 C 143.76 124.32 142.36 127.53 144.94 129.42 C 150.35 130.08 155.30 126.35 160.75 127.26 C 164.36 128.88 166.71 133.90 164.42 137.45 C 162.28 141.50 158.32 144.64 153.83 145.60 C 150.57 146.24 147.86 143.96 145.83 141.71 C 147.19 140.58 148.55 139.45 149.91 138.32 C 152.02 139.40 154.32 141.44 156.77 139.97 C 159.77 139.07 161.50 133.79 157.92 132.59 C 153.12 132.47 148.90 135.99 144.04 135.38 C 140.18 134.49 138.00 129.98 139.21 126.33 Z" />
<path fill="#1e1917" opacity="1.00" d=" M 414.16 139.81 C 417.77 135.41 420.31 130.21 424.11 125.96 C 429.51 128.44 433.95 132.57 438.87 135.85 C 435.35 140.63 431.83 145.42 428.21 150.12 C 433.03 153.49 437.93 156.76 442.83 160.02 C 439.68 165.09 436.12 169.88 432.79 174.83 C 427.67 171.89 423.42 167.62 418.15 164.97 C 414.53 169.41 411.52 174.32 408.00 178.84 C 403.23 175.77 398.69 172.36 394.04 169.12 C 397.11 164.18 400.56 159.50 403.89 154.75 C 399.19 151.32 394.37 148.06 389.59 144.75 C 392.72 139.73 396.14 134.90 399.45 130.00 C 404.46 133.12 409.24 136.56 414.16 139.81 Z" />
<path fill="#1e1917" opacity="1.00" d=" M 571.33 137.63 C 572.40 136.73 573.33 135.48 574.78 135.17 C 579.59 139.48 584.02 144.22 588.46 148.91 C 586.73 150.27 585.32 152.43 582.97 152.67 C 576.50 153.59 569.97 154.10 563.49 154.95 C 566.09 158.32 569.22 161.22 572.23 164.22 C 571.32 165.23 570.40 166.23 569.44 167.19 C 564.98 162.69 560.51 158.18 556.00 153.72 C 557.12 152.38 557.99 150.67 559.59 149.81 C 566.68 148.82 573.89 148.70 580.95 147.37 C 577.88 143.99 574.62 140.79 571.33 137.63 Z" />
<path fill="#1e1917" opacity="1.00" d=" M 121.33 140.17 C 130.36 142.59 138.79 146.94 147.56 150.17 C 146.39 151.57 145.23 153.00 143.88 154.23 C 141.81 154.24 139.92 153.18 137.97 152.64 C 135.78 155.12 133.51 157.52 131.24 159.93 C 132.17 161.90 133.30 163.81 133.86 165.94 C 132.92 167.20 131.71 168.21 130.57 169.27 C 126.18 161.20 121.44 153.29 117.30 145.10 C 118.34 143.24 119.73 141.57 121.33 140.17 M 123.65 146.70 C 125.13 149.92 126.96 152.95 128.88 155.92 C 130.44 154.21 131.97 152.48 133.50 150.75 C 130.35 149.10 127.07 147.70 123.65 146.70 Z" />
<path fill="#1e1917" opacity="1.00" d=" M 104.09 158.36 C 111.05 164.04 117.79 169.99 124.35 176.11 C 124.33 178.18 123.01 179.99 122.37 181.92 C 115.45 181.22 108.91 178.67 102.13 177.24 C 106.83 182.14 112.10 186.43 117.08 191.03 C 115.88 192.84 116.01 197.10 112.99 196.35 C 104.58 194.52 96.19 192.54 87.75 190.83 C 88.65 188.95 89.58 187.09 90.57 185.26 C 97.08 187.07 103.54 189.03 110.02 190.89 C 105.47 185.74 99.42 182.16 95.01 176.90 C 95.58 174.96 96.68 173.24 97.66 171.49 C 104.10 173.13 110.54 174.83 117.10 175.93 C 112.15 171.64 106.86 167.76 101.73 163.70 C 102.48 161.91 103.29 160.13 104.09 158.36 Z" />
<path fill="#1e1917" opacity="1.00" d=" M 587.11 160.15 C 589.60 158.89 592.83 157.85 595.34 159.68 C 599.49 162.46 602.62 167.02 603.30 172.01 C 603.25 175.41 600.89 178.33 598.20 180.19 C 593.63 183.36 588.75 186.05 583.98 188.89 C 582.99 187.44 581.99 186.00 580.98 184.57 C 585.66 180.57 591.35 178.00 596.17 174.21 C 600.60 170.87 595.68 162.32 590.47 164.55 C 584.84 167.30 579.98 171.39 574.35 174.14 C 573.56 172.43 572.79 170.72 572.10 168.97 C 577.23 166.26 581.96 162.84 587.11 160.15 Z" />
<path fill="#1e1917" opacity="1.00" d=" M 606.09 184.78 C 607.51 184.30 608.93 183.81 610.37 183.33 C 612.70 188.89 614.58 194.63 616.68 200.29 C 608.49 203.64 600.06 206.39 591.78 209.52 C 589.76 203.93 587.32 198.44 585.98 192.63 C 587.32 192.30 588.67 191.97 590.02 191.64 C 591.29 195.28 592.62 198.90 593.92 202.54 C 595.86 201.78 597.80 201.03 599.74 200.27 C 598.51 196.87 597.23 193.50 596.11 190.07 C 597.41 189.54 598.71 189.01 600.03 188.47 C 601.33 191.92 602.62 195.38 603.85 198.87 C 606.02 197.96 608.20 197.07 610.38 196.17 C 608.91 192.39 607.44 188.60 606.09 184.78 Z" />
<path fill="#1e1917" opacity="1.00" d=" M 605.19 215.23 C 607.70 210.35 613.88 211.07 618.31 209.29 C 618.39 211.29 618.47 213.30 618.57 215.30 C 615.23 215.95 611.61 216.09 608.73 218.08 C 608.51 220.34 608.69 222.60 608.80 224.86 C 612.43 224.66 616.06 224.32 619.70 224.10 C 619.62 225.98 621.84 229.54 618.90 230.01 C 611.24 230.88 603.51 231.21 595.89 232.41 C 598.80 236.33 601.49 240.50 605.04 243.88 C 610.77 242.22 616.01 239.19 621.63 237.19 C 621.15 239.23 620.65 241.27 620.22 243.32 C 615.21 245.58 610.05 247.49 604.97 249.58 C 609.14 250.90 613.45 251.74 617.74 252.62 C 617.47 254.42 617.19 256.20 616.87 257.99 C 608.19 256.73 599.71 254.34 591.15 252.47 C 591.38 250.60 591.64 248.74 591.92 246.88 C 595.56 247.55 599.16 248.42 602.82 249.02 C 599.79 245.75 597.01 242.27 594.10 238.90 C 595.57 233.54 592.98 228.36 592.82 223.00 C 592.60 219.67 592.00 215.35 595.08 213.08 C 598.43 211.29 603.11 211.74 605.19 215.23 M 597.39 218.37 C 597.08 221.03 596.87 223.69 596.83 226.36 C 599.39 226.29 601.94 226.11 604.50 225.90 C 604.41 223.48 604.33 220.97 603.22 218.76 C 602.00 216.44 599.30 218.24 597.39 218.37 Z" />
<path fill="#1e1917" opacity="1.00" d=" M 585.52 268.59 C 587.95 267.79 590.54 268.40 593.01 268.65 C 592.45 269.85 591.84 271.03 591.19 272.19 C 589.23 273.39 586.10 272.64 584.96 274.96 C 583.55 277.02 583.62 281.13 587.00 280.76 C 591.78 279.36 594.54 274.54 599.06 272.58 C 603.15 272.09 608.19 275.47 607.64 279.99 C 607.36 283.98 605.12 287.60 602.65 290.64 C 600.39 293.55 595.93 294.07 593.05 291.80 C 593.45 290.21 594.16 288.73 594.85 287.26 C 596.95 287.12 599.61 288.16 601.19 286.27 C 603.54 284.21 602.74 280.85 602.21 278.20 C 596.76 278.72 593.82 283.82 589.38 286.30 C 586.51 287.58 582.67 286.73 581.15 283.82 C 578.47 278.61 580.92 271.88 585.52 268.59 Z" />
<path fill="#1e1917" opacity="1.00" d=" M 563.29 299.32 C 567.34 294.98 570.46 289.80 575.01 285.94 C 575.87 286.97 576.74 288.00 577.62 289.03 C 575.28 291.92 572.55 294.56 570.79 297.86 C 572.11 299.27 573.59 300.50 575.04 301.77 C 577.34 298.92 579.72 296.15 582.03 293.30 C 583.17 294.24 584.31 295.18 585.46 296.13 C 583.13 299.00 580.81 301.86 578.55 304.78 C 580.32 306.07 582.10 307.36 583.88 308.65 C 586.55 305.52 589.09 302.29 591.77 299.16 C 592.84 300.17 593.91 301.19 594.99 302.21 C 591.60 306.99 588.04 311.72 583.90 315.86 C 576.78 310.70 569.98 305.03 563.29 299.32 Z" />
<path fill="#1e1917" opacity="1.00" d=" M 560.08 303.19 C 561.12 303.49 562.16 303.83 563.18 304.23 C 562.36 307.22 559.78 309.09 557.63 311.11 C 562.48 316.58 567.69 321.73 572.61 327.14 C 571.18 328.48 569.92 330.10 568.10 330.92 C 562.77 326.04 558.52 320.10 553.55 314.87 C 551.41 316.52 549.33 318.23 547.19 319.88 C 546.34 318.88 545.50 317.89 544.66 316.91 C 549.69 312.22 554.79 307.58 560.08 303.19 Z" />
<path fill="#1e1917" opacity="1.00" d=" M 535.40 323.54 C 538.62 322.99 542.29 322.89 544.98 325.07 C 549.67 328.75 553.80 334.71 552.28 340.95 C 550.06 347.40 542.50 352.27 535.72 350.13 C 529.84 347.59 525.47 341.44 525.54 334.97 C 525.73 329.47 529.98 324.53 535.40 323.54 M 533.62 328.64 C 531.52 329.90 529.83 332.48 530.79 334.98 C 532.04 338.93 534.56 342.54 537.94 344.97 C 541.23 347.36 546.39 344.83 546.80 340.87 C 547.33 336.45 544.50 332.47 541.48 329.57 C 539.43 327.49 536.07 326.91 533.62 328.64 Z" />
<path fill="#1e1917" opacity="1.00" d=" M 510.00 339.03 C 512.93 337.60 517.22 337.93 518.81 341.17 C 520.61 343.66 519.82 346.79 518.53 349.29 C 523.65 350.33 525.82 355.55 528.74 359.27 C 526.90 360.18 525.04 361.07 523.17 361.91 C 521.09 359.03 519.21 356.01 517.17 353.12 C 515.00 354.24 512.22 354.71 510.76 356.83 C 512.11 360.00 513.90 362.95 515.46 366.02 C 513.70 366.84 511.95 367.66 510.19 368.45 C 506.32 360.52 502.09 352.79 498.16 344.90 C 502.16 343.06 506.05 340.99 510.00 339.03 M 505.22 345.82 C 506.30 348.18 507.46 350.50 508.76 352.76 C 510.76 351.47 513.08 350.46 514.58 348.53 C 515.20 346.75 514.24 344.98 513.75 343.31 C 510.71 343.35 507.91 344.52 505.22 345.82 Z" />
<path fill="#1e1917" opacity="1.00" d=" M 467.91 357.86 C 470.92 354.13 476.25 352.36 480.85 353.82 C 482.50 355.00 483.67 356.68 484.95 358.23 C 483.64 358.81 482.37 359.48 481.00 359.87 C 478.80 358.75 476.51 356.30 473.90 357.92 C 471.32 358.66 469.81 362.98 473.02 363.92 C 477.66 365.34 482.83 363.65 487.36 365.67 C 490.71 368.26 491.51 374.22 488.01 377.07 C 484.79 379.99 480.28 381.49 475.98 381.43 C 472.51 381.43 470.74 378.23 469.10 375.71 C 470.72 374.87 472.35 374.08 474.00 373.30 C 475.57 374.74 476.94 376.57 479.00 377.36 C 482.19 376.68 485.36 374.32 484.74 370.70 C 479.59 368.64 473.77 370.62 468.75 368.24 C 465.63 365.89 465.27 360.72 467.91 357.86 Z" />
<path fill="#1e1917" opacity="1.00" d=" M 236.11 385.81 C 238.15 377.30 240.39 368.84 242.77 360.43 C 248.93 362.11 256.76 362.46 260.20 368.77 C 263.44 375.53 260.70 385.49 253.31 388.28 C 247.48 389.84 241.66 387.36 236.11 385.81 M 246.69 366.01 C 245.36 371.83 243.81 377.61 242.95 383.53 C 246.13 383.88 249.99 385.13 252.61 382.56 C 255.53 379.56 255.98 374.95 255.44 370.99 C 254.09 367.40 250.02 366.61 246.69 366.01 Z" />
<path fill="#1e1917" opacity="1.00" d=" M 440.91 364.34 C 446.68 363.10 452.39 361.64 458.16 360.40 C 458.30 361.41 458.56 363.45 458.69 364.47 C 455.12 365.45 451.53 366.35 447.97 367.37 C 448.35 369.50 448.85 371.62 449.42 373.72 C 452.96 372.69 456.53 371.72 460.18 371.15 C 460.27 372.18 460.46 374.25 460.55 375.29 C 457.16 376.11 453.78 376.96 450.40 377.78 C 450.83 379.87 451.28 381.95 451.70 384.05 C 455.66 383.44 459.54 382.41 463.40 381.37 C 463.84 382.90 464.28 384.43 464.71 385.97 C 458.86 387.17 453.20 389.28 447.24 389.93 C 445.20 381.38 442.52 372.98 440.91 364.34 Z" />
<path fill="#1e1917" opacity="1.00" d=" M 428.13 367.42 C 429.94 367.29 431.75 367.19 433.57 367.11 C 434.86 375.81 436.72 384.44 437.65 393.19 C 435.98 393.29 434.31 393.40 432.65 393.52 C 431.92 389.75 431.17 385.99 430.39 382.24 C 427.12 382.75 423.80 383.13 420.66 384.19 C 420.96 388.01 421.74 391.77 422.31 395.56 C 420.47 395.88 418.64 396.22 416.81 396.57 C 415.32 387.91 414.03 379.22 412.25 370.63 C 414.01 370.17 415.78 369.73 417.55 369.30 C 418.56 372.74 419.23 376.27 419.72 379.83 C 423.03 379.35 426.31 378.70 429.62 378.16 C 428.99 374.60 428.30 371.04 428.13 367.42 Z" />
<path fill="#1e1917" opacity="1.00" d=" M 271.63 368.02 C 277.40 368.46 283.08 369.68 288.79 370.59 C 288.68 371.99 288.58 373.39 288.47 374.80 C 284.48 374.36 280.55 373.53 276.56 373.14 C 276.19 375.14 275.80 377.14 275.44 379.14 C 278.86 379.79 282.28 380.42 285.73 380.92 C 285.66 382.25 285.60 383.59 285.54 384.93 C 281.87 384.55 278.26 383.84 274.62 383.24 C 274.41 385.61 274.20 387.99 274.03 390.38 C 277.46 390.86 280.91 391.22 284.30 391.96 C 286.21 393.04 284.64 395.27 284.63 396.91 C 278.77 395.86 272.90 394.91 267.08 393.65 C 268.19 385.04 270.18 376.57 271.63 368.02 Z" />
<path fill="#1e1917" opacity="1.00" d=" M 296.66 372.26 C 298.55 372.29 300.43 372.33 302.33 372.37 C 301.74 378.59 301.17 384.82 300.68 391.04 C 300.84 395.43 306.47 396.21 309.82 395.17 C 311.88 393.88 312.15 391.27 312.41 389.08 C 312.85 383.89 313.60 378.74 313.96 373.54 C 315.85 373.83 317.74 374.17 319.64 374.50 C 318.50 381.48 318.71 388.74 316.48 395.49 C 314.85 400.10 309.04 400.11 305.00 399.78 C 300.88 399.70 295.89 397.36 295.41 392.81 C 294.95 385.93 296.39 379.12 296.66 372.26 Z" />
<path fill="#1e1917" opacity="1.00" d=" M 386.44 375.43 C 389.75 371.69 395.24 371.98 399.76 372.47 C 403.06 373.16 404.48 376.61 405.66 379.37 C 403.39 379.38 400.74 380.08 399.22 377.90 C 396.68 374.73 391.12 375.97 389.67 379.63 C 387.89 384.15 388.53 389.60 391.44 393.52 C 393.23 395.96 397.06 396.13 399.49 394.60 C 400.69 393.38 401.49 391.85 402.43 390.43 C 403.96 390.45 405.49 390.47 407.04 390.49 C 406.75 398.65 396.63 400.96 390.19 398.88 C 386.19 397.86 384.91 393.43 384.02 389.92 C 383.07 385.08 382.78 379.27 386.44 375.43 Z" />
<path fill="#1e1917" opacity="1.00" d=" M 355.74 386.28 C 352.83 381.68 356.20 375.49 361.32 374.63 C 364.77 374.34 368.86 373.76 371.63 376.34 C 373.37 377.62 373.64 379.85 374.10 381.81 C 372.57 381.74 371.03 381.77 369.52 381.50 C 368.69 380.48 367.98 379.36 367.26 378.27 C 365.38 378.27 363.48 378.23 361.64 378.62 C 360.72 379.83 360.37 381.34 359.88 382.76 C 364.16 385.27 369.20 386.04 373.47 388.56 C 375.61 389.88 375.89 392.62 375.72 394.90 C 375.85 398.74 371.64 400.52 368.52 401.33 C 365.15 401.73 361.46 402.17 358.29 400.70 C 355.53 399.52 355.04 396.23 354.03 393.76 C 355.72 393.34 357.43 392.94 359.14 392.56 C 360.03 394.08 360.73 395.74 361.93 397.07 C 364.83 398.96 370.95 397.89 369.82 393.30 C 366.34 388.88 359.28 390.56 355.74 386.28 Z" />
<path fill="#1e1917" opacity="1.00" d=" M 327.41 375.32 C 334.53 375.32 341.66 375.39 348.78 375.58 C 348.75 376.66 348.70 378.82 348.67 379.90 C 345.96 379.81 343.26 379.67 340.56 379.54 C 340.49 386.90 340.54 394.27 340.29 401.63 C 338.42 401.60 336.56 401.59 334.71 401.61 C 334.62 394.29 334.82 386.97 334.89 379.64 C 332.38 379.60 329.88 379.59 327.38 379.57 C 327.39 378.15 327.40 376.73 327.41 375.32 Z" />
</g>
<g id="#fdda57ff">
<path fill="#fdda57" opacity="1.00" d=" M 185.64 84.70 C 240.84 58.98 302.42 48.65 363.06 50.52 C 414.65 52.17 466.24 63.15 513.21 84.79 C 524.90 90.14 536.17 96.38 547.00 103.31 C 539.91 108.43 532.32 112.79 524.33 116.34 C 514.83 121.27 504.69 124.97 494.09 126.59 C 491.04 126.19 488.35 124.47 485.49 123.43 C 467.36 116.18 448.70 110.21 429.58 106.23 C 425.24 105.71 422.99 101.59 420.32 98.65 C 416.71 94.67 414.18 89.88 412.42 84.84 C 416.90 84.71 421.94 83.59 424.37 79.40 C 428.38 73.82 426.47 64.88 420.00 62.11 C 413.83 58.90 404.79 62.09 403.20 69.17 C 402.04 72.80 403.23 76.55 404.66 79.91 C 399.17 86.70 393.74 93.53 388.45 100.47 C 382.65 100.11 376.87 99.40 371.05 99.40 C 361.36 99.42 351.68 98.21 342.00 99.17 C 322.22 99.40 302.49 101.51 283.00 104.89 C 246.65 111.55 210.81 123.51 179.57 143.55 C 159.32 156.80 140.73 173.91 129.83 195.83 C 124.41 206.81 121.17 219.01 121.26 231.29 C 109.80 227.05 97.07 228.77 85.82 232.82 C 80.91 234.61 76.38 237.29 71.50 239.14 C 68.99 210.26 78.36 181.27 94.70 157.62 C 117.03 125.00 150.32 101.49 185.64 84.70 M 310.94 63.95 C 307.86 67.16 308.17 71.92 308.32 76.02 C 308.51 80.42 310.90 85.02 314.93 87.02 C 321.40 89.56 331.57 86.74 331.64 78.52 C 329.04 78.19 326.75 79.12 325.35 81.35 C 322.93 85.29 316.47 83.99 315.00 79.88 C 313.49 75.59 312.65 70.30 315.42 66.32 C 316.95 64.04 319.97 64.48 322.35 64.27 C 323.34 65.41 324.29 66.60 325.38 67.65 C 327.05 67.93 328.75 67.76 330.44 67.76 C 329.77 64.87 328.20 61.89 325.16 60.97 C 320.40 59.64 314.30 59.77 310.94 63.95 M 339.31 60.36 C 338.03 61.50 338.87 63.47 338.63 64.96 C 338.88 72.22 338.43 79.50 339.31 86.72 C 341.14 86.66 342.97 86.60 344.80 86.55 C 344.89 82.56 344.73 78.57 344.68 74.59 C 348.04 74.57 351.40 74.55 354.76 74.58 C 354.76 78.51 354.77 82.44 354.78 86.37 C 356.68 86.40 358.59 86.42 360.50 86.44 C 360.42 77.59 360.55 68.72 360.14 59.88 C 358.29 59.65 356.42 59.63 354.57 59.56 C 354.58 63.11 354.66 66.66 354.75 70.21 C 351.38 70.31 348.02 70.41 344.65 70.46 C 344.68 66.83 344.71 63.21 344.65 59.58 C 342.85 59.73 341.04 59.84 339.31 60.36 M 367.19 59.64 C 367.18 61.09 367.17 62.53 367.18 63.97 C 369.67 64.18 372.17 64.30 374.67 64.42 C 374.72 71.92 373.75 79.37 373.63 86.86 C 375.57 86.88 377.52 86.89 379.47 86.89 C 379.40 79.49 380.26 72.14 380.46 64.76 C 383.15 64.77 385.84 64.83 388.53 64.81 C 388.49 63.50 388.46 62.18 388.43 60.87 C 381.36 60.37 374.24 60.50 367.19 59.64 M 285.64 64.68 C 284.00 73.91 282.15 83.10 280.59 92.34 C 282.29 92.07 283.99 91.79 285.70 91.53 C 286.12 89.60 286.50 87.66 286.85 85.71 C 290.41 85.07 293.97 84.40 297.58 84.07 C 298.41 85.86 299.24 87.64 300.06 89.44 C 301.83 89.16 303.59 88.86 305.36 88.57 C 301.28 80.05 296.79 71.72 292.25 63.43 C 290.05 63.86 287.85 64.29 285.64 64.68 M 266.77 67.87 C 266.76 74.67 267.62 81.47 267.14 88.27 C 263.89 82.42 261.22 76.27 258.21 70.29 C 256.25 70.53 254.30 70.77 252.35 71.05 C 252.24 77.83 251.77 84.60 251.55 91.39 C 248.30 85.58 246.18 79.24 243.25 73.28 C 241.22 73.72 239.19 74.18 237.17 74.68 C 241.26 82.70 245.18 90.82 249.45 98.75 C 251.50 98.83 253.54 98.51 255.58 98.32 C 256.71 91.48 255.97 84.53 256.57 77.65 C 260.02 83.50 262.64 89.79 265.92 95.73 C 267.68 95.20 269.49 94.75 271.20 94.01 C 272.75 92.84 272.18 90.72 272.36 89.06 C 272.32 81.71 272.53 74.36 272.48 67.00 C 270.58 67.29 268.67 67.58 266.77 67.87 M 211.06 84.26 C 213.92 92.53 216.89 100.76 220.12 108.89 C 221.70 108.63 223.28 108.39 224.86 108.16 C 224.66 104.18 222.85 100.57 222.01 96.72 C 224.41 96.17 226.82 95.60 229.25 95.20 C 230.62 98.16 232.04 101.09 233.56 103.98 C 235.43 103.52 237.28 102.98 239.13 102.43 C 236.86 98.28 235.66 92.60 230.58 91.05 C 233.94 87.59 233.03 80.83 227.95 79.61 C 221.97 79.07 216.60 82.54 211.06 84.26 M 186.99 93.83 C 189.88 102.33 194.20 110.27 197.72 118.52 C 203.06 116.07 208.47 113.76 213.78 111.24 C 213.30 109.85 212.81 108.46 212.33 107.08 C 208.48 108.46 204.76 110.16 201.02 111.80 C 200.22 109.73 198.48 107.77 198.55 105.52 C 201.64 103.84 204.96 102.62 208.14 101.13 C 207.64 99.80 207.15 98.47 206.64 97.15 C 203.25 98.57 199.88 100.08 196.41 101.31 C 195.67 99.53 194.92 97.75 194.19 95.96 C 197.63 94.42 201.23 93.15 204.41 91.10 C 204.00 89.76 203.56 88.44 203.08 87.13 C 197.55 88.94 192.39 91.69 186.99 93.83 M 164.59 106.52 C 160.83 110.09 161.84 117.62 167.13 119.15 C 172.41 119.81 177.51 116.31 182.80 118.10 C 182.72 120.40 182.83 123.20 180.35 124.31 C 178.34 125.87 176.06 124.76 174.10 123.75 C 172.12 122.38 170.10 124.52 168.24 125.12 C 169.79 127.06 171.29 129.77 174.13 129.77 C 179.60 130.47 184.47 126.63 187.34 122.32 C 189.53 119.08 187.52 114.55 184.49 112.60 C 179.02 111.27 173.61 114.09 168.09 113.62 C 167.80 112.25 167.17 110.87 167.41 109.45 C 168.74 107.33 171.29 105.79 173.72 107.12 C 175.95 108.26 178.09 107.31 179.98 106.00 C 178.63 104.72 177.51 102.89 175.57 102.47 C 171.48 101.47 167.45 103.78 164.59 106.52 M 139.21 126.33 C 138.00 129.98 140.18 134.49 144.04 135.38 C 148.90 135.99 153.12 132.47 157.92 132.59 C 161.50 133.79 159.77 139.07 156.77 139.97 C 154.32 141.44 152.02 139.40 149.91 138.32 C 148.55 139.45 147.19 140.58 145.83 141.71 C 147.86 143.96 150.57 146.24 153.83 145.60 C 158.32 144.64 162.28 141.50 164.42 137.45 C 166.71 133.90 164.36 128.88 160.75 127.26 C 155.30 126.35 150.35 130.08 144.94 129.42 C 142.36 127.53 143.76 124.32 146.14 123.08 C 148.22 121.44 150.74 123.00 152.87 123.66 C 153.90 122.70 154.93 121.74 155.95 120.78 C 153.84 119.46 151.69 117.37 148.99 117.78 C 144.63 118.73 140.33 121.83 139.21 126.33 M 121.33 140.17 C 119.73 141.57 118.34 143.24 117.30 145.10 C 121.44 153.29 126.18 161.20 130.57 169.27 C 131.71 168.21 132.92 167.20 133.86 165.94 C 133.30 163.81 132.17 161.90 131.24 159.93 C 133.51 157.52 135.78 155.12 137.97 152.64 C 139.92 153.18 141.81 154.24 143.88 154.23 C 145.23 153.00 146.39 151.57 147.56 150.17 C 138.79 146.94 130.36 142.59 121.33 140.17 M 104.09 158.36 C 103.29 160.13 102.48 161.91 101.73 163.70 C 106.86 167.76 112.15 171.64 117.10 175.93 C 110.54 174.83 104.10 173.13 97.66 171.49 C 96.68 173.24 95.58 174.96 95.01 176.90 C 99.42 182.16 105.47 185.74 110.02 190.89 C 103.54 189.03 97.08 187.07 90.57 185.26 C 89.58 187.09 88.65 188.95 87.75 190.83 C 96.19 192.54 104.58 194.52 112.99 196.35 C 116.01 197.10 115.88 192.84 117.08 191.03 C 112.10 186.43 106.83 182.14 102.13 177.24 C 108.91 178.67 115.45 181.22 122.37 181.92 C 123.01 179.99 124.33 178.18 124.35 176.11 C 117.79 169.99 111.05 164.04 104.09 158.36 Z" />
<path fill="#fdda57" opacity="1.00" d=" M 406.26 72.13 C 406.69 66.64 413.54 62.81 418.40 65.58 C 424.05 68.07 424.41 77.05 419.21 80.19 C 416.90 81.99 413.86 81.40 411.16 81.48 C 385.30 115.20 359.66 149.09 333.87 182.86 C 326.26 193.25 317.92 203.11 310.65 213.73 C 322.98 219.24 334.09 227.40 342.85 237.70 C 350.22 236.96 358.03 235.63 365.02 238.92 C 376.69 243.93 389.27 246.80 401.96 247.31 C 411.21 247.71 420.25 245.39 429.36 244.22 C 443.11 241.32 456.83 237.00 471.05 237.72 C 478.92 238.47 486.72 240.09 494.24 242.56 C 503.27 245.40 512.35 248.93 521.97 248.68 C 531.10 249.05 540.08 247.06 548.81 244.63 C 555.76 242.85 562.32 239.35 569.64 239.35 C 569.33 246.55 567.60 253.58 565.30 260.38 C 560.19 261.44 555.05 262.33 549.93 263.32 C 544.61 264.31 539.49 266.40 534.03 266.55 C 524.56 266.88 514.84 269.01 505.53 266.28 C 497.16 263.91 488.72 261.77 480.33 259.48 C 468.99 256.02 456.82 256.96 445.34 259.24 C 435.97 260.96 426.89 264.08 417.41 265.21 C 399.86 266.76 382.02 265.01 365.21 259.68 C 362.24 258.65 359.11 258.23 355.98 258.12 C 359.47 266.64 362.73 275.38 363.71 284.61 C 362.40 284.28 361.10 283.95 359.81 283.61 C 359.41 280.11 358.35 276.75 357.19 273.45 C 333.83 279.29 309.40 281.23 285.52 277.72 C 274.59 276.21 263.77 273.98 253.10 271.20 C 254.02 268.58 255.02 265.99 256.00 263.38 C 278.94 269.54 302.86 273.49 326.64 270.88 C 335.04 270.01 343.35 268.41 351.55 266.40 C 352.53 266.05 354.96 265.73 353.99 264.11 C 351.28 257.02 348.01 249.77 342.72 244.21 C 338.74 244.78 335.00 246.44 331.02 247.03 C 310.36 250.61 289.12 247.89 269.06 242.33 C 264.18 249.09 260.12 256.37 255.88 263.53 C 242.66 260.59 230.51 254.20 219.39 246.61 C 208.97 239.41 199.02 231.37 190.45 222.02 C 199.67 215.49 209.93 210.29 220.89 207.42 C 233.19 223.25 249.99 235.59 268.88 242.37 C 269.92 241.12 270.96 239.87 272.00 238.62 C 284.27 242.43 297.17 243.93 309.99 244.06 C 319.83 243.84 329.79 242.78 339.01 239.14 C 331.28 228.43 319.90 220.90 307.96 215.63 C 301.61 214.70 295.72 218.28 290.57 221.54 C 283.39 226.05 277.62 232.31 271.83 238.40 C 271.41 238.34 270.57 238.22 270.15 238.16 C 252.97 231.52 236.92 220.76 226.11 205.64 C 247.49 201.52 269.68 202.81 290.90 207.30 C 296.35 208.34 301.49 210.45 306.81 211.96 C 340.72 167.72 374.42 123.31 408.41 79.13 C 407.36 76.93 405.95 74.68 406.26 72.13 Z" />
<path fill="#fdda57" opacity="1.00" d=" M 289.81 69.89 C 291.55 73.15 293.72 76.28 294.60 79.92 C 292.46 80.33 290.29 80.55 288.14 80.78 C 288.43 77.11 289.06 73.49 289.81 69.89 Z" />
<path fill="#fdda57" opacity="1.00" d=" M 218.15 85.87 C 221.07 85.22 226.34 82.58 227.29 87.13 C 228.50 91.26 222.96 91.92 220.22 92.97 C 219.37 90.66 218.65 88.29 218.15 85.87 Z" />
<path fill="#fdda57" opacity="1.00" d=" M 408.94 90.21 C 415.77 98.91 422.12 108.16 430.72 115.28 C 441.37 124.79 454.66 131.80 469.00 133.30 C 476.80 133.95 484.60 132.86 492.27 131.53 C 506.27 129.00 519.91 124.29 532.37 117.41 C 538.42 114.14 543.73 109.72 549.66 106.26 C 542.96 122.96 532.59 138.16 519.59 150.59 C 503.36 166.37 483.09 177.49 461.80 184.86 C 452.57 188.16 442.84 189.71 433.17 191.07 C 416.16 193.14 398.81 193.27 381.89 190.36 C 369.26 188.11 356.57 183.95 346.64 175.54 C 358.94 163.55 372.97 153.30 384.25 140.25 C 396.06 125.60 402.99 107.86 408.94 90.21 M 414.16 139.81 C 409.24 136.56 404.46 133.12 399.45 130.00 C 396.14 134.90 392.72 139.73 389.59 144.75 C 394.37 148.06 399.19 151.32 403.89 154.75 C 400.56 159.50 397.11 164.18 394.04 169.12 C 398.69 172.36 403.23 175.77 408.00 178.84 C 411.52 174.32 414.53 169.41 418.15 164.97 C 423.42 167.62 427.67 171.89 432.79 174.83 C 436.12 169.88 439.68 165.09 442.83 160.02 C 437.93 156.76 433.03 153.49 428.21 150.12 C 431.83 145.42 435.35 140.63 438.87 135.85 C 433.95 132.57 429.51 128.44 424.11 125.96 C 420.31 130.21 417.77 135.41 414.16 139.81 Z" />
<path fill="#fdda57" opacity="1.00" d=" M 552.66 107.92 C 581.59 127.92 607.04 154.75 620.19 187.80 C 627.91 206.84 630.38 227.99 627.13 248.28 C 623.97 268.34 615.50 287.37 603.91 303.96 C 584.10 331.92 556.25 353.31 526.18 369.26 C 488.87 389.04 447.65 400.75 405.92 406.44 C 368.37 411.48 330.13 411.59 292.62 406.12 C 265.97 402.16 239.56 395.98 214.33 386.46 C 197.52 380.28 181.07 372.93 165.66 363.77 C 176.08 362.62 186.55 361.96 196.99 361.02 C 204.86 360.28 212.05 356.49 219.96 355.93 C 245.07 353.34 268.93 365.33 293.99 364.08 C 300.38 363.32 306.70 364.97 313.06 365.32 C 321.36 365.72 329.63 366.60 337.95 366.68 C 344.97 366.68 351.99 367.57 359.00 366.83 C 402.01 366.17 445.13 358.39 484.99 341.99 C 501.01 335.09 516.62 327.02 530.72 316.71 C 546.06 305.59 559.86 291.93 569.47 275.50 C 579.13 258.94 583.69 238.98 580.16 219.98 C 577.90 206.55 571.95 193.98 564.16 182.90 C 555.21 169.93 543.61 159.06 531.33 149.31 C 539.40 140.14 546.88 130.05 550.25 118.13 C 551.11 114.74 551.82 111.32 552.66 107.92 M 571.33 137.63 C 574.62 140.79 577.88 143.99 580.95 147.37 C 573.89 148.70 566.68 148.82 559.59 149.81 C 557.99 150.67 557.12 152.38 556.00 153.72 C 560.51 158.18 564.98 162.69 569.44 167.19 C 570.40 166.23 571.32 165.23 572.23 164.22 C 569.22 161.22 566.09 158.32 563.49 154.95 C 569.97 154.10 576.50 153.59 582.97 152.67 C 585.32 152.43 586.73 150.27 588.46 148.91 C 584.02 144.22 579.59 139.48 574.78 135.17 C 573.33 135.48 572.40 136.73 571.33 137.63 M 587.11 160.15 C 581.96 162.84 577.23 166.26 572.10 168.97 C 572.79 170.72 573.56 172.43 574.35 174.14 C 579.98 171.39 584.84 167.30 590.47 164.55 C 595.68 162.32 600.60 170.87 596.17 174.21 C 591.35 178.00 585.66 180.57 580.98 184.57 C 581.99 186.00 582.99 187.44 583.98 188.89 C 588.75 186.05 593.63 183.36 598.20 180.19 C 600.89 178.33 603.25 175.41 603.30 172.01 C 602.62 167.02 599.49 162.46 595.34 159.68 C 592.83 157.85 589.60 158.89 587.11 160.15 M 606.09 184.78 C 607.44 188.60 608.91 192.39 610.38 196.17 C 608.20 197.07 606.02 197.96 603.85 198.87 C 602.62 195.38 601.33 191.92 600.03 188.47 C 598.71 189.01 597.41 189.54 596.11 190.07 C 597.23 193.50 598.51 196.87 599.74 200.27 C 597.80 201.03 595.86 201.78 593.92 202.54 C 592.62 198.90 591.29 195.28 590.02 191.64 C 588.67 191.97 587.32 192.30 585.98 192.63 C 587.32 198.44 589.76 203.93 591.78 209.52 C 600.06 206.39 608.49 203.64 616.68 200.29 C 614.58 194.63 612.70 188.89 610.37 183.33 C 608.93 183.81 607.51 184.30 606.09 184.78 M 605.19 215.23 C 603.11 211.74 598.43 211.29 595.08 213.08 C 592.00 215.35 592.60 219.67 592.82 223.00 C 592.98 228.36 595.57 233.54 594.10 238.90 C 597.01 242.27 599.79 245.75 602.82 249.02 C 599.16 248.42 595.56 247.55 591.92 246.88 C 591.64 248.74 591.38 250.60 591.15 252.47 C 599.71 254.34 608.19 256.73 616.87 257.99 C 617.19 256.20 617.47 254.42 617.74 252.62 C 613.45 251.74 609.14 250.90 604.97 249.58 C 610.05 247.49 615.21 245.58 620.22 243.32 C 620.65 241.27 621.15 239.23 621.63 237.19 C 616.01 239.19 610.77 242.22 605.04 243.88 C 601.49 240.50 598.80 236.33 595.89 232.41 C 603.51 231.21 611.24 230.88 618.90 230.01 C 621.84 229.54 619.62 225.98 619.70 224.10 C 616.06 224.32 612.43 224.66 608.80 224.86 C 608.69 222.60 608.51 220.34 608.73 218.08 C 611.61 216.09 615.23 215.95 618.57 215.30 C 618.47 213.30 618.39 211.29 618.31 209.29 C 613.88 211.07 607.70 210.35 605.19 215.23 M 585.52 268.59 C 580.92 271.88 578.47 278.61 581.15 283.82 C 582.67 286.73 586.51 287.58 589.38 286.30 C 593.82 283.82 596.76 278.72 602.21 278.20 C 602.74 280.85 603.54 284.21 601.19 286.27 C 599.61 288.16 596.95 287.12 594.85 287.26 C 594.16 288.73 593.45 290.21 593.05 291.80 C 595.93 294.07 600.39 293.55 602.65 290.64 C 605.12 287.60 607.36 283.98 607.64 279.99 C 608.19 275.47 603.15 272.09 599.06 272.58 C 594.54 274.54 591.78 279.36 587.00 280.76 C 583.62 281.13 583.55 277.02 584.96 274.96 C 586.10 272.64 589.23 273.39 591.19 272.19 C 591.84 271.03 592.45 269.85 593.01 268.65 C 590.54 268.40 587.95 267.79 585.52 268.59 M 563.29 299.32 C 569.98 305.03 576.78 310.70 583.90 315.86 C 588.04 311.72 591.60 306.99 594.99 302.21 C 593.91 301.19 592.84 300.17 591.77 299.16 C 589.09 302.29 586.55 305.52 583.88 308.65 C 582.10 307.36 580.32 306.07 578.55 304.78 C 580.81 301.86 583.13 299.00 585.46 296.13 C 584.31 295.18 583.17 294.24 582.03 293.30 C 579.72 296.15 577.34 298.92 575.04 301.77 C 573.59 300.50 572.11 299.27 570.79 297.86 C 572.55 294.56 575.28 291.92 577.62 289.03 C 576.74 288.00 575.87 286.97 575.01 285.94 C 570.46 289.80 567.34 294.98 563.29 299.32 M 560.08 303.19 C 554.79 307.58 549.69 312.22 544.66 316.91 C 545.50 317.89 546.34 318.88 547.19 319.88 C 549.33 318.23 551.41 316.52 553.55 314.87 C 558.52 320.10 562.77 326.04 568.10 330.92 C 569.92 330.10 571.18 328.48 572.61 327.14 C 567.69 321.73 562.48 316.58 557.63 311.11 C 559.78 309.09 562.36 307.22 563.18 304.23 C 562.16 303.83 561.12 303.49 560.08 303.19 M 535.40 323.54 C 529.98 324.53 525.73 329.47 525.54 334.97 C 525.47 341.44 529.84 347.59 535.72 350.13 C 542.50 352.27 550.06 347.40 552.28 340.95 C 553.80 334.71 549.67 328.75 544.98 325.07 C 542.29 322.89 538.62 322.99 535.40 323.54 M 510.00 339.03 C 506.05 340.99 502.16 343.06 498.16 344.90 C 502.09 352.79 506.32 360.52 510.19 368.45 C 511.95 367.66 513.70 366.84 515.46 366.02 C 513.90 362.95 512.11 360.00 510.76 356.83 C 512.22 354.71 515.00 354.24 517.17 353.12 C 519.21 356.01 521.09 359.03 523.17 361.91 C 525.04 361.07 526.90 360.18 528.74 359.27 C 525.82 355.55 523.65 350.33 518.53 349.29 C 519.82 346.79 520.61 343.66 518.81 341.17 C 517.22 337.93 512.93 337.60 510.00 339.03 M 467.91 357.86 C 465.27 360.72 465.63 365.89 468.75 368.24 C 473.77 370.62 479.59 368.64 484.74 370.70 C 485.36 374.32 482.19 376.68 479.00 377.36 C 476.94 376.57 475.57 374.74 474.00 373.30 C 472.35 374.08 470.72 374.87 469.10 375.71 C 470.74 378.23 472.51 381.43 475.98 381.43 C 480.28 381.49 484.79 379.99 488.01 377.07 C 491.51 374.22 490.71 368.26 487.36 365.67 C 482.83 363.65 477.66 365.34 473.02 363.92 C 469.81 362.98 471.32 358.66 473.90 357.92 C 476.51 356.30 478.80 358.75 481.00 359.87 C 482.37 359.48 483.64 358.81 484.95 358.23 C 483.67 356.68 482.50 355.00 480.85 353.82 C 476.25 352.36 470.92 354.13 467.91 357.86 M 236.11 385.81 C 241.66 387.36 247.48 389.84 253.31 388.28 C 260.70 385.49 263.44 375.53 260.20 368.77 C 256.76 362.46 248.93 362.11 242.77 360.43 C 240.39 368.84 238.15 377.30 236.11 385.81 M 440.91 364.34 C 442.52 372.98 445.20 381.38 447.24 389.93 C 453.20 389.28 458.86 387.17 464.71 385.97 C 464.28 384.43 463.84 382.90 463.40 381.37 C 459.54 382.41 455.66 383.44 451.70 384.05 C 451.28 381.95 450.83 379.87 450.40 377.78 C 453.78 376.96 457.16 376.11 460.55 375.29 C 460.46 374.25 460.27 372.18 460.18 371.15 C 456.53 371.72 452.96 372.69 449.42 373.72 C 448.85 371.62 448.35 369.50 447.97 367.37 C 451.53 366.35 455.12 365.45 458.69 364.47 C 458.56 363.45 458.30 361.41 458.16 360.40 C 452.39 361.64 446.68 363.10 440.91 364.34 M 428.13 367.42 C 428.30 371.04 428.99 374.60 429.62 378.16 C 426.31 378.70 423.03 379.35 419.72 379.83 C 419.23 376.27 418.56 372.74 417.55 369.30 C 415.78 369.73 414.01 370.17 412.25 370.63 C 414.03 379.22 415.32 387.91 416.81 396.57 C 418.64 396.22 420.47 395.88 422.31 395.56 C 421.74 391.77 420.96 388.01 420.66 384.19 C 423.80 383.13 427.12 382.75 430.39 382.24 C 431.17 385.99 431.92 389.75 432.65 393.52 C 434.31 393.40 435.98 393.29 437.65 393.19 C 436.72 384.44 434.86 375.81 433.57 367.11 C 431.75 367.19 429.94 367.29 428.13 367.42 M 271.63 368.02 C 270.18 376.57 268.19 385.04 267.08 393.65 C 272.90 394.91 278.77 395.86 284.63 396.91 C 284.64 395.27 286.21 393.04 284.30 391.96 C 280.91 391.22 277.46 390.86 274.03 390.38 C 274.20 387.99 274.41 385.61 274.62 383.24 C 278.26 383.84 281.87 384.55 285.54 384.93 C 285.60 383.59 285.66 382.25 285.73 380.92 C 282.28 380.42 278.86 379.79 275.44 379.14 C 275.80 377.14 276.19 375.14 276.56 373.14 C 280.55 373.53 284.48 374.36 288.47 374.80 C 288.58 373.39 288.68 371.99 288.79 370.59 C 283.08 369.68 277.40 368.46 271.63 368.02 M 296.66 372.26 C 296.39 379.12 294.95 385.93 295.41 392.81 C 295.89 397.36 300.88 399.70 305.00 399.78 C 309.04 400.11 314.85 400.10 316.48 395.49 C 318.71 388.74 318.50 381.48 319.64 374.50 C 317.74 374.17 315.85 373.83 313.96 373.54 C 313.60 378.74 312.85 383.89 312.41 389.08 C 312.15 391.27 311.88 393.88 309.82 395.17 C 306.47 396.21 300.84 395.43 300.68 391.04 C 301.17 384.82 301.74 378.59 302.33 372.37 C 300.43 372.33 298.55 372.29 296.66 372.26 M 386.44 375.43 C 382.78 379.27 383.07 385.08 384.02 389.92 C 384.91 393.43 386.19 397.86 390.19 398.88 C 396.63 400.96 406.75 398.65 407.04 390.49 C 405.49 390.47 403.96 390.45 402.43 390.43 C 401.49 391.85 400.69 393.38 399.49 394.60 C 397.06 396.13 393.23 395.96 391.44 393.52 C 388.53 389.60 387.89 384.15 389.67 379.63 C 391.12 375.97 396.68 374.73 399.22 377.90 C 400.74 380.08 403.39 379.38 405.66 379.37 C 404.48 376.61 403.06 373.16 399.76 372.47 C 395.24 371.98 389.75 371.69 386.44 375.43 M 355.74 386.28 C 359.28 390.56 366.34 388.88 369.82 393.30 C 370.95 397.89 364.83 398.96 361.93 397.07 C 360.73 395.74 360.03 394.08 359.14 392.56 C 357.43 392.94 355.72 393.34 354.03 393.76 C 355.04 396.23 355.53 399.52 358.29 400.70 C 361.46 402.17 365.15 401.73 368.52 401.33 C 371.64 400.52 375.85 398.74 375.72 394.90 C 375.89 392.62 375.61 389.88 373.47 388.56 C 369.20 386.04 364.16 385.27 359.88 382.76 C 360.37 381.34 360.72 379.83 361.64 378.62 C 363.48 378.23 365.38 378.27 367.26 378.27 C 367.98 379.36 368.69 380.48 369.52 381.50 C 371.03 381.77 372.57 381.74 374.10 381.81 C 373.64 379.85 373.37 377.62 371.63 376.34 C 368.86 373.76 364.77 374.34 361.32 374.63 C 356.20 375.49 352.83 381.68 355.74 386.28 M 327.41 375.32 C 327.40 376.73 327.39 378.15 327.38 379.57 C 329.88 379.59 332.38 379.60 334.89 379.64 C 334.82 386.97 334.62 394.29 334.71 401.61 C 336.56 401.59 338.42 401.60 340.29 401.63 C 340.54 394.27 340.49 386.90 340.56 379.54 C 343.26 379.67 345.96 379.81 348.67 379.90 C 348.70 378.82 348.75 376.66 348.78 375.58 C 341.66 375.39 334.53 375.32 327.41 375.32 Z" />
<path fill="#fdda57" opacity="1.00" d=" M 123.65 146.70 C 127.07 147.70 130.35 149.10 133.50 150.75 C 131.97 152.48 130.44 154.21 128.88 155.92 C 126.96 152.95 125.13 149.92 123.65 146.70 Z" />
<path fill="#fdda57" opacity="1.00" d=" M 597.39 218.37 C 599.30 218.24 602.00 216.44 603.22 218.76 C 604.33 220.97 604.41 223.48 604.50 225.90 C 601.94 226.11 599.39 226.29 596.83 226.36 C 596.87 223.69 597.08 221.03 597.39 218.37 Z" />
<path fill="#fdda57" opacity="1.00" d=" M 179.51 237.96 C 179.85 233.37 182.29 229.24 185.65 226.20 C 194.72 236.27 205.21 244.94 216.26 252.74 C 227.54 260.40 239.64 267.15 252.75 271.08 C 250.88 275.13 249.18 279.25 247.43 283.35 C 244.47 280.01 241.99 276.28 239.10 272.89 C 236.34 269.60 232.15 267.77 227.92 267.45 C 218.61 266.74 209.28 268.12 199.97 267.46 C 195.06 267.03 189.91 265.08 187.15 260.78 C 182.61 254.11 178.78 246.24 179.51 237.96 Z" />
<path fill="#fdda57" opacity="1.00" d=" M 86.72 240.66 C 91.72 238.99 96.55 236.34 101.95 236.33 C 106.76 236.15 111.61 236.18 116.40 236.74 C 126.25 238.12 135.62 241.66 145.41 243.34 C 154.88 244.72 164.36 242.84 173.63 241.08 C 172.47 245.86 171.63 250.96 173.20 255.75 C 177.06 268.04 185.21 278.28 192.86 288.42 C 192.10 288.73 190.57 289.35 189.80 289.67 C 184.06 282.77 178.19 275.88 174.10 267.83 C 168.92 266.42 163.39 269.63 157.99 268.50 C 141.86 266.05 126.55 258.80 110.01 258.84 C 99.44 259.06 89.51 263.13 79.73 266.71 C 78.18 267.43 77.73 265.54 77.30 264.52 C 75.39 259.00 73.70 253.33 73.10 247.49 C 77.51 244.97 81.86 242.26 86.72 240.66 Z" />
<path fill="#fdda57" opacity="1.00" d=" M 90.65 270.51 C 100.95 266.50 112.31 262.97 123.38 265.78 C 125.65 266.52 128.80 266.53 129.96 269.00 C 132.45 273.75 135.20 278.35 138.10 282.85 C 131.42 281.98 124.77 280.67 118.01 280.72 C 107.32 280.90 96.39 282.59 86.87 287.71 C 84.89 283.50 82.31 279.52 81.03 275.03 C 83.88 272.87 87.43 271.95 90.65 270.51 Z" />
<path fill="#fdda57" opacity="1.00" d=" M 200.99 290.09 C 216.54 285.44 233.65 281.51 249.40 287.54 C 264.23 293.47 280.50 296.09 296.41 294.24 C 303.41 292.89 310.61 292.56 317.44 290.34 C 329.80 287.78 342.26 284.48 355.01 285.44 C 364.21 285.67 372.47 290.17 381.38 291.88 C 402.52 296.31 424.65 294.40 445.29 288.41 C 449.78 287.22 454.42 286.58 459.07 286.49 C 466.35 286.36 473.63 284.68 480.91 285.69 C 497.54 288.57 513.94 293.90 530.99 293.51 C 535.51 293.51 539.95 292.58 544.45 292.22 C 537.94 299.84 530.21 306.36 522.03 312.10 C 520.36 313.53 518.14 313.75 516.06 313.31 C 503.99 311.00 492.14 307.59 479.97 305.82 C 470.27 305.14 460.29 304.33 450.83 307.14 C 439.66 309.37 428.67 312.64 417.39 314.24 C 408.20 314.18 398.88 316.64 389.83 314.13 C 379.55 311.43 369.31 308.63 359.01 305.99 C 352.13 304.36 344.97 304.33 337.99 305.30 C 323.42 306.64 309.62 312.31 294.99 313.20 C 278.23 314.19 261.31 311.88 245.31 306.84 C 238.72 304.83 231.73 305.47 224.94 305.50 C 205.86 306.72 187.21 312.53 167.98 311.79 C 161.21 311.82 154.52 310.56 148.03 308.71 C 133.05 304.64 116.48 303.52 101.92 309.77 C 97.91 304.40 93.86 299.01 90.68 293.09 C 99.95 289.32 109.97 287.40 119.98 287.40 C 124.42 287.38 128.95 287.31 133.25 288.56 C 149.73 293.06 166.92 295.61 184.00 294.13 C 189.83 293.59 195.35 291.51 200.99 290.09 Z" />
<path fill="#fdda57" opacity="1.00" d=" M 106.73 314.50 C 115.62 310.56 125.62 311.06 135.05 312.24 C 142.83 313.11 150.28 315.70 158.01 316.82 C 163.80 317.87 169.72 317.81 175.51 318.71 C 180.61 321.55 185.36 324.99 190.33 328.04 C 177.14 333.24 162.75 330.94 149.00 330.19 C 139.69 329.12 130.30 329.53 121.05 330.94 C 116.01 325.71 110.43 320.82 106.73 314.50 Z" />
<path fill="#fdda57" opacity="1.00" d=" M 533.62 328.64 C 536.07 326.91 539.43 327.49 541.48 329.57 C 544.50 332.47 547.33 336.45 546.80 340.87 C 546.39 344.83 541.23 347.36 537.94 344.97 C 534.56 342.54 532.04 338.93 530.79 334.98 C 529.83 332.48 531.52 329.90 533.62 328.64 Z" />
<path fill="#fdda57" opacity="1.00" d=" M 202.02 333.24 C 218.05 329.12 235.11 329.51 251.13 333.49 C 258.90 335.12 266.65 336.86 274.45 338.35 C 283.53 339.57 292.70 338.17 301.59 336.29 C 311.96 333.99 322.42 331.97 333.00 330.84 C 345.65 330.00 358.27 332.42 370.43 335.75 C 379.39 338.21 388.68 339.67 397.99 339.46 C 410.88 339.60 423.24 335.48 435.87 333.58 C 449.43 330.01 464.62 329.89 477.44 336.14 C 458.61 344.29 438.45 348.96 418.38 352.98 C 387.63 358.49 356.21 360.72 325.03 358.42 C 312.74 356.90 300.34 357.67 288.00 357.34 C 278.15 356.30 268.01 356.61 258.52 353.36 C 251.97 350.92 245.05 349.39 238.05 349.27 C 211.08 347.87 184.99 358.31 157.99 356.23 C 154.47 355.82 150.61 355.73 147.82 353.21 C 141.08 347.96 134.00 343.04 128.03 336.89 C 142.04 335.30 156.04 337.34 170.00 338.29 C 180.90 338.89 191.65 336.32 202.02 333.24 Z" />
<path fill="#fdda57" opacity="1.00" d=" M 505.22 345.82 C 507.91 344.52 510.71 343.35 513.75 343.31 C 514.24 344.98 515.20 346.75 514.58 348.53 C 513.08 350.46 510.76 351.47 508.76 352.76 C 507.46 350.50 506.30 348.18 505.22 345.82 Z" />
<path fill="#fdda57" opacity="1.00" d=" M 246.69 366.01 C 250.02 366.61 254.09 367.40 255.44 370.99 C 255.98 374.95 255.53 379.56 252.61 382.56 C 249.99 385.13 246.13 383.88 242.95 383.53 C 243.81 377.61 245.36 371.83 246.69 366.01 Z" />
</g>
</svg>
