<?xml version="1.0" encoding="UTF-8" standalone="no"?>
<!-- Created with Inkscape (http://www.inkscape.org/) -->

<svg
   width="217.59076mm"
   height="217.59076mm"
   viewBox="0 0 217.59076 217.59076"
   version="1.1"
   id="svg62660"
   inkscape:version="1.1 (c68e22c387, 2021-05-23)"
   sodipodi:docname="Deutsches Jugenschwimmabzeichen in Gold.svg"
   xmlns:inkscape="http://www.inkscape.org/namespaces/inkscape"
   xmlns:sodipodi="http://sodipodi.sourceforge.net/DTD/sodipodi-0.dtd"
   xmlns="http://www.w3.org/2000/svg"
   xmlns:svg="http://www.w3.org/2000/svg">
  <sodipodi:namedview
     id="namedview62662"
     pagecolor="#ffffff"
     bordercolor="#666666"
     borderopacity="1.0"
     inkscape:pageshadow="2"
     inkscape:pageopacity="0.0"
     inkscape:pagecheckerboard="0"
     inkscape:document-units="mm"
     showgrid="false"
     fit-margin-top="5"
     fit-margin-left="5"
     fit-margin-right="5"
     fit-margin-bottom="5"
     inkscape:zoom="0.72248176"
     inkscape:cx="374.40391"
     inkscape:cy="481.67306"
     inkscape:window-width="1920"
     inkscape:window-height="996"
     inkscape:window-x="-8"
     inkscape:window-y="-8"
     inkscape:window-maximized="1"
     inkscape:current-layer="layer1" />
  <defs
     id="defs62657" />
  <g
     inkscape:label="Ebene 1"
     inkscape:groupmode="layer"
     id="layer1"
     transform="translate(89.386007,37.383541)">
    <circle
       style="fill:#ffffff;stroke:#666699;stroke-width:3.93134;stroke-linejoin:round;stroke-miterlimit:4;stroke-dasharray:none;stroke-opacity:1"
       id="path859-9"
       cx="19.409372"
       cy="71.411835"
       r="98.110909" />
    <path
       style="fill:#666699;fill-opacity:1;stroke:none;stroke-width:0.260042px;stroke-linecap:butt;stroke-linejoin:miter;stroke-opacity:1"
       d="m 46.265244,166.47987 v -37.92171 l 41.993835,-9.4168 v 9.4168 h 10.180322 c -9.119872,15.44016 -31.855932,31.51659 -52.174157,37.92171 z"
       id="path29053"
       sodipodi:nodetypes="cccccc" />
    <path
       style="fill:none;stroke:#666699;stroke-width:6.87985;stroke-linecap:butt;stroke-linejoin:miter;stroke-miterlimit:4;stroke-dasharray:none;stroke-opacity:1"
       d="m -51.896596,140.9018 c 10.137377,2.16593 21.087243,2.04127 30.461095,-0.37396 12.0463914,3.02963 23.5837662,3.00515 34.230362,-0.45519 12.132407,3.75285 25.468104,1.71152 36.582484,-1.34321"
       id="path29373"
       sodipodi:nodetypes="cccc" />
    <path
       style="fill:none;stroke:#666699;stroke-width:6.87985;stroke-linecap:butt;stroke-linejoin:miter;stroke-miterlimit:4;stroke-dasharray:none;stroke-opacity:1"
       d="m -33.581056,156.00137 c 3.222323,-0.12469 9.302243,-1.73274 12.524566,-1.85743 11.1583392,3.07781 22.825694,3.10153 33.475017,0.0712 12.130594,3.02781 26.789739,1.13639 37.138785,-1.944"
       id="path29375"
       sodipodi:nodetypes="cccc" />
    <path
       style="fill:none;stroke:#666699;stroke-width:6.87985;stroke-linecap:butt;stroke-linejoin:miter;stroke-miterlimit:4;stroke-dasharray:none;stroke-opacity:1"
       d="m -1.2148626,169.31938 c 3.9900503,-0.43398 11.9393186,-1.04793 15.9293646,-2.74167 4.388136,1.76828 12.735479,3.17663 17.48354,3.86512"
       id="path29377"
       sodipodi:nodetypes="ccc" />
    <ellipse
       style="font-variation-settings:normal;opacity:1;vector-effect:none;fill:#cccc33;fill-opacity:1;stroke:#666699;stroke-width:2.45709;stroke-linecap:round;stroke-linejoin:round;stroke-miterlimit:4;stroke-dasharray:none;stroke-dashoffset:0;stroke-opacity:1;-inkscape-stroke:none;stop-color:#000000;stop-opacity:1"
       id="path22838"
       cx="-40.102043"
       cy="55.889912"
       rx="15.875013"
       ry="15.875017" />
    <path
       style="fill:#cccc33;fill-opacity:1;stroke:#666699;stroke-width:2.45709;stroke-linecap:round;stroke-linejoin:round;stroke-miterlimit:4;stroke-dasharray:none;stroke-opacity:1"
       d="M 45.606007,32.179594 16.451773,47.656537 c -7.4485087,3.72196 -4.83461,6.377877 -3.959216,8.278358 l 31.125251,58.737035 c 7.626866,14.45518 26.961115,2.82328 19.44475,-11.22643 L 40.696614,59.894111 c -2.069587,-4.468188 -3.869238,-8.03656 0,-10.165216 L 60.403918,38.35087 C 81.4335,26.169356 64.380914,-15.229718 36.787748,-2.5535311 L -13.422315,23.72127 c -10.857853,5.278958 -8.938233,16.316775 -3.419325,24.475158 l 32.573554,62.627612 c 5.803361,11.71393 27.885894,3.84789 19.796084,-11.337761 L 13.179189,57.295906"
       id="path27862"
       sodipodi:nodetypes="ccccccccccccc" />
    <circle
       style="fill:none;stroke:#cccc33;stroke-width:3.93134;stroke-linejoin:round;stroke-miterlimit:4;stroke-dasharray:none;stroke-opacity:1"
       id="path859"
       cx="19.409372"
       cy="71.411835"
       r="101.8297" />
  </g>
</svg>
