<?xml version="1.0" encoding="UTF-8" ?>
<!DOCTYPE svg PUBLIC "-//W3C//DTD SVG 1.1//EN" "http://www.w3.org/Graphics/SVG/1.1/DTD/svg11.dtd">
<svg width="500pt" height="500pt" viewBox="0 0 500 500" version="1.1" xmlns="http://www.w3.org/2000/svg">
<path fill="#fefefc" stroke="#fefefc" stroke-width="0.09375" d=" M 0.0 0.0 L 238.3 0.0 C 230.7 4.7 221.6 1.1 213.4 3.6 C 208.2 5.1 202.8 6.0 197.4 6.7 C 166.9 13.2 138.0 26.0 112.0 43.0 C 106.3 46.9 100.5 50.7 95.5 55.5 C 86.4 64.1 76.1 71.5 68.1 81.1 C 62.3 88.0 56.1 94.6 50.5 101.6 C 42.3 114.3 34.1 127.1 27.2 140.6 C 21.9 151.7 16.1 162.7 12.8 174.7 C 9.9 185.0 6.6 195.2 5.5 205.8 C 4.2 213.0 2.1 220.1 2.6 227.4 C 2.9 231.3 1.8 235.1 0.0 238.5 L 0.0 0.0 Z" />
<path fill="#ed7d07" stroke="#ed7d07" stroke-width="0.09375" d=" M 238.3 0.0 L 259.6 0.0 C 267.4 4.4 276.4 1.3 284.7 3.4 C 290.5 4.8 296.4 6.0 302.3 6.9 C 314.5 9.7 326.9 12.0 338.5 16.9 C 366.7 27.7 392.7 43.8 415.4 63.6 C 421.8 69.9 428.2 76.1 434.5 82.4 C 439.0 87.1 442.3 92.6 446.4 97.6 C 450.5 102.5 453.8 108.2 457.5 113.5 C 466.3 126.6 473.2 140.9 479.8 155.3 C 485.9 170.4 490.6 186.1 493.7 202.2 C 494.7 211.8 497.8 221.2 497.5 231.0 C 497.4 245.3 497.8 259.7 497.3 274.0 C 496.2 282.7 494.0 291.1 493.3 299.9 C 486.5 333.5 472.6 365.7 452.6 393.6 C 448.3 400.5 442.6 406.4 437.7 412.8 C 429.2 423.5 419.1 432.8 408.4 441.3 C 397.5 450.8 385.3 458.5 373.0 465.9 C 357.0 474.7 340.4 482.5 322.8 487.4 C 313.9 489.8 305.3 493.4 296.0 493.7 C 287.9 494.2 280.2 497.7 272.0 497.5 C 261.3 497.5 250.6 497.5 240.0 497.5 C 222.1 498.0 204.5 494.0 187.0 490.5 C 180.8 489.4 175.2 486.5 169.3 484.3 C 147.7 477.2 127.5 466.3 108.8 453.5 C 102.5 449.9 97.4 444.8 91.6 440.5 C 79.1 431.0 67.6 420.1 58.4 407.3 C 55.4 402.9 50.3 400.4 47.8 395.6 C 44.1 388.7 39.7 382.1 35.5 375.4 C 31.9 369.4 29.3 362.8 26.2 356.5 C 23.6 351.2 20.2 346.2 18.3 340.6 C 16.0 333.8 13.1 327.3 11.1 320.4 C 8.8 311.7 6.7 303.0 5.6 294.1 C 4.3 287.0 2.1 280.1 2.5 272.8 C 2.8 269.1 1.5 265.6 0.0 262.3 L 0.0 238.5 C 1.8 235.1 2.9 231.3 2.6 227.4 C 2.1 220.1 4.2 213.0 5.5 205.8 C 6.6 195.2 9.9 185.0 12.8 174.7 C 16.1 162.7 21.9 151.7 27.2 140.6 C 34.1 127.1 42.3 114.3 50.5 101.6 C 56.1 94.6 62.3 88.0 68.1 81.1 C 76.1 71.5 86.4 64.1 95.5 55.5 C 100.5 50.7 106.3 46.9 112.0 43.0 C 138.0 26.0 166.9 13.2 197.4 6.7 C 202.8 6.0 208.2 5.1 213.4 3.6 C 221.6 1.1 230.7 4.7 238.3 0.0 Z" />
<path fill="#fefefc" stroke="#fefefc" stroke-width="0.09375" d=" M 259.6 0.0 L 500.0 0.0 L 500.0 500.0 L 0.0 500.0 L 0.0 262.3 C 1.5 265.6 2.8 269.1 2.5 272.8 C 2.1 280.1 4.3 287.0 5.6 294.1 C 6.7 303.0 8.8 311.7 11.1 320.4 C 13.1 327.3 16.0 333.8 18.3 340.6 C 20.2 346.2 23.6 351.2 26.2 356.5 C 29.3 362.8 31.9 369.4 35.5 375.4 C 39.7 382.1 44.1 388.7 47.8 395.6 C 50.3 400.4 55.4 402.9 58.4 407.3 C 67.6 420.1 79.1 431.0 91.6 440.5 C 97.4 444.8 102.5 449.9 108.8 453.5 C 127.5 466.3 147.7 477.2 169.3 484.3 C 175.2 486.5 180.8 489.4 187.0 490.5 C 204.5 494.0 222.1 498.0 240.0 497.5 C 250.6 497.5 261.3 497.5 272.0 497.5 C 280.2 497.7 287.9 494.2 296.0 493.7 C 305.3 493.4 313.9 489.8 322.8 487.4 C 340.4 482.5 357.0 474.7 373.0 465.9 C 385.3 458.5 397.5 450.8 408.4 441.3 C 419.1 432.8 429.2 423.5 437.7 412.8 C 442.6 406.4 448.3 400.5 452.6 393.6 C 472.6 365.7 486.5 333.5 493.3 299.9 C 494.0 291.1 496.2 282.7 497.3 274.0 C 497.8 259.7 497.4 245.3 497.5 231.0 C 497.8 221.2 494.7 211.8 493.7 202.2 C 490.6 186.1 485.9 170.4 479.8 155.3 C 473.2 140.9 466.3 126.6 457.5 113.5 C 453.8 108.2 450.5 102.5 446.4 97.6 C 442.3 92.6 439.0 87.1 434.5 82.4 C 428.2 76.1 421.8 69.9 415.4 63.6 C 392.7 43.8 366.7 27.7 338.5 16.9 C 326.9 12.0 314.5 9.7 302.3 6.9 C 296.4 6.0 290.5 4.8 284.7 3.4 C 276.4 1.3 267.4 4.4 259.6 0.0 Z" />
<path fill="#fefefc" stroke="#fefefc" stroke-width="0.09375" d=" M 232.3 22.9 C 236.5 22.1 240.8 22.5 245.0 22.4 C 251.7 22.5 258.4 22.2 265.0 22.6 C 271.7 23.4 278.2 25.5 285.0 25.5 C 289.6 25.4 293.6 27.7 298.1 28.2 C 303.6 28.6 308.5 31.4 314.0 31.9 C 339.5 39.1 363.6 51.3 384.7 67.2 C 398.2 76.1 409.4 87.9 420.4 99.6 C 431.4 112.0 440.6 125.8 448.9 140.1 C 453.5 149.3 458.5 158.3 462.0 168.0 C 465.9 179.5 470.1 191.0 472.2 203.0 C 473.0 207.3 474.7 211.5 474.6 216.0 C 475.3 224.0 476.6 232.0 477.4 240.0 C 477.7 250.7 477.7 261.4 475.9 271.9 C 474.3 295.0 467.8 317.5 458.8 338.8 C 450.0 360.5 436.9 380.1 422.1 398.1 C 413.9 406.9 405.5 415.5 396.4 423.4 C 388.3 429.3 380.8 436.1 372.1 441.1 C 360.3 449.3 347.2 455.7 333.8 460.8 C 321.3 465.7 308.6 470.3 295.3 472.4 C 283.5 475.8 271.1 475.2 259.0 477.3 C 249.6 477.5 240.0 478.0 230.7 476.2 C 222.0 474.5 213.0 475.4 204.5 472.6 C 191.1 470.0 178.0 465.7 165.2 460.8 C 156.6 457.5 148.6 452.7 140.2 448.8 C 130.6 442.1 120.3 436.2 111.1 429.0 C 106.7 425.3 101.4 422.7 97.6 418.4 C 87.6 407.3 76.2 397.4 67.9 385.0 C 61.6 377.0 56.6 368.2 51.2 359.6 C 45.9 349.8 41.4 339.6 37.1 329.4 C 34.3 320.2 31.1 311.2 28.8 301.8 C 28.3 295.8 25.2 290.2 25.4 284.0 C 25.5 274.6 22.0 265.5 22.4 256.0 C 22.5 249.1 22.2 242.1 22.6 235.1 C 23.9 227.5 25.6 219.8 25.6 212.0 C 28.1 201.2 30.6 190.3 34.2 179.8 C 41.9 152.1 57.3 127.3 74.7 104.7 C 87.5 90.2 101.3 76.3 117.4 65.4 C 123.9 60.2 131.2 56.5 138.1 52.1 C 145.2 47.8 152.6 44.1 160.3 41.2 C 176.1 33.5 193.3 30.2 210.1 25.9 C 217.5 25.1 225.0 24.6 232.3 22.9 Z" />
<path fill="#ed7d07" stroke="#ed7d07" stroke-width="0.09375" d=" M 224.1 49.0 C 227.1 46.4 229.8 43.4 233.0 41.0 C 236.2 43.3 238.5 46.7 241.8 48.9 C 245.7 50.6 250.0 52.2 254.3 51.4 C 258.9 50.1 263.0 47.5 267.1 45.0 C 270.5 48.0 272.4 52.2 275.9 55.2 C 277.7 57.0 280.4 56.5 282.7 56.6 C 288.9 56.9 293.4 51.6 299.4 51.1 C 299.6 55.5 299.1 60.4 301.8 64.2 C 303.6 66.3 305.9 68.6 308.9 68.5 C 313.7 68.7 318.5 68.5 323.3 68.6 C 323.5 74.6 324.1 81.8 329.6 85.4 C 332.7 88.1 337.0 87.4 340.9 87.8 C 339.3 91.4 336.7 95.0 337.7 99.1 C 339.0 104.0 343.3 107.0 346.6 110.5 C 347.8 111.5 348.1 113.7 346.7 114.7 C 343.0 118.1 339.2 121.8 337.6 126.7 C 337.4 130.4 336.7 134.7 339.1 137.9 C 340.4 139.7 341.7 141.4 343.0 143.1 C 339.9 147.9 332.7 146.5 329.2 151.0 C 326.7 155.5 326.3 160.7 325.4 165.6 C 321.1 165.8 316.7 165.3 312.3 165.9 C 309.2 167.2 306.6 169.7 304.5 172.3 C 301.9 175.4 303.9 179.5 303.5 183.0 C 301.9 185.5 298.6 184.1 296.2 184.9 C 291.8 186.1 287.3 187.5 283.2 189.5 C 279.5 191.3 277.6 195.0 275.6 198.3 C 276.2 200.8 279.0 204.1 276.3 206.2 C 274.1 208.4 270.9 209.3 268.8 211.6 C 266.2 214.8 265.5 219.1 264.7 223.1 C 265.2 225.6 266.6 227.9 267.8 230.2 C 264.4 233.5 260.4 237.0 259.7 242.0 C 260.4 245.7 261.6 249.4 263.6 252.7 C 266.3 256.8 271.5 257.8 275.7 259.7 C 275.9 266.0 273.1 272.5 275.8 278.5 C 278.7 283.0 284.3 284.7 289.3 284.7 C 290.7 289.9 291.0 296.0 294.9 300.1 C 297.6 302.1 301.1 302.4 304.1 303.6 C 303.5 307.5 300.4 310.7 300.6 314.7 C 302.6 319.1 306.6 324.4 312.1 323.4 C 312.9 323.4 314.7 323.3 315.6 323.2 C 315.7 328.1 315.4 333.0 315.6 337.9 C 315.6 340.1 317.5 341.5 319.1 342.7 C 322.6 345.2 327.1 344.1 331.1 344.5 C 329.9 348.2 327.7 351.4 326.6 355.1 C 325.7 359.3 327.8 363.3 329.3 367.0 C 330.7 370.6 334.6 371.9 337.5 373.9 C 332.4 378.7 324.0 383.4 325.6 391.7 C 327.5 396.0 331.6 398.8 334.9 401.9 C 328.4 405.7 319.2 407.5 316.5 415.5 C 314.9 421.0 321.5 424.2 320.8 429.6 C 315.2 431.5 308.6 432.8 305.2 438.2 C 302.3 441.5 305.1 447.5 300.4 449.5 C 296.8 449.4 293.6 447.2 289.9 447.4 C 286.0 447.5 281.5 446.6 278.2 449.2 C 274.5 451.3 275.0 456.0 274.2 459.6 C 267.2 459.7 262.2 452.6 255.0 453.7 C 249.0 454.9 245.3 460.1 242.0 464.8 C 237.2 461.3 233.5 456.3 228.1 453.7 C 224.8 453.3 221.3 453.2 218.0 453.8 C 214.5 455.9 211.7 459.2 207.9 460.9 C 203.6 457.5 202.1 451.7 197.6 448.4 C 192.7 445.1 186.6 447.6 181.4 445.4 C 180.9 439.9 185.6 435.4 184.2 429.9 C 183.5 425.1 179.8 421.7 176.5 418.5 C 174.3 416.4 171.1 416.0 168.2 415.3 C 168.5 413.5 168.1 411.1 170.0 410.1 C 174.7 406.5 180.4 403.7 183.6 398.5 C 184.3 391.5 177.9 386.4 177.0 379.6 C 178.5 378.7 180.2 378.3 182.0 378.4 C 186.8 378.4 191.6 378.5 196.4 378.3 C 197.4 376.9 198.4 375.5 199.3 374.0 C 199.9 369.2 199.5 364.3 199.7 359.4 C 206.4 358.8 211.0 366.1 217.8 364.5 C 222.4 363.1 226.0 358.4 231.3 359.6 C 231.4 363.4 231.2 367.2 231.7 371.0 C 232.3 374.1 234.9 376.0 237.2 377.8 C 240.4 380.0 243.6 382.4 246.6 384.9 C 246.6 387.2 246.7 389.6 246.4 391.9 C 244.3 396.2 240.4 399.0 236.7 401.8 C 232.9 404.7 229.5 408.1 225.9 411.2 C 224.2 408.4 224.4 405.1 225.2 402.0 C 226.0 398.7 225.4 394.3 221.8 393.0 C 219.6 391.7 217.1 393.2 215.0 394.1 C 210.0 396.6 208.3 402.7 208.4 407.9 C 208.2 413.3 210.3 418.9 214.8 422.3 C 218.3 425.7 223.6 426.0 228.3 425.4 C 230.9 424.5 233.0 422.7 235.5 421.6 C 241.5 420.7 248.8 423.7 253.7 418.7 C 258.7 414.8 255.8 407.9 256.4 402.5 C 259.5 399.7 263.3 397.5 265.2 393.6 C 265.5 390.3 266.3 386.1 263.5 383.6 C 261.1 380.3 257.0 379.0 253.2 378.1 C 253.8 375.0 255.7 372.2 255.7 369.0 C 256.1 364.4 253.4 360.5 251.2 356.8 C 248.4 352.4 242.5 352.4 237.9 352.5 C 237.5 347.4 238.2 340.8 232.7 338.2 C 227.6 336.7 222.1 337.5 217.0 338.2 C 215.4 338.6 213.8 338.0 212.3 337.6 C 211.7 333.2 215.2 328.1 211.6 324.4 C 208.9 320.7 204.4 319.1 200.0 318.6 C 196.7 318.7 193.7 320.2 190.5 320.8 C 190.4 317.5 190.8 314.3 191.3 311.0 C 189.9 306.8 186.9 303.2 183.1 300.8 C 178.1 300.2 173.1 299.7 168.1 299.3 C 170.3 295.1 173.1 290.2 170.6 285.4 C 167.3 278.2 159.3 275.5 152.0 274.1 C 154.3 269.9 157.9 265.2 155.8 260.2 C 154.0 252.8 146.5 249.8 141.0 245.6 C 143.3 242.1 147.0 239.8 149.4 236.4 C 151.5 232.6 151.7 228.2 152.3 224.0 C 152.8 218.1 148.4 213.4 147.2 207.8 C 155.1 206.9 164.1 204.6 168.0 196.8 C 170.5 190.5 165.6 184.9 165.3 178.8 C 170.1 178.2 174.8 177.0 179.2 174.9 C 180.7 174.2 181.5 172.7 182.3 171.3 C 185.1 166.7 186.9 161.5 187.7 156.1 C 190.9 156.4 193.9 157.6 197.0 158.4 C 203.1 157.0 208.6 152.9 211.3 147.3 C 212.4 144.1 212.9 140.8 213.7 137.6 C 218.8 137.3 223.9 137.8 229.0 137.2 C 233.7 136.0 236.8 131.5 238.1 127.1 C 238.9 125.2 239.1 122.8 241.1 121.8 C 243.9 121.4 246.8 121.7 249.6 121.5 C 256.5 120.3 262.6 116.1 265.8 109.9 C 263.6 107.1 260.0 106.5 257.2 104.8 C 255.3 103.7 253.6 102.4 251.7 101.5 C 248.4 100.9 247.6 105.1 246.0 107.2 C 240.6 118.1 228.6 123.7 217.1 125.4 C 211.9 125.8 206.7 124.3 202.2 121.8 C 200.0 120.7 197.9 118.9 195.3 119.4 C 190.5 120.2 186.0 122.6 181.0 122.4 C 174.9 122.3 167.8 122.5 162.9 118.0 C 158.7 114.5 156.6 109.3 154.7 104.3 C 152.6 99.6 153.6 94.3 153.5 89.4 C 162.4 89.2 171.1 93.1 180.0 91.0 C 186.5 90.7 192.6 88.9 198.5 86.3 C 199.6 75.8 194.2 66.3 190.1 57.0 C 189.6 55.9 189.4 54.6 189.1 53.4 C 192.4 52.2 196.0 52.2 199.1 54.0 C 202.6 56.1 206.9 56.0 210.6 54.7 C 215.2 53.1 220.0 51.8 224.1 49.0 Z" />
<path fill="#fefefc" stroke="#fefefc" stroke-width="0.09375" d=" M 232.7 60.2 C 241.4 57.2 250.7 65.3 251.2 74.0 C 250.4 78.1 250.4 82.9 246.8 85.7 C 242.9 88.7 237.5 90.4 232.8 88.6 C 227.7 87.4 223.9 83.3 221.9 78.7 C 221.5 76.0 221.3 73.2 222.0 70.5 C 224.3 66.1 228.0 62.2 232.7 60.2 Z" />
<path fill="#ed7d07" stroke="#ed7d07" stroke-width="0.09375" d=" M 235.1 72.4 C 236.5 72.4 238.0 72.4 239.4 72.5 C 240.0 74.1 241.2 76.2 239.6 77.6 C 238.1 79.2 236.0 78.0 234.2 77.6 C 234.4 75.9 234.7 74.1 235.1 72.4 Z" />
<path fill="#fefefc" stroke="#fefefc" stroke-width="0.09375" d=" M 303.3 90.1 C 304.6 90.5 306.3 90.4 307.0 91.8 C 309.4 95.2 311.5 98.9 312.4 103.0 C 312.8 110.3 312.4 117.7 312.5 125.0 C 312.7 130.4 310.0 135.2 307.8 139.9 C 304.3 147.2 298.9 154.0 291.3 157.3 C 288.3 158.8 284.9 159.3 282.0 161.1 C 279.9 165.6 278.8 170.7 275.9 174.9 C 273.5 179.0 267.8 178.0 263.7 178.7 C 262.2 183.5 261.7 189.1 257.2 192.2 C 254.3 195.4 249.4 195.8 246.7 199.0 C 246.0 204.0 247.2 209.1 246.1 214.0 C 243.5 217.3 239.8 219.8 238.0 223.8 C 241.1 226.5 245.8 229.2 245.6 233.9 C 246.0 239.2 239.6 242.4 240.4 247.9 C 240.1 253.1 247.3 254.6 247.6 259.7 C 248.2 263.3 245.4 266.1 244.2 269.3 C 247.5 272.1 253.1 274.3 252.7 279.4 C 253.0 283.4 250.0 286.4 249.1 290.1 C 252.6 292.4 256.8 293.4 260.3 295.7 C 263.6 299.0 261.8 304.2 262.8 308.3 C 265.2 311.5 268.4 314.0 270.9 317.1 C 274.1 320.9 276.3 325.6 280.0 329.0 C 281.7 330.7 284.0 331.7 285.8 333.3 C 287.3 335.5 287.4 338.6 289.5 340.5 C 291.8 342.8 294.3 345.3 295.5 348.5 C 295.7 350.6 294.8 352.6 294.4 354.7 C 296.9 356.8 299.5 358.9 301.4 361.7 C 302.8 364.2 302.5 367.2 303.2 370.0 C 303.8 373.4 305.8 376.4 305.6 380.0 C 306.2 385.3 299.0 387.6 299.4 393.0 C 299.0 397.9 302.6 402.5 301.3 407.4 C 300.3 409.9 298.8 412.1 297.5 414.4 C 295.6 417.8 296.1 421.9 294.1 425.2 C 291.8 429.1 288.2 432.1 284.1 434.0 C 284.2 429.5 288.4 427.0 290.2 423.3 C 291.0 420.1 291.1 416.8 291.9 413.5 C 293.2 410.1 295.8 407.3 297.1 403.9 C 297.9 398.8 297.0 393.5 297.6 388.2 C 298.2 385.3 299.4 382.4 298.6 379.5 C 297.8 376.0 297.4 372.4 297.3 368.9 C 297.2 365.7 295.1 363.2 293.3 360.7 C 290.6 357.3 291.7 352.4 289.1 349.0 C 287.1 345.6 282.6 344.2 282.0 340.0 C 281.1 334.8 277.2 331.0 273.5 327.5 C 269.2 323.2 265.0 318.7 260.1 315.0 C 256.5 312.7 256.3 308.0 254.4 304.5 C 252.6 299.6 247.8 296.7 245.8 291.9 C 245.0 287.0 246.3 281.2 243.0 277.0 C 241.3 274.6 237.5 272.8 238.6 269.3 C 239.8 265.7 241.1 262.0 240.6 258.1 C 241.1 253.3 234.2 251.8 234.6 247.1 C 236.1 242.5 239.3 238.2 238.6 233.1 C 239.0 228.8 235.9 225.4 234.5 221.6 C 233.7 218.0 237.1 215.6 238.6 212.7 C 242.5 207.7 238.9 201.0 241.8 195.7 C 245.7 192.2 251.3 190.9 255.0 187.0 C 259.4 182.9 261.0 176.5 266.1 173.1 C 270.4 170.1 274.1 166.3 276.8 161.9 C 278.1 160.2 279.0 157.8 281.2 157.3 C 287.9 155.5 293.5 151.1 298.8 146.8 C 302.4 142.2 306.6 137.2 306.7 131.0 C 307.0 127.5 308.7 124.4 309.4 121.1 C 310.2 115.2 307.4 109.7 306.7 104.0 C 306.3 99.2 302.9 95.1 303.3 90.1 Z" />
<path fill="#fefefc" stroke="#fefefc" stroke-width="0.09375" d=" M 285.5 97.4 C 286.8 97.4 288.0 97.5 289.3 97.5 C 290.8 103.6 292.2 109.8 291.1 116.0 C 290.2 119.6 290.8 123.3 290.1 126.8 C 288.3 131.3 285.6 136.4 280.6 137.8 C 277.5 139.0 274.1 138.0 271.0 138.9 C 269.2 140.4 267.8 142.4 266.0 144.0 C 264.1 145.5 261.8 146.3 259.9 147.7 C 258.6 150.1 258.3 153.2 255.8 154.7 C 252.3 156.9 248.4 158.0 244.9 160.0 C 242.6 162.6 244.0 167.0 241.3 169.4 C 237.5 172.7 232.1 173.3 227.6 175.7 C 225.2 179.1 225.2 183.5 223.0 187.1 C 220.0 191.3 213.8 190.6 210.4 194.4 C 210.5 198.4 212.9 202.6 210.6 206.4 C 209.5 211.0 203.5 213.0 204.4 218.2 C 208.9 220.1 213.6 223.6 213.6 229.0 C 214.4 234.1 208.4 237.4 209.6 242.4 C 212.6 246.5 217.0 249.9 218.4 255.0 C 219.2 259.4 215.3 262.8 215.3 267.0 C 214.8 271.7 220.0 273.9 221.4 277.9 C 221.9 282.7 221.0 287.6 221.7 292.4 C 224.1 295.6 227.8 297.5 230.3 300.6 C 230.4 304.3 230.9 308.0 232.6 311.3 C 231.9 314.1 228.4 311.7 226.4 311.5 C 225.1 307.3 225.1 302.4 222.3 298.7 C 220.6 296.4 218.3 294.6 216.7 292.3 C 216.0 288.0 217.1 283.4 215.6 279.2 C 214.4 275.1 211.4 271.8 209.6 267.9 C 209.1 264.3 212.4 261.5 212.5 257.9 C 212.6 255.9 212.7 253.8 212.2 251.8 C 210.1 248.9 206.9 247.1 204.7 244.2 C 203.5 241.0 206.3 238.1 206.5 234.9 C 207.5 228.3 203.7 222.2 199.4 217.5 C 198.4 216.6 198.0 215.0 198.7 213.8 C 201.3 209.1 204.8 204.7 206.3 199.4 C 206.8 195.9 206.5 192.4 206.5 188.9 C 209.9 187.7 213.5 186.7 216.1 184.1 C 219.6 181.1 221.4 176.8 224.5 173.5 C 227.6 171.5 231.6 170.9 234.5 168.5 C 237.3 166.2 238.8 162.7 240.6 159.6 C 241.9 156.8 245.1 156.1 247.5 154.5 C 250.6 153.0 252.3 150.0 254.5 147.5 C 256.6 145.2 259.5 143.9 261.5 141.6 C 263.3 139.4 264.9 136.8 267.7 135.8 C 271.5 135.2 275.4 135.4 279.1 134.1 C 285.2 126.2 286.7 115.6 284.9 106.0 C 284.2 103.1 284.7 100.2 285.5 97.4 Z" />
<path fill="#ed7d07" stroke="#ed7d07" stroke-width="0.09375" d=" M 326.1 203.0 C 327.7 201.8 329.5 200.7 331.3 199.8 C 332.4 208.7 327.0 216.6 322.5 223.8 C 325.5 227.4 329.7 229.8 333.6 232.4 C 333.6 233.5 333.6 234.6 333.6 235.6 C 330.8 238.0 328.0 240.2 325.2 242.5 C 325.3 243.8 325.4 245.1 325.6 246.3 C 328.2 249.2 331.5 251.2 334.5 253.5 C 334.5 254.5 334.5 255.5 334.5 256.5 C 331.2 259.0 327.8 261.5 325.1 264.9 C 326.5 267.9 327.9 270.9 328.4 274.1 C 329.0 278.1 330.7 281.9 330.4 286.0 C 325.7 284.2 322.2 280.3 317.7 278.1 C 312.4 275.4 306.5 274.6 300.8 273.1 C 294.6 271.6 288.3 273.2 282.1 273.7 C 281.1 269.5 281.2 265.0 281.7 260.7 C 283.6 258.9 286.6 259.8 289.0 259.2 C 294.0 258.3 299.1 258.8 304.1 258.3 C 306.3 258.1 307.8 256.5 309.2 254.9 C 304.2 252.4 298.4 254.1 293.0 253.1 C 289.0 252.4 285.0 252.5 281.0 252.5 C 277.7 252.5 274.7 251.0 271.6 250.1 C 271.6 249.0 271.6 247.9 271.7 246.9 C 276.0 245.4 280.2 243.2 284.9 243.5 C 293.0 244.1 300.5 240.7 308.2 239.0 C 303.3 237.2 297.9 237.9 293.0 235.8 C 288.4 233.7 283.0 235.5 278.5 233.0 C 280.7 231.2 283.5 231.6 286.1 230.9 C 290.8 230.3 295.1 227.3 300.0 227.6 C 302.8 227.4 306.6 228.3 308.3 225.3 C 309.2 224.3 309.1 223.4 308.0 222.6 C 303.4 221.8 299.0 223.6 294.5 223.5 C 286.7 223.6 279.2 221.1 271.4 221.5 C 271.4 219.5 271.5 217.5 271.5 215.6 C 275.6 214.3 279.8 213.4 284.0 212.8 C 291.4 211.9 299.1 213.5 306.4 211.3 C 313.2 209.3 320.4 207.5 326.1 203.0 Z" />
<path fill="#fefefc" stroke="#fefefc" stroke-width="0.09375" d=" M 233.6 312.6 C 236.8 312.5 240.2 312.0 243.0 314.0 C 246.6 316.1 246.6 320.8 247.6 324.5 C 250.1 325.1 252.6 325.5 255.1 325.7 C 256.4 328.6 257.4 331.5 258.7 334.4 C 259.7 337.4 263.2 337.9 265.1 340.0 C 266.9 342.7 267.6 346.1 269.2 349.0 C 271.4 352.2 275.0 354.4 277.3 357.6 C 277.6 359.7 277.5 361.9 277.6 364.0 C 278.0 369.0 284.0 371.8 283.6 376.9 C 283.8 380.7 283.4 384.4 282.6 388.0 C 281.5 393.2 286.1 397.5 285.6 402.6 C 284.6 406.4 280.8 408.5 278.5 411.5 C 276.8 414.6 278.3 418.5 276.5 421.5 C 272.3 431.2 260.8 434.9 251.1 434.6 C 251.3 434.2 251.6 433.3 251.8 432.9 C 258.7 431.6 265.0 427.9 269.8 422.8 C 271.7 420.9 272.0 418.1 272.8 415.6 C 274.3 410.1 278.9 406.2 281.4 401.1 C 282.3 397.6 279.3 394.8 278.6 391.6 C 278.0 387.1 278.6 382.5 279.4 378.0 C 280.2 374.3 276.9 371.7 275.1 369.0 C 273.2 366.6 273.1 363.5 272.1 360.8 C 270.9 358.8 268.5 357.8 267.1 355.9 C 265.8 353.4 265.5 350.4 264.0 347.9 C 262.1 345.0 258.7 343.9 256.0 341.9 C 254.2 340.8 253.9 338.6 253.0 336.9 C 251.1 332.1 246.4 329.5 243.4 325.6 C 241.6 323.5 240.8 320.8 239.4 318.5 C 237.8 316.2 235.6 314.5 233.6 312.6 Z" />
</svg>
