<?xml version="1.0" encoding="UTF-8" ?>
<!DOCTYPE svg PUBLIC "-//W3C//DTD SVG 1.1//EN" "http://www.w3.org/Graphics/SVG/1.1/DTD/svg11.dtd">
<svg width="700pt" height="467pt" viewBox="0 0 700 467" version="1.1" xmlns="http://www.w3.org/2000/svg">
<g id="#ffffffff">
<path fill="#ffffff" opacity="1.00" d=" M 0.00 0.00 L 700.00 0.00 L 700.00 467.00 L 0.00 467.00 L 0.00 0.00 M 327.41 45.31 C 272.52 47.98 217.67 61.23 168.99 87.10 C 146.35 99.41 124.99 114.46 107.17 133.17 C 87.34 153.95 71.65 179.59 66.18 208.07 C 60.87 233.04 64.24 259.40 74.04 282.85 C 84.55 307.15 101.41 328.38 121.45 345.53 C 146.92 367.57 176.99 383.82 208.41 395.67 C 232.29 404.41 256.97 411.09 282.14 414.90 C 330.66 422.63 380.42 421.98 428.76 413.29 C 469.14 405.67 508.71 392.19 544.10 371.09 C 573.78 353.22 600.92 329.72 618.54 299.55 C 629.05 282.08 635.32 262.16 637.06 241.87 C 639.10 214.33 631.57 186.35 616.95 162.99 C 597.75 131.49 568.34 107.49 536.51 89.55 C 491.27 64.49 440.30 50.71 388.93 46.34 C 381.66 45.36 374.30 45.61 367.02 44.74 C 353.82 44.76 340.56 44.07 327.41 45.31 Z" />
</g>
<g id="#1f1a17ff">
<path fill="#1f1a17" opacity="1.00" d=" M 327.41 45.31 C 340.56 44.07 353.82 44.76 367.02 44.74 C 374.30 45.61 381.66 45.36 388.93 46.34 C 440.30 50.71 491.27 64.49 536.51 89.55 C 568.34 107.49 597.75 131.49 616.95 162.99 C 631.57 186.35 639.10 214.33 637.06 241.87 C 635.32 262.16 629.05 282.08 618.54 299.55 C 600.92 329.72 573.78 353.22 544.10 371.09 C 508.71 392.19 469.14 405.67 428.76 413.29 C 380.42 421.98 330.66 422.63 282.14 414.90 C 256.97 411.09 232.29 404.41 208.41 395.67 C 176.99 383.82 146.92 367.57 121.45 345.53 C 101.41 328.38 84.55 307.15 74.04 282.85 C 64.24 259.40 60.87 233.04 66.18 208.07 C 71.65 179.59 87.34 153.95 107.17 133.17 C 124.99 114.46 146.35 99.41 168.99 87.10 C 217.67 61.23 272.52 47.98 327.41 45.31 M 306.67 56.23 C 251.02 61.94 195.54 78.40 148.88 109.90 C 129.24 123.50 111.13 139.74 97.54 159.52 C 80.90 183.01 71.66 212.04 73.77 240.90 C 81.18 238.47 87.89 234.18 95.59 232.58 C 104.67 230.24 114.19 230.74 123.26 232.82 C 123.36 221.97 125.89 211.22 130.31 201.33 C 140.51 178.69 159.12 161.05 179.51 147.46 C 205.05 130.79 233.86 119.63 263.42 112.46 C 292.37 105.40 322.21 102.08 352.00 102.37 C 361.97 102.43 371.97 102.28 381.90 103.37 C 384.31 103.35 387.37 104.32 389.12 102.09 C 393.19 97.78 396.53 92.83 400.34 88.28 C 401.65 86.28 404.06 84.32 403.30 81.67 C 402.74 78.03 401.53 73.98 403.58 70.58 C 406.76 64.41 415.76 62.63 421.19 66.85 C 426.98 70.87 427.27 80.44 421.98 84.99 C 419.22 87.48 415.37 87.87 411.91 88.70 C 413.74 93.34 416.16 97.77 419.37 101.61 C 422.10 104.87 424.88 108.78 429.39 109.57 C 449.36 114.03 469.09 119.92 487.87 128.14 C 490.20 129.11 492.75 129.99 495.31 129.36 C 501.81 127.95 508.29 126.19 514.36 123.41 C 524.95 118.56 535.69 113.81 545.03 106.74 C 542.75 105.05 540.41 103.46 537.96 102.04 C 488.32 72.78 430.98 58.55 373.81 54.68 C 351.43 53.93 328.95 53.75 306.67 56.23 M 405.84 75.07 C 405.95 77.71 406.94 80.22 407.21 82.84 C 406.48 85.01 404.87 86.73 403.52 88.54 C 371.07 130.19 339.38 172.43 307.05 214.18 C 292.59 208.91 277.30 206.47 261.99 205.59 C 250.39 205.24 238.66 205.31 227.30 207.92 C 235.68 219.83 247.54 228.97 260.46 235.48 C 263.72 237.19 267.30 238.29 270.42 240.28 C 271.20 241.61 271.47 243.17 271.93 244.63 C 294.91 251.22 319.96 253.21 343.04 245.97 C 347.98 252.42 352.09 259.58 354.27 267.45 C 340.78 270.95 326.93 273.06 313.00 273.39 C 294.06 273.43 275.28 270.07 257.04 265.13 C 260.69 257.98 264.90 251.12 269.62 244.63 C 263.44 241.80 257.08 239.31 251.30 235.68 C 240.08 228.89 230.08 220.09 222.04 209.71 C 211.21 212.71 200.92 217.55 191.78 224.12 C 202.46 235.32 214.57 245.16 227.83 253.15 C 236.55 258.53 246.06 262.56 255.98 265.13 C 255.72 267.80 255.17 270.43 254.90 273.11 C 273.57 277.71 292.68 281.26 311.99 280.81 C 327.22 281.17 342.26 278.45 357.06 275.15 C 358.18 278.60 359.23 282.07 360.28 285.54 C 361.44 285.59 362.61 285.63 363.78 285.69 C 362.39 276.75 359.08 268.32 356.29 259.77 C 359.88 260.22 363.43 260.94 366.90 261.97 C 382.49 266.45 398.85 268.53 415.04 267.17 C 427.95 265.76 440.21 260.96 453.12 259.55 C 458.38 259.08 463.68 258.98 468.96 259.30 C 475.08 259.62 480.88 261.77 486.77 263.28 C 493.61 265.07 500.38 267.10 507.26 268.69 C 514.43 270.36 521.74 268.67 528.97 268.52 C 533.52 268.41 538.02 267.65 542.41 266.46 C 549.27 264.59 556.31 263.51 563.30 262.23 C 565.87 255.51 567.36 248.41 567.63 241.23 C 563.58 241.58 559.56 242.35 555.73 243.73 C 544.24 247.68 532.27 251.03 520.00 250.59 C 510.52 250.62 501.54 247.23 492.63 244.40 C 483.40 241.42 473.74 239.28 463.99 239.69 C 454.91 240.07 445.98 241.97 437.20 244.23 C 429.53 246.22 421.67 247.24 413.85 248.43 C 401.77 250.48 389.40 248.51 377.70 245.35 C 370.66 243.58 364.24 239.70 356.96 238.91 C 352.44 238.35 347.95 239.80 343.43 239.35 C 340.84 238.25 339.22 235.68 337.21 233.80 C 329.93 225.92 320.50 220.55 311.04 215.72 C 342.06 174.58 373.61 133.83 404.63 92.69 C 406.54 90.29 408.15 87.55 410.61 85.65 C 413.93 84.37 418.48 85.07 420.69 81.73 C 423.41 78.18 422.78 72.50 418.91 70.03 C 414.46 66.21 406.80 69.51 405.84 75.07 M 408.49 93.67 C 402.46 111.04 395.75 128.61 384.05 143.05 C 372.75 155.89 359.06 166.29 346.67 178.01 C 352.54 183.09 359.50 186.73 366.88 189.07 C 379.81 193.22 393.44 195.03 407.00 194.76 C 424.54 195.13 442.17 193.01 458.98 187.95 C 483.08 180.00 505.95 167.01 523.21 148.19 C 533.22 137.33 541.94 124.86 546.89 110.86 C 541.58 113.34 536.96 116.98 531.89 119.86 C 514.31 129.97 494.25 135.68 473.99 136.42 C 458.20 136.99 443.17 129.68 431.37 119.64 C 422.34 112.31 415.42 102.90 408.49 93.67 M 544.44 131.39 C 540.91 139.26 534.88 145.50 529.89 152.41 C 537.35 158.43 544.94 164.41 551.24 171.70 C 563.95 185.62 574.51 202.30 577.99 221.06 C 580.71 234.30 579.21 248.16 574.96 260.91 C 568.91 278.11 557.81 293.19 544.44 305.42 C 518.36 329.13 485.59 344.26 451.99 353.97 C 409.60 366.23 364.92 369.82 321.00 366.47 C 311.63 366.36 302.40 364.15 293.01 364.64 C 269.61 365.66 247.40 355.03 223.97 356.50 C 216.16 356.65 208.91 359.85 201.33 361.27 C 190.15 362.86 178.82 362.98 167.64 364.58 C 189.45 377.67 213.38 386.94 237.64 394.38 C 311.92 416.26 392.44 415.62 466.61 393.62 C 501.60 382.84 535.45 367.08 564.26 344.25 C 586.70 326.39 606.29 303.97 617.13 277.14 C 628.85 249.00 629.05 216.10 616.92 188.05 C 603.58 156.32 578.95 130.52 550.89 111.19 C 549.44 118.13 547.85 125.12 544.44 131.39 M 181.71 236.58 C 180.28 243.24 181.61 250.27 184.81 256.23 C 187.34 261.03 190.44 266.40 196.00 268.04 C 208.35 272.06 221.54 266.08 233.86 270.23 C 240.63 272.59 243.52 279.81 248.17 284.70 C 250.09 280.82 251.81 276.85 253.58 272.90 C 227.72 264.40 205.52 247.53 186.75 228.18 C 184.79 230.78 182.61 233.38 181.71 236.58 M 99.61 238.93 C 91.05 241.32 82.67 244.72 75.29 249.73 C 76.63 256.28 78.43 262.72 80.78 268.98 C 91.73 264.75 103.05 260.13 115.01 260.64 C 129.55 261.23 143.06 267.24 157.24 269.80 C 163.33 271.07 169.43 269.22 175.54 269.18 C 179.01 276.16 183.72 282.44 188.82 288.30 C 190.09 289.98 192.20 290.40 194.13 290.85 C 187.57 279.44 177.83 269.57 174.48 256.49 C 173.19 252.06 174.31 247.49 174.82 243.04 C 165.30 245.04 155.48 246.63 145.77 245.04 C 139.33 243.87 133.12 241.71 126.74 240.26 C 117.89 238.19 108.61 237.51 99.61 238.93 M 83.06 276.39 C 84.82 280.67 86.91 284.81 89.10 288.89 C 94.75 286.62 100.46 284.38 106.51 283.47 C 117.40 281.31 128.46 282.88 139.37 283.91 C 137.04 279.79 134.89 275.58 132.44 271.54 C 130.64 268.05 126.30 267.70 122.89 266.98 C 108.92 264.79 95.52 270.89 83.06 276.39 M 187.59 295.29 C 175.49 296.26 163.22 296.01 151.28 293.66 C 141.48 292.17 132.02 288.17 121.96 288.68 C 112.09 289.30 101.99 290.36 92.94 294.67 C 96.27 300.32 100.04 305.71 104.07 310.89 C 107.97 309.65 111.84 308.29 115.88 307.56 C 127.23 305.40 138.93 307.13 150.01 309.97 C 159.40 312.66 169.30 313.84 179.05 312.81 C 198.81 311.70 218.13 305.48 238.05 306.73 C 245.38 307.09 252.14 310.25 259.29 311.57 C 272.32 314.39 285.75 315.20 299.03 314.10 C 313.84 312.53 327.94 306.47 342.95 306.29 C 348.77 306.20 354.70 306.02 360.37 307.60 C 369.84 310.17 379.34 312.66 388.83 315.17 C 398.34 317.81 408.20 315.57 417.86 315.29 C 431.38 313.21 444.50 308.99 458.00 306.75 C 474.66 304.92 491.06 309.23 507.15 312.95 C 510.08 313.61 513.01 314.42 516.03 314.56 C 519.12 314.83 521.55 312.55 523.93 310.92 C 530.50 305.81 537.00 300.49 542.42 294.13 C 531.86 294.70 521.16 295.40 510.70 293.41 C 498.76 291.55 487.14 287.72 475.05 286.89 C 463.89 287.82 452.44 287.32 441.62 290.63 C 421.87 296.01 400.88 297.44 380.77 293.27 C 373.28 291.69 366.28 288.21 358.62 287.38 C 349.99 285.80 341.22 287.14 332.70 288.68 C 316.89 291.70 301.24 296.47 284.99 296.33 C 273.02 295.89 261.15 293.30 249.99 288.93 C 242.41 286.01 234.15 285.91 226.15 286.37 C 212.90 287.42 200.54 292.79 187.59 295.29 M 108.54 315.86 C 113.11 321.39 117.40 327.50 123.40 331.56 C 131.26 331.54 139.11 329.78 147.00 330.95 C 161.78 331.61 177.20 334.64 191.50 329.29 C 185.43 325.36 179.74 319.45 172.04 319.37 C 164.06 318.79 156.11 317.71 148.36 315.69 C 135.38 312.72 121.21 310.42 108.54 315.86 M 200.91 334.96 C 192.16 337.44 183.15 339.47 174.00 339.33 C 159.48 338.73 144.90 336.04 130.38 338.08 C 134.58 342.78 139.76 346.43 144.65 350.37 C 147.95 352.80 151.19 355.73 155.36 356.46 C 165.17 358.39 175.19 357.03 185.01 355.98 C 201.01 354.11 216.79 349.97 232.99 350.16 C 240.80 350.00 248.73 350.54 256.18 353.09 C 265.49 356.59 275.53 357.34 285.38 357.78 C 298.56 358.91 311.83 357.66 324.99 359.12 C 331.97 359.78 339.00 359.59 346.00 360.07 C 382.73 360.07 419.64 355.54 454.85 344.81 C 462.03 342.60 469.41 340.69 476.01 336.99 C 465.98 331.91 454.41 331.64 443.47 332.85 C 434.47 334.77 425.39 336.25 416.43 338.31 C 402.02 341.45 386.89 341.08 372.62 337.38 C 360.04 333.99 347.07 331.09 333.96 331.81 C 322.43 332.90 311.08 335.36 299.76 337.74 C 291.74 339.45 283.46 340.24 275.29 339.34 C 259.53 336.72 244.11 331.40 227.99 331.46 C 218.85 331.13 209.70 332.46 200.91 334.96 Z" />
<path fill="#1f1a17" opacity="1.00" d=" M 314.20 65.22 C 318.07 63.26 322.89 63.36 326.76 65.28 C 329.20 66.49 329.68 69.45 330.66 71.72 C 327.06 71.39 324.00 69.49 320.71 68.23 C 316.79 67.17 313.97 71.55 314.15 75.02 C 313.95 79.30 314.18 85.56 319.30 86.84 C 322.02 88.11 324.16 85.54 326.23 84.20 C 327.88 82.81 330.04 82.45 332.07 81.97 C 331.19 90.75 319.33 94.37 312.97 89.00 C 308.96 85.59 308.11 79.91 308.51 74.94 C 308.67 71.04 310.73 67.13 314.20 65.22 Z" />
<path fill="#1f1a17" opacity="1.00" d=" M 338.80 63.80 C 340.74 63.75 342.69 63.71 344.65 63.68 C 344.66 67.06 344.67 70.44 344.72 73.82 C 348.02 73.78 351.34 73.71 354.65 73.64 C 354.64 70.29 354.58 66.95 354.55 63.60 C 356.44 63.59 358.34 63.61 360.23 63.64 C 360.33 72.35 360.47 81.06 360.40 89.78 C 358.55 89.76 356.70 89.73 354.85 89.69 C 354.71 85.91 354.67 82.12 354.61 78.33 C 351.32 78.33 348.02 78.32 344.73 78.32 C 344.74 82.29 344.79 86.26 344.75 90.23 C 342.94 90.26 341.14 90.29 339.35 90.32 C 339.32 81.47 338.34 72.65 338.80 63.80 Z" />
<path fill="#1f1a17" opacity="1.00" d=" M 366.72 63.63 C 373.87 63.60 380.97 64.54 388.12 64.54 C 388.20 65.86 388.29 67.18 388.38 68.49 C 385.66 68.51 382.95 68.48 380.24 68.45 C 379.50 75.75 379.50 83.11 379.31 90.44 C 377.38 90.46 375.46 90.45 373.54 90.43 C 373.51 82.97 374.38 75.55 374.49 68.10 C 372.02 67.89 369.55 67.71 367.08 67.55 C 366.95 66.24 366.83 64.93 366.72 63.63 Z" />
<path fill="#1f1a17" opacity="1.00" d=" M 286.33 68.26 C 288.52 67.89 290.71 67.54 292.91 67.22 C 297.11 75.72 302.19 83.77 305.81 92.54 C 304.34 92.47 302.87 92.51 301.43 92.23 C 299.64 90.94 298.39 89.05 296.68 87.68 C 293.85 87.61 290.98 88.19 288.37 89.25 C 287.02 91.05 286.51 93.30 285.69 95.36 C 284.21 95.42 282.74 95.48 281.28 95.53 C 282.85 86.42 284.40 77.30 286.33 68.26 M 290.55 74.26 C 289.73 77.45 289.06 80.68 288.44 83.91 C 290.69 83.75 292.94 83.56 295.19 83.36 C 293.88 80.21 292.36 77.15 290.55 74.26 Z" />
<path fill="#1f1a17" opacity="1.00" d=" M 267.59 71.72 C 269.48 71.28 271.38 70.84 273.28 70.43 C 273.16 78.57 273.73 86.77 272.75 94.87 C 272.83 98.25 268.85 98.09 266.53 99.06 C 263.52 93.24 260.85 87.25 257.57 81.58 C 257.17 88.17 256.65 94.75 256.60 101.36 C 254.63 101.77 252.66 102.21 250.70 102.64 C 246.23 94.81 242.51 86.58 238.28 78.61 C 240.26 78.05 242.24 77.51 244.23 77.00 C 247.11 83.02 249.55 89.25 252.50 95.24 C 252.83 88.35 252.43 81.43 253.41 74.58 C 255.27 74.42 257.14 74.26 259.02 74.10 C 261.95 79.78 264.64 85.59 267.59 91.26 C 267.79 84.75 267.68 78.23 267.59 71.72 Z" />
<path fill="#1f1a17" opacity="1.00" d=" M 212.29 87.80 C 218.03 85.64 224.01 81.99 230.35 83.65 C 234.58 85.54 232.92 90.63 233.56 94.21 C 235.62 98.04 238.31 101.52 240.26 105.43 C 238.46 106.13 236.67 106.82 234.87 107.52 C 233.22 104.52 231.64 101.49 230.02 98.48 C 227.74 99.02 225.46 99.56 223.18 100.12 C 224.18 103.85 225.32 107.55 226.08 111.34 C 224.40 111.57 222.72 111.77 221.04 111.96 C 218.07 103.93 215.15 95.88 212.29 87.80 M 219.25 89.41 C 219.95 91.73 220.66 94.04 221.41 96.35 C 223.77 95.47 226.44 94.89 228.21 92.95 C 228.28 91.32 228.06 89.70 227.90 88.09 C 224.98 88.22 222.08 88.67 219.25 89.41 Z" />
<path fill="#1f1a17" opacity="1.00" d=" M 188.17 97.78 C 193.29 95.11 198.55 92.69 203.98 90.68 C 204.63 91.98 205.28 93.28 205.92 94.59 C 202.55 96.21 199.17 97.77 195.80 99.38 C 196.43 101.12 197.10 102.84 197.82 104.54 C 201.31 103.28 204.78 101.95 208.34 100.90 C 208.50 102.18 208.66 103.46 208.82 104.75 C 205.84 106.04 202.88 107.36 199.91 108.66 C 200.54 110.72 201.23 112.77 201.92 114.82 C 205.74 113.48 209.49 111.97 213.26 110.49 C 213.87 111.78 214.44 113.10 214.96 114.44 C 209.72 116.95 204.45 119.37 199.07 121.55 C 195.27 113.70 191.88 105.67 188.17 97.78 Z" />
<path fill="#1f1a17" opacity="1.00" d=" M 169.37 107.34 C 171.84 105.74 175.04 104.73 177.88 105.93 C 179.45 106.97 180.42 108.65 181.58 110.09 C 178.26 110.61 174.88 110.12 171.57 110.60 C 169.05 111.16 169.33 114.34 168.64 116.26 C 173.46 117.11 178.21 115.76 183.00 115.40 C 188.04 114.87 191.26 121.55 188.73 125.59 C 185.96 130.04 180.67 133.57 175.25 132.70 C 172.93 132.33 171.40 130.35 169.77 128.84 C 170.95 127.97 172.12 127.10 173.29 126.23 C 176.13 127.13 179.24 128.61 182.19 127.28 C 184.07 125.65 184.08 122.93 184.70 120.70 C 179.71 120.37 174.91 121.93 169.98 122.28 C 166.19 122.42 163.70 118.50 164.14 115.00 C 163.80 111.49 166.67 108.99 169.37 107.34 Z" />
<path fill="#1f1a17" opacity="1.00" d=" M 141.02 129.23 C 142.44 124.92 146.51 121.34 151.13 121.13 C 153.56 120.91 155.60 122.44 157.63 123.51 C 156.81 124.48 155.98 125.44 155.16 126.41 C 152.70 126.09 149.91 124.95 147.62 126.46 C 145.57 127.70 145.70 130.40 145.20 132.46 C 150.60 132.93 155.64 130.54 160.95 130.29 C 166.01 130.20 168.24 137.00 165.87 140.85 C 163.59 144.52 159.94 147.56 155.68 148.50 C 152.36 149.09 149.77 146.41 147.23 144.75 C 148.52 143.92 149.76 142.98 151.19 142.40 C 153.89 142.18 156.78 143.67 159.33 142.41 C 160.59 141.04 161.36 139.33 162.24 137.72 C 161.61 137.11 160.35 135.89 159.72 135.28 C 155.47 136.28 151.37 138.01 146.99 138.36 C 142.48 138.56 139.67 133.17 141.02 129.23 Z" />
<path fill="#1f1a17" opacity="1.00" d=" M 423.41 128.84 C 428.46 131.90 433.30 135.30 438.04 138.84 C 434.57 143.54 431.07 148.22 427.73 153.01 C 432.44 156.33 437.27 159.49 441.93 162.87 C 438.86 167.85 435.47 172.62 432.01 177.33 C 427.15 174.18 422.45 170.81 417.84 167.31 C 414.23 171.93 410.87 176.74 407.58 181.59 C 402.92 178.38 398.36 175.02 393.78 171.69 C 396.88 166.85 400.20 162.16 403.26 157.30 C 398.56 154.05 393.77 150.91 389.32 147.32 C 392.56 142.57 395.76 137.80 398.92 132.99 C 403.96 135.91 408.36 140.00 413.85 142.08 C 417.47 138.00 420.08 133.15 423.41 128.84 Z" />
<path fill="#1f1a17" opacity="1.00" d=" M 571.72 137.74 C 576.68 141.54 581.33 145.86 585.21 150.76 C 586.56 152.82 583.80 154.40 582.19 155.06 C 575.45 156.62 568.45 156.54 561.64 157.78 C 564.46 160.95 567.40 164.02 570.15 167.25 C 569.56 167.89 568.39 169.16 567.80 169.79 C 562.99 165.30 558.26 160.70 553.89 155.78 C 555.83 154.42 557.71 152.68 560.18 152.37 C 566.43 151.35 572.81 151.48 579.06 150.40 C 576.04 147.18 572.97 144.02 569.75 141.00 C 570.40 139.92 571.06 138.83 571.72 137.74 Z" />
<path fill="#1f1a17" opacity="1.00" d=" M 123.47 143.38 C 125.68 143.37 127.73 144.36 129.76 145.12 C 136.35 147.88 143.08 150.30 149.60 153.24 C 148.34 154.43 147.14 155.71 145.70 156.68 C 143.67 156.66 141.72 155.98 139.77 155.48 C 137.79 157.64 135.57 159.65 134.13 162.24 C 134.14 164.51 135.01 166.65 135.64 168.81 C 134.70 169.84 133.76 170.88 132.82 171.92 C 127.91 164.06 123.57 155.86 119.12 147.74 C 120.51 146.24 121.82 144.62 123.47 143.38 M 125.80 149.72 C 127.29 152.83 129.04 155.80 130.93 158.68 C 132.40 156.91 133.85 155.14 135.27 153.33 C 132.17 151.99 129.01 150.77 125.80 149.72 Z" />
<path fill="#1f1a17" opacity="1.00" d=" M 105.47 167.46 C 103.21 165.78 105.41 163.06 105.77 160.99 C 113.18 166.47 119.82 172.90 126.77 178.93 C 125.84 180.87 124.89 182.79 123.95 184.73 C 117.54 183.28 111.23 181.39 104.75 180.23 C 108.79 184.56 113.60 188.08 117.71 192.34 C 119.68 194.12 118.11 197.00 116.73 198.63 C 107.67 197.86 98.93 194.89 90.00 193.20 C 90.84 191.44 91.69 189.68 92.53 187.93 C 98.66 189.18 104.55 191.37 110.72 192.43 C 106.52 187.78 101.67 183.79 96.91 179.73 C 97.87 177.89 98.85 176.05 99.83 174.22 C 105.95 175.60 112.03 177.19 118.24 178.10 C 114.32 174.15 109.54 171.22 105.47 167.46 Z" />
<path fill="#1f1a17" opacity="1.00" d=" M 584.96 162.94 C 587.50 161.62 590.79 160.68 593.35 162.50 C 598.14 165.61 601.84 171.55 600.49 177.40 C 599.53 180.19 597.01 182.05 594.70 183.69 C 590.48 186.44 586.10 188.97 581.56 191.15 C 580.68 189.70 579.81 188.25 578.96 186.79 C 583.78 183.24 589.17 180.52 593.93 176.88 C 597.31 174.52 595.47 169.27 592.40 167.45 C 590.77 165.97 588.68 167.33 587.01 167.96 C 582.08 170.46 577.70 173.88 572.92 176.62 C 571.90 175.12 570.90 173.61 569.90 172.10 C 574.81 168.88 579.73 165.62 584.96 162.94 Z" />
<path fill="#1f1a17" opacity="1.00" d=" M 603.99 187.13 C 605.35 186.76 606.72 186.41 608.10 186.06 C 610.46 191.51 612.53 197.10 614.17 202.82 C 606.08 205.95 597.80 208.56 589.77 211.83 C 587.51 206.37 585.29 200.87 583.95 195.10 C 585.25 194.77 586.55 194.45 587.86 194.14 C 589.25 197.71 590.56 201.30 591.90 204.89 C 593.62 204.20 595.33 203.51 597.05 202.81 C 596.16 199.16 595.06 195.56 594.11 191.92 C 595.40 191.75 596.69 191.58 597.99 191.41 C 599.20 194.63 600.47 197.82 601.82 200.98 C 603.86 200.25 605.89 199.51 607.93 198.76 C 606.67 194.87 605.20 191.04 603.99 187.13 Z" />
<path fill="#1f1a17" opacity="1.00" d=" M 603.39 215.39 C 607.63 214.08 611.81 212.55 616.20 211.80 C 616.19 213.67 616.18 215.54 616.13 217.41 C 612.87 218.18 609.61 218.98 606.40 219.94 C 606.45 222.19 606.50 224.44 606.54 226.70 C 610.21 226.59 613.88 226.46 617.56 226.39 C 617.57 228.33 617.56 230.28 617.55 232.23 C 609.11 232.65 600.67 233.39 592.34 234.84 C 591.23 228.95 589.20 222.47 591.56 216.67 C 594.44 212.66 599.48 215.54 603.39 215.39 M 595.27 220.45 C 594.96 223.11 594.76 225.78 594.63 228.46 C 597.06 228.34 599.50 228.21 601.95 228.05 C 601.70 225.30 601.44 222.56 601.06 219.84 C 599.12 220.02 597.19 220.24 595.27 220.45 Z" />
<path fill="#1f1a17" opacity="1.00" d=" M 300.68 218.74 C 304.00 217.41 307.84 217.12 311.05 218.93 C 321.85 224.21 331.95 231.48 339.19 241.19 C 330.44 244.12 321.26 245.92 312.01 245.76 C 298.71 246.18 285.39 244.30 272.63 240.55 C 280.32 231.49 289.39 222.99 300.68 218.74 Z" />
<path fill="#1f1a17" opacity="1.00" d=" M 592.29 240.80 C 591.84 238.77 592.89 236.75 593.27 234.78 C 596.61 238.28 599.55 242.13 602.55 245.91 C 608.13 243.97 613.43 241.32 619.09 239.59 C 618.55 241.48 618.24 243.47 617.29 245.22 C 612.79 248.00 607.54 249.25 602.84 251.65 C 606.94 252.65 611.06 253.56 615.18 254.49 C 614.97 256.29 614.73 258.09 614.50 259.89 C 606.04 258.41 597.76 256.12 589.35 254.41 C 589.39 252.62 589.45 250.83 589.52 249.04 C 593.13 249.48 596.70 250.18 600.30 250.70 C 597.66 247.37 594.36 244.53 592.29 240.80 Z" />
<path fill="#1f1a17" opacity="1.00" d=" M 583.47 270.28 C 585.91 268.64 588.85 270.31 591.39 270.80 C 588.23 274.35 582.54 275.28 581.33 280.44 C 582.10 281.07 583.65 282.33 584.43 282.96 C 588.28 280.74 591.56 277.69 595.24 275.22 C 599.65 272.22 606.19 276.87 605.38 281.99 C 604.66 286.50 602.25 290.88 598.60 293.68 C 596.04 295.53 592.84 293.88 590.18 293.19 C 591.34 291.80 592.02 289.63 593.98 289.15 C 595.79 288.50 597.72 288.16 599.43 287.24 C 601.22 285.06 600.20 282.03 600.12 279.50 C 594.63 280.92 591.19 285.73 586.33 288.23 C 581.58 290.00 577.33 284.47 577.90 280.06 C 578.48 276.32 580.17 272.39 583.47 270.28 Z" />
<path fill="#1f1a17" opacity="1.00" d=" M 572.14 287.67 C 573.34 288.46 574.55 289.27 575.77 290.07 C 573.48 293.12 571.07 296.08 568.73 299.08 C 570.15 300.35 571.57 301.62 573.00 302.89 C 575.50 300.10 577.91 297.24 580.55 294.58 C 581.39 295.68 582.23 296.79 583.08 297.90 C 580.88 300.60 578.72 303.32 576.61 306.08 C 578.33 307.32 580.07 308.55 581.83 309.77 C 584.48 306.65 587.21 303.59 589.98 300.57 C 590.89 301.70 591.81 302.83 592.74 303.97 C 589.28 308.49 585.68 312.89 581.97 317.20 C 574.96 312.03 568.24 306.48 561.57 300.88 C 564.92 296.34 568.49 291.97 572.14 287.67 Z" />
<path fill="#1f1a17" opacity="1.00" d=" M 542.72 318.43 C 547.85 313.12 553.51 308.33 559.37 303.85 C 559.95 304.96 560.53 306.07 561.13 307.18 C 559.41 308.92 557.67 310.62 555.96 312.35 C 560.70 317.91 566.04 322.93 570.71 328.56 C 569.13 329.72 567.56 330.89 565.99 332.05 C 561.16 326.89 556.59 321.51 551.87 316.26 C 549.87 317.72 547.90 319.22 545.96 320.74 C 544.87 319.96 543.79 319.19 542.72 318.43 Z" />
<path fill="#1f1a17" opacity="1.00" d=" M 533.46 324.66 C 536.65 324.04 540.29 323.94 543.03 326.00 C 548.27 329.74 552.30 336.64 550.00 343.15 C 547.17 349.25 539.09 353.81 532.69 350.32 C 527.49 347.31 523.62 341.36 524.22 335.22 C 524.56 330.20 528.61 325.77 533.46 324.66 M 532.54 329.37 C 529.82 330.58 528.59 333.74 529.48 336.53 C 530.70 340.41 533.28 344.02 536.77 346.19 C 540.81 348.23 545.75 344.43 545.24 340.06 C 544.47 335.83 541.87 331.94 538.32 329.53 C 536.62 328.33 534.29 328.25 532.54 329.37 Z" />
<path fill="#1f1a17" opacity="1.00" d=" M 497.00 345.67 C 502.50 343.64 507.44 338.93 513.57 339.40 C 518.30 340.31 518.66 345.88 518.35 349.77 C 521.89 352.55 524.68 356.11 527.11 359.88 C 525.36 360.83 523.62 361.77 521.88 362.72 C 519.84 359.93 517.88 357.10 515.91 354.27 C 513.60 355.12 511.31 356.02 509.02 356.91 C 510.55 360.10 512.17 363.25 513.80 366.39 C 512.25 367.41 510.67 368.37 509.05 369.25 C 504.84 361.49 500.75 353.66 497.00 345.67 M 503.86 346.75 C 504.96 349.01 506.07 351.27 507.20 353.52 C 509.17 352.33 511.45 351.44 512.92 349.60 C 514.31 347.67 513.06 344.71 510.68 344.42 C 508.23 344.48 506.07 345.85 503.86 346.75 Z" />
<path fill="#1f1a17" opacity="1.00" d=" M 465.27 364.73 C 464.14 357.19 473.75 352.30 480.08 354.88 C 482.02 356.07 482.59 358.46 483.57 360.37 C 480.37 360.17 477.36 358.98 474.23 358.48 C 471.23 358.41 470.57 361.87 469.54 363.99 C 474.17 365.27 478.99 365.25 483.74 365.68 C 488.63 366.00 490.01 372.45 488.11 376.14 C 484.76 380.50 478.78 382.63 473.40 381.56 C 470.64 380.85 469.46 377.88 467.91 375.79 C 469.34 375.45 470.77 375.01 472.25 374.85 C 474.53 375.48 476.48 376.97 478.79 377.55 C 481.01 376.78 482.75 375.10 484.59 373.71 C 481.28 368.83 475.04 371.03 470.19 369.74 C 467.65 369.41 465.43 367.33 465.27 364.73 Z" />
<path fill="#1f1a17" opacity="1.00" d=" M 243.72 361.13 C 248.55 362.43 253.88 362.94 258.01 366.01 C 266.21 372.27 262.17 387.74 251.99 389.26 C 246.88 389.69 241.99 387.64 237.13 386.37 C 239.06 377.89 241.42 369.51 243.72 361.13 M 247.55 366.77 C 246.12 372.58 244.62 378.41 244.09 384.40 C 247.30 384.28 251.27 385.38 253.83 382.84 C 256.35 379.66 257.20 375.11 256.03 371.24 C 254.69 367.83 250.59 367.61 247.55 366.77 Z" />
<path fill="#1f1a17" opacity="1.00" d=" M 440.03 365.12 C 445.74 363.70 451.48 362.38 457.26 361.30 C 457.34 362.29 457.51 364.29 457.59 365.29 C 454.10 366.21 450.61 367.13 447.15 368.12 C 447.45 370.04 447.76 371.97 448.09 373.90 C 451.81 373.34 455.50 372.57 459.24 372.03 C 459.30 373.32 459.37 374.62 459.44 375.93 C 456.05 376.71 452.68 377.58 449.36 378.60 C 449.89 380.59 450.42 382.59 450.94 384.59 C 454.75 383.76 458.54 382.89 462.36 382.09 C 462.83 383.46 463.31 384.84 463.80 386.22 C 458.13 387.87 452.38 389.26 446.67 390.77 C 444.22 382.28 441.93 373.74 440.03 365.12 Z" />
<path fill="#1f1a17" opacity="1.00" d=" M 427.37 367.55 C 429.16 367.70 430.98 367.73 432.73 368.24 C 434.40 376.63 435.93 385.09 436.82 393.60 C 435.13 393.61 433.45 393.62 431.77 393.62 C 431.13 390.09 430.44 386.58 429.69 383.09 C 426.51 383.43 423.35 383.85 420.19 384.32 C 420.49 388.34 421.05 392.33 421.41 396.35 C 419.64 396.46 417.88 396.56 416.12 396.66 C 414.85 388.00 412.71 379.45 412.21 370.69 C 413.97 370.56 415.73 370.43 417.49 370.32 C 418.00 373.53 418.47 376.76 418.86 380.01 C 422.17 379.73 425.47 379.38 428.77 379.00 C 428.37 375.17 427.74 371.38 427.37 367.55 Z" />
<path fill="#1f1a17" opacity="1.00" d=" M 268.01 394.06 C 268.94 385.41 270.71 376.88 272.61 368.40 C 278.56 369.37 284.55 370.23 290.35 371.92 C 289.26 372.89 288.52 374.84 286.78 374.71 C 283.46 374.79 280.16 374.32 276.86 374.15 C 276.65 375.98 276.46 377.81 276.28 379.65 C 279.96 380.38 283.65 381.04 287.32 381.84 C 286.55 382.97 285.82 384.14 284.89 385.17 C 281.68 385.09 278.53 384.41 275.34 384.09 C 274.97 386.22 274.61 388.35 274.28 390.49 C 278.03 391.29 281.83 391.90 285.61 392.55 C 285.59 394.01 285.56 395.47 285.55 396.94 C 279.62 396.55 273.81 395.25 268.01 394.06 Z" />
<path fill="#1f1a17" opacity="1.00" d=" M 297.31 373.21 C 299.00 372.75 300.74 372.59 302.48 372.35 C 302.78 379.39 300.67 386.40 301.65 393.43 C 303.48 396.69 308.09 396.01 311.12 395.14 C 313.93 388.63 313.19 381.27 314.35 374.39 C 316.11 374.49 317.86 374.60 319.62 374.73 C 319.38 380.78 318.76 386.83 317.74 392.80 C 317.23 396.33 314.71 399.78 310.96 400.19 C 306.51 400.69 301.20 400.56 297.84 397.19 C 295.21 394.52 295.62 390.47 295.87 387.05 C 296.44 382.45 296.40 377.76 297.31 373.21 Z" />
<path fill="#1f1a17" opacity="1.00" d=" M 386.00 376.01 C 389.37 372.82 394.49 372.00 398.93 372.87 C 402.05 373.50 403.49 376.67 405.27 378.95 C 404.42 379.35 402.71 380.13 401.85 380.52 C 399.60 379.11 397.55 377.20 394.93 376.51 C 391.56 376.60 388.68 379.63 388.55 382.96 C 388.24 386.73 388.48 390.97 391.03 393.99 C 392.56 395.82 395.24 396.11 397.43 395.50 C 399.58 394.31 401.14 392.33 402.87 390.63 C 403.88 390.70 405.91 390.83 406.93 390.90 C 405.83 393.31 405.26 396.39 402.73 397.78 C 398.88 400.10 394.03 400.32 389.75 399.26 C 385.79 397.95 384.27 393.46 383.58 389.74 C 383.07 385.14 382.71 379.72 386.00 376.01 Z" />
<path fill="#1f1a17" opacity="1.00" d=" M 356.32 378.31 C 359.60 374.39 365.66 373.88 370.12 375.95 C 372.54 377.02 373.26 379.82 374.43 381.96 C 373.55 382.11 371.79 382.40 370.91 382.54 C 368.26 380.68 365.05 376.97 361.63 379.50 C 359.82 380.08 360.25 382.01 360.48 383.45 C 364.22 386.23 369.22 386.37 373.07 388.96 C 376.71 391.33 376.65 397.71 372.79 399.85 C 368.42 402.28 362.72 403.29 358.11 400.93 C 355.50 399.52 354.93 396.35 353.85 393.85 C 355.39 393.64 356.95 393.44 358.50 393.27 C 360.55 395.42 362.43 398.93 365.94 398.39 C 368.75 398.38 369.38 395.26 370.36 393.25 C 366.27 391.23 361.75 390.29 357.64 388.34 C 353.96 386.54 353.86 381.17 356.32 378.31 Z" />
<path fill="#1f1a17" opacity="1.00" d=" M 327.57 375.70 C 334.64 375.68 341.72 375.63 348.76 376.32 C 348.71 377.69 348.67 379.06 348.64 380.44 C 345.97 380.44 343.30 380.43 340.63 380.44 C 340.57 387.59 340.44 394.75 340.49 401.90 C 338.62 402.06 336.75 402.21 334.88 402.34 C 334.44 395.01 335.28 387.69 335.33 380.36 C 332.75 380.30 330.17 380.24 327.59 380.18 C 327.58 378.68 327.57 377.19 327.57 375.70 Z" />
</g>
<g id="#b07507ff">
<path fill="#b07507" opacity="1.00" d=" M 306.67 56.23 C 328.95 53.75 351.43 53.93 373.81 54.68 C 430.98 58.55 488.32 72.78 537.96 102.04 C 540.41 103.46 542.75 105.05 545.03 106.74 C 535.69 113.81 524.95 118.56 514.36 123.41 C 508.29 126.19 501.81 127.95 495.31 129.36 C 492.75 129.99 490.20 129.11 487.87 128.14 C 469.09 119.92 449.36 114.03 429.39 109.57 C 424.88 108.78 422.10 104.87 419.37 101.61 C 416.16 97.77 413.74 93.34 411.91 88.70 C 415.37 87.87 419.22 87.48 421.98 84.99 C 427.27 80.44 426.98 70.87 421.19 66.85 C 415.76 62.63 406.76 64.41 403.58 70.58 C 401.53 73.98 402.74 78.03 403.30 81.67 C 404.06 84.32 401.65 86.28 400.34 88.28 C 396.53 92.83 393.19 97.78 389.12 102.09 C 387.37 104.32 384.31 103.35 381.90 103.37 C 371.97 102.28 361.97 102.43 352.00 102.37 C 322.21 102.08 292.37 105.40 263.42 112.46 C 233.86 119.63 205.05 130.79 179.51 147.46 C 159.12 161.05 140.51 178.69 130.31 201.33 C 125.89 211.22 123.36 221.97 123.26 232.82 C 114.19 230.74 104.67 230.24 95.59 232.58 C 87.89 234.18 81.18 238.47 73.77 240.90 C 71.66 212.04 80.90 183.01 97.54 159.52 C 111.13 139.74 129.24 123.50 148.88 109.90 C 195.54 78.40 251.02 61.94 306.67 56.23 M 314.20 65.22 C 310.73 67.13 308.67 71.04 308.51 74.94 C 308.11 79.91 308.96 85.59 312.97 89.00 C 319.33 94.37 331.19 90.75 332.07 81.97 C 330.04 82.45 327.88 82.81 326.23 84.20 C 324.16 85.54 322.02 88.11 319.30 86.84 C 314.18 85.56 313.95 79.30 314.15 75.02 C 313.97 71.55 316.79 67.17 320.71 68.23 C 324.00 69.49 327.06 71.39 330.66 71.72 C 329.68 69.45 329.20 66.49 326.76 65.28 C 322.89 63.36 318.07 63.26 314.20 65.22 M 338.80 63.80 C 338.34 72.65 339.32 81.47 339.35 90.32 C 341.14 90.29 342.94 90.26 344.75 90.23 C 344.79 86.26 344.74 82.29 344.73 78.32 C 348.02 78.32 351.32 78.33 354.61 78.33 C 354.67 82.12 354.71 85.91 354.85 89.69 C 356.70 89.73 358.55 89.76 360.40 89.78 C 360.47 81.06 360.33 72.35 360.23 63.64 C 358.34 63.61 356.44 63.59 354.55 63.60 C 354.58 66.95 354.64 70.29 354.65 73.64 C 351.34 73.71 348.02 73.78 344.72 73.82 C 344.67 70.44 344.66 67.06 344.65 63.68 C 342.69 63.71 340.74 63.75 338.80 63.80 M 366.72 63.63 C 366.83 64.93 366.95 66.24 367.08 67.55 C 369.55 67.71 372.02 67.89 374.49 68.10 C 374.38 75.55 373.51 82.97 373.54 90.43 C 375.46 90.45 377.38 90.46 379.31 90.44 C 379.50 83.11 379.50 75.75 380.24 68.45 C 382.95 68.48 385.66 68.51 388.38 68.49 C 388.29 67.18 388.20 65.86 388.12 64.54 C 380.97 64.54 373.87 63.60 366.72 63.63 M 286.33 68.26 C 284.40 77.30 282.85 86.42 281.28 95.53 C 282.74 95.48 284.21 95.42 285.69 95.36 C 286.51 93.30 287.02 91.05 288.37 89.25 C 290.98 88.19 293.85 87.61 296.68 87.68 C 298.39 89.05 299.64 90.94 301.43 92.23 C 302.87 92.51 304.34 92.47 305.81 92.54 C 302.19 83.77 297.11 75.72 292.91 67.22 C 290.71 67.54 288.52 67.89 286.33 68.26 M 267.59 71.72 C 267.68 78.23 267.79 84.75 267.59 91.26 C 264.64 85.59 261.95 79.78 259.02 74.10 C 257.14 74.26 255.27 74.42 253.41 74.58 C 252.43 81.43 252.83 88.35 252.50 95.24 C 249.55 89.25 247.11 83.02 244.23 77.00 C 242.24 77.51 240.26 78.05 238.28 78.61 C 242.51 86.58 246.23 94.81 250.70 102.64 C 252.66 102.21 254.63 101.77 256.60 101.36 C 256.65 94.75 257.17 88.17 257.57 81.58 C 260.85 87.25 263.52 93.24 266.53 99.06 C 268.85 98.09 272.83 98.25 272.75 94.87 C 273.73 86.77 273.16 78.57 273.28 70.43 C 271.38 70.84 269.48 71.28 267.59 71.72 M 212.29 87.80 C 215.15 95.88 218.07 103.93 221.04 111.96 C 222.72 111.77 224.40 111.57 226.08 111.34 C 225.32 107.55 224.18 103.85 223.18 100.12 C 225.46 99.56 227.74 99.02 230.02 98.48 C 231.64 101.49 233.22 104.52 234.87 107.52 C 236.67 106.82 238.46 106.13 240.26 105.43 C 238.31 101.52 235.62 98.04 233.56 94.21 C 232.92 90.63 234.58 85.54 230.35 83.65 C 224.01 81.99 218.03 85.64 212.29 87.80 M 188.17 97.78 C 191.88 105.67 195.27 113.70 199.07 121.55 C 204.45 119.37 209.72 116.95 214.96 114.44 C 214.44 113.10 213.87 111.78 213.26 110.49 C 209.49 111.97 205.74 113.48 201.92 114.82 C 201.23 112.77 200.54 110.72 199.91 108.66 C 202.88 107.36 205.84 106.04 208.82 104.75 C 208.66 103.46 208.50 102.18 208.34 100.90 C 204.78 101.95 201.31 103.28 197.82 104.54 C 197.10 102.84 196.43 101.12 195.80 99.38 C 199.17 97.77 202.55 96.21 205.92 94.59 C 205.28 93.28 204.63 91.98 203.98 90.68 C 198.55 92.69 193.29 95.11 188.17 97.78 M 169.37 107.34 C 166.67 108.99 163.80 111.49 164.14 115.00 C 163.70 118.50 166.19 122.42 169.98 122.28 C 174.91 121.93 179.71 120.37 184.70 120.70 C 184.08 122.93 184.07 125.65 182.19 127.28 C 179.24 128.61 176.13 127.13 173.29 126.23 C 172.12 127.10 170.95 127.97 169.77 128.84 C 171.40 130.35 172.93 132.33 175.25 132.70 C 180.67 133.57 185.96 130.04 188.73 125.59 C 191.26 121.55 188.04 114.87 183.00 115.40 C 178.21 115.76 173.46 117.11 168.64 116.26 C 169.33 114.34 169.05 111.16 171.57 110.60 C 174.88 110.12 178.26 110.61 181.58 110.09 C 180.42 108.65 179.45 106.97 177.88 105.93 C 175.04 104.73 171.84 105.74 169.37 107.34 M 141.02 129.23 C 139.67 133.17 142.48 138.56 146.99 138.36 C 151.37 138.01 155.47 136.28 159.72 135.28 C 160.35 135.89 161.61 137.11 162.24 137.72 C 161.36 139.33 160.59 141.04 159.33 142.41 C 156.78 143.67 153.89 142.18 151.19 142.40 C 149.76 142.98 148.52 143.92 147.23 144.75 C 149.77 146.41 152.36 149.09 155.68 148.50 C 159.94 147.56 163.59 144.52 165.87 140.85 C 168.24 137.00 166.01 130.20 160.95 130.29 C 155.64 130.54 150.60 132.93 145.20 132.46 C 145.70 130.40 145.57 127.70 147.62 126.46 C 149.91 124.95 152.70 126.09 155.16 126.41 C 155.98 125.44 156.81 124.48 157.63 123.51 C 155.60 122.44 153.56 120.91 151.13 121.13 C 146.51 121.34 142.44 124.92 141.02 129.23 M 123.47 143.38 C 121.82 144.62 120.51 146.24 119.12 147.74 C 123.57 155.86 127.91 164.06 132.82 171.92 C 133.76 170.88 134.70 169.84 135.64 168.81 C 135.01 166.65 134.14 164.51 134.13 162.24 C 135.57 159.65 137.79 157.64 139.77 155.48 C 141.72 155.98 143.67 156.66 145.70 156.68 C 147.14 155.71 148.34 154.43 149.60 153.24 C 143.08 150.30 136.35 147.88 129.76 145.12 C 127.73 144.36 125.68 143.37 123.47 143.38 M 105.47 167.46 C 109.54 171.22 114.32 174.15 118.24 178.10 C 112.03 177.19 105.95 175.60 99.83 174.22 C 98.85 176.05 97.87 177.89 96.91 179.73 C 101.67 183.79 106.52 187.78 110.72 192.43 C 104.55 191.37 98.66 189.18 92.53 187.93 C 91.69 189.68 90.84 191.44 90.00 193.20 C 98.93 194.89 107.67 197.86 116.73 198.63 C 118.11 197.00 119.68 194.12 117.71 192.34 C 113.60 188.08 108.79 184.56 104.75 180.23 C 111.23 181.39 117.54 183.28 123.95 184.73 C 124.89 182.79 125.84 180.87 126.77 178.93 C 119.82 172.90 113.18 166.47 105.77 160.99 C 105.41 163.06 103.21 165.78 105.47 167.46 Z" />
<path fill="#b07507" opacity="1.00" d=" M 405.84 75.07 C 406.80 69.51 414.46 66.21 418.91 70.03 C 422.78 72.50 423.41 78.18 420.69 81.73 C 418.48 85.07 413.93 84.37 410.61 85.65 C 408.15 87.55 406.54 90.29 404.63 92.69 C 373.61 133.83 342.06 174.58 311.04 215.72 C 320.50 220.55 329.93 225.92 337.21 233.80 C 339.22 235.68 340.84 238.25 343.43 239.35 C 347.95 239.80 352.44 238.35 356.96 238.91 C 364.24 239.70 370.66 243.58 377.70 245.35 C 389.40 248.51 401.77 250.48 413.85 248.43 C 421.67 247.24 429.53 246.22 437.20 244.23 C 445.98 241.97 454.91 240.07 463.99 239.69 C 473.74 239.28 483.40 241.42 492.63 244.40 C 501.54 247.23 510.52 250.62 520.00 250.59 C 532.27 251.03 544.24 247.68 555.73 243.73 C 559.56 242.35 563.58 241.58 567.63 241.23 C 567.36 248.41 565.87 255.51 563.30 262.23 C 556.31 263.51 549.27 264.59 542.41 266.46 C 538.02 267.65 533.52 268.41 528.97 268.52 C 521.74 268.67 514.43 270.36 507.26 268.69 C 500.38 267.10 493.61 265.07 486.77 263.28 C 480.88 261.77 475.08 259.62 468.96 259.30 C 463.68 258.98 458.38 259.08 453.12 259.55 C 440.21 260.96 427.95 265.76 415.04 267.17 C 398.85 268.53 382.49 266.45 366.90 261.97 C 363.43 260.94 359.88 260.22 356.29 259.77 C 359.08 268.32 362.39 276.75 363.78 285.69 C 362.61 285.63 361.44 285.59 360.28 285.54 C 359.23 282.07 358.18 278.60 357.06 275.15 C 342.26 278.45 327.22 281.17 311.99 280.81 C 292.68 281.26 273.57 277.71 254.90 273.11 C 255.17 270.43 255.72 267.80 255.98 265.13 C 246.06 262.56 236.55 258.53 227.83 253.15 C 214.57 245.16 202.46 235.32 191.78 224.12 C 200.92 217.55 211.21 212.71 222.04 209.71 C 230.08 220.09 240.08 228.89 251.30 235.68 C 257.08 239.31 263.44 241.80 269.62 244.63 C 264.90 251.12 260.69 257.98 257.04 265.13 C 275.28 270.07 294.06 273.43 313.00 273.39 C 326.93 273.06 340.78 270.95 354.27 267.45 C 352.09 259.58 347.98 252.42 343.04 245.97 C 319.96 253.21 294.91 251.22 271.93 244.63 C 271.47 243.17 271.20 241.61 270.42 240.28 C 267.30 238.29 263.72 237.19 260.46 235.48 C 247.54 228.97 235.68 219.83 227.30 207.92 C 238.66 205.31 250.39 205.24 261.99 205.59 C 277.30 206.47 292.59 208.91 307.05 214.18 C 339.38 172.43 371.07 130.19 403.52 88.54 C 404.87 86.73 406.48 85.01 407.21 82.84 C 406.94 80.22 405.95 77.71 405.84 75.07 M 300.68 218.74 C 289.39 222.99 280.32 231.49 272.63 240.55 C 285.39 244.30 298.71 246.18 312.01 245.76 C 321.26 245.92 330.44 244.12 339.19 241.19 C 331.95 231.48 321.85 224.21 311.05 218.93 C 307.84 217.12 304.00 217.41 300.68 218.74 Z" />
<path fill="#b07507" opacity="1.00" d=" M 290.55 74.26 C 292.36 77.15 293.88 80.21 295.19 83.36 C 292.94 83.56 290.69 83.75 288.44 83.91 C 289.06 80.68 289.73 77.45 290.55 74.26 Z" />
<path fill="#b07507" opacity="1.00" d=" M 219.25 89.41 C 222.08 88.67 224.98 88.22 227.90 88.09 C 228.06 89.70 228.28 91.32 228.21 92.95 C 226.44 94.89 223.77 95.47 221.41 96.35 C 220.66 94.04 219.95 91.73 219.25 89.41 Z" />
<path fill="#b07507" opacity="1.00" d=" M 408.49 93.67 C 415.42 102.90 422.34 112.31 431.37 119.64 C 443.17 129.68 458.20 136.99 473.99 136.42 C 494.25 135.68 514.31 129.97 531.89 119.86 C 536.96 116.98 541.58 113.34 546.89 110.86 C 541.94 124.86 533.22 137.33 523.21 148.19 C 505.95 167.01 483.08 180.00 458.98 187.95 C 442.17 193.01 424.54 195.13 407.00 194.76 C 393.44 195.03 379.81 193.22 366.88 189.07 C 359.50 186.73 352.54 183.09 346.67 178.01 C 359.06 166.29 372.75 155.89 384.05 143.05 C 395.75 128.61 402.46 111.04 408.49 93.67 M 423.41 128.84 C 420.08 133.15 417.47 138.00 413.85 142.08 C 408.36 140.00 403.96 135.91 398.92 132.99 C 395.76 137.80 392.56 142.57 389.32 147.32 C 393.77 150.91 398.56 154.05 403.26 157.30 C 400.20 162.16 396.88 166.85 393.78 171.69 C 398.36 175.02 402.92 178.38 407.58 181.59 C 410.87 176.74 414.23 171.93 417.84 167.31 C 422.45 170.81 427.15 174.18 432.01 177.33 C 435.47 172.62 438.86 167.85 441.93 162.87 C 437.27 159.49 432.44 156.33 427.73 153.01 C 431.07 148.22 434.57 143.54 438.04 138.84 C 433.30 135.30 428.46 131.90 423.41 128.84 Z" />
<path fill="#b07507" opacity="1.00" d=" M 544.44 131.39 C 547.85 125.12 549.44 118.13 550.89 111.19 C 578.95 130.52 603.58 156.32 616.92 188.05 C 629.05 216.10 628.85 249.00 617.13 277.14 C 606.29 303.97 586.70 326.39 564.26 344.25 C 535.45 367.08 501.60 382.84 466.61 393.62 C 392.44 415.62 311.92 416.26 237.64 394.38 C 213.38 386.94 189.45 377.67 167.64 364.58 C 178.82 362.98 190.15 362.86 201.33 361.27 C 208.91 359.85 216.16 356.65 223.97 356.50 C 247.40 355.03 269.61 365.66 293.01 364.64 C 302.40 364.15 311.63 366.36 321.00 366.47 C 364.92 369.82 409.60 366.23 451.99 353.97 C 485.59 344.26 518.36 329.13 544.44 305.42 C 557.81 293.19 568.91 278.11 574.96 260.91 C 579.21 248.16 580.71 234.30 577.99 221.06 C 574.51 202.30 563.95 185.62 551.24 171.70 C 544.94 164.41 537.35 158.43 529.89 152.41 C 534.88 145.50 540.91 139.26 544.44 131.39 M 571.72 137.74 C 571.06 138.83 570.40 139.92 569.75 141.00 C 572.97 144.02 576.04 147.18 579.06 150.40 C 572.81 151.48 566.43 151.35 560.18 152.37 C 557.71 152.68 555.83 154.42 553.89 155.78 C 558.26 160.70 562.99 165.30 567.80 169.79 C 568.39 169.16 569.56 167.89 570.15 167.25 C 567.40 164.02 564.46 160.95 561.64 157.78 C 568.45 156.54 575.45 156.62 582.19 155.06 C 583.80 154.40 586.56 152.82 585.21 150.76 C 581.33 145.86 576.68 141.54 571.72 137.74 M 584.96 162.94 C 579.73 165.62 574.81 168.88 569.90 172.10 C 570.90 173.61 571.90 175.12 572.92 176.62 C 577.70 173.88 582.08 170.46 587.01 167.96 C 588.68 167.33 590.77 165.97 592.40 167.45 C 595.47 169.27 597.31 174.52 593.93 176.88 C 589.17 180.52 583.78 183.24 578.96 186.79 C 579.81 188.25 580.68 189.70 581.56 191.15 C 586.10 188.97 590.48 186.44 594.70 183.69 C 597.01 182.05 599.53 180.19 600.49 177.40 C 601.84 171.55 598.14 165.61 593.35 162.50 C 590.79 160.68 587.50 161.62 584.96 162.94 M 603.99 187.13 C 605.20 191.04 606.67 194.87 607.93 198.76 C 605.89 199.51 603.86 200.25 601.82 200.98 C 600.47 197.82 599.20 194.63 597.99 191.41 C 596.69 191.58 595.40 191.75 594.11 191.92 C 595.06 195.56 596.16 199.16 597.05 202.81 C 595.33 203.51 593.62 204.20 591.90 204.89 C 590.56 201.30 589.25 197.71 587.86 194.14 C 586.55 194.45 585.25 194.77 583.95 195.10 C 585.29 200.87 587.51 206.37 589.77 211.83 C 597.80 208.56 606.08 205.95 614.17 202.82 C 612.53 197.10 610.46 191.51 608.10 186.06 C 606.72 186.41 605.35 186.76 603.99 187.13 M 603.39 215.39 C 599.48 215.54 594.44 212.66 591.56 216.67 C 589.20 222.47 591.23 228.95 592.34 234.84 C 600.67 233.39 609.11 232.65 617.55 232.23 C 617.56 230.28 617.57 228.33 617.56 226.39 C 613.88 226.46 610.21 226.59 606.54 226.70 C 606.50 224.44 606.45 222.19 606.40 219.94 C 609.61 218.98 612.87 218.18 616.13 217.41 C 616.18 215.54 616.19 213.67 616.20 211.80 C 611.81 212.55 607.63 214.08 603.39 215.39 M 592.29 240.80 C 594.36 244.53 597.66 247.37 600.30 250.70 C 596.70 250.18 593.13 249.48 589.52 249.04 C 589.45 250.83 589.39 252.62 589.35 254.41 C 597.76 256.12 606.04 258.41 614.50 259.89 C 614.73 258.09 614.97 256.29 615.18 254.49 C 611.06 253.56 606.94 252.65 602.84 251.65 C 607.54 249.25 612.79 248.00 617.29 245.22 C 618.24 243.47 618.55 241.48 619.09 239.59 C 613.43 241.32 608.13 243.97 602.55 245.91 C 599.55 242.13 596.61 238.28 593.27 234.78 C 592.89 236.75 591.84 238.77 592.29 240.80 M 583.47 270.28 C 580.17 272.39 578.48 276.32 577.90 280.06 C 577.33 284.47 581.58 290.00 586.33 288.23 C 591.19 285.73 594.63 280.92 600.12 279.50 C 600.20 282.03 601.22 285.06 599.43 287.24 C 597.72 288.16 595.79 288.50 593.98 289.15 C 592.02 289.63 591.34 291.80 590.18 293.19 C 592.84 293.88 596.04 295.53 598.60 293.68 C 602.25 290.88 604.66 286.50 605.38 281.99 C 606.19 276.87 599.65 272.22 595.24 275.22 C 591.56 277.69 588.28 280.74 584.43 282.96 C 583.65 282.33 582.10 281.07 581.33 280.44 C 582.54 275.28 588.23 274.35 591.39 270.80 C 588.85 270.31 585.91 268.64 583.47 270.28 M 572.14 287.67 C 568.49 291.97 564.92 296.34 561.57 300.88 C 568.24 306.48 574.96 312.03 581.97 317.20 C 585.68 312.89 589.28 308.49 592.74 303.97 C 591.81 302.83 590.89 301.70 589.98 300.57 C 587.21 303.59 584.48 306.65 581.83 309.77 C 580.07 308.55 578.33 307.32 576.61 306.08 C 578.72 303.32 580.88 300.60 583.08 297.90 C 582.23 296.79 581.39 295.68 580.55 294.58 C 577.91 297.24 575.50 300.10 573.00 302.89 C 571.57 301.62 570.15 300.35 568.73 299.08 C 571.07 296.08 573.48 293.12 575.77 290.07 C 574.55 289.27 573.34 288.46 572.14 287.67 M 542.72 318.43 C 543.79 319.19 544.87 319.96 545.96 320.74 C 547.90 319.22 549.87 317.72 551.87 316.26 C 556.59 321.51 561.16 326.89 565.99 332.05 C 567.56 330.89 569.13 329.72 570.71 328.56 C 566.04 322.93 560.70 317.91 555.96 312.35 C 557.67 310.62 559.41 308.92 561.13 307.18 C 560.53 306.07 559.95 304.96 559.37 303.85 C 553.51 308.33 547.85 313.12 542.72 318.43 M 533.46 324.66 C 528.61 325.77 524.56 330.20 524.22 335.22 C 523.62 341.36 527.49 347.31 532.69 350.32 C 539.09 353.81 547.17 349.25 550.00 343.15 C 552.30 336.64 548.27 329.74 543.03 326.00 C 540.29 323.94 536.65 324.04 533.46 324.66 M 497.00 345.67 C 500.75 353.66 504.84 361.49 509.05 369.25 C 510.67 368.37 512.25 367.41 513.80 366.39 C 512.17 363.25 510.55 360.10 509.02 356.91 C 511.31 356.02 513.60 355.12 515.91 354.27 C 517.88 357.10 519.84 359.93 521.88 362.72 C 523.62 361.77 525.36 360.83 527.11 359.88 C 524.68 356.11 521.89 352.55 518.35 349.77 C 518.66 345.88 518.30 340.31 513.57 339.40 C 507.44 338.93 502.50 343.64 497.00 345.67 M 465.27 364.73 C 465.43 367.33 467.65 369.41 470.19 369.74 C 475.04 371.03 481.28 368.83 484.59 373.71 C 482.75 375.10 481.01 376.78 478.79 377.55 C 476.48 376.97 474.53 375.48 472.25 374.85 C 470.77 375.01 469.34 375.45 467.91 375.79 C 469.46 377.88 470.64 380.85 473.40 381.56 C 478.78 382.63 484.76 380.50 488.11 376.14 C 490.01 372.45 488.63 366.00 483.74 365.68 C 478.99 365.25 474.17 365.27 469.54 363.99 C 470.57 361.87 471.23 358.41 474.23 358.48 C 477.36 358.98 480.37 360.17 483.57 360.37 C 482.59 358.46 482.02 356.07 480.08 354.88 C 473.75 352.30 464.14 357.19 465.27 364.73 M 243.72 361.13 C 241.42 369.51 239.06 377.89 237.13 386.37 C 241.99 387.64 246.88 389.69 251.99 389.26 C 262.17 387.74 266.21 372.27 258.01 366.01 C 253.88 362.94 248.55 362.43 243.72 361.13 M 440.03 365.12 C 441.93 373.74 444.22 382.28 446.67 390.77 C 452.38 389.26 458.13 387.87 463.80 386.22 C 463.31 384.84 462.83 383.46 462.36 382.09 C 458.54 382.89 454.75 383.76 450.94 384.59 C 450.42 382.59 449.89 380.59 449.36 378.60 C 452.68 377.58 456.05 376.71 459.44 375.93 C 459.37 374.62 459.30 373.32 459.24 372.03 C 455.50 372.57 451.81 373.34 448.09 373.90 C 447.76 371.97 447.45 370.04 447.15 368.12 C 450.61 367.13 454.10 366.21 457.59 365.29 C 457.51 364.29 457.34 362.29 457.26 361.30 C 451.48 362.38 445.74 363.70 440.03 365.12 M 427.37 367.55 C 427.74 371.38 428.37 375.17 428.77 379.00 C 425.47 379.38 422.17 379.73 418.86 380.01 C 418.47 376.76 418.00 373.53 417.49 370.32 C 415.73 370.43 413.97 370.56 412.21 370.69 C 412.71 379.45 414.85 388.00 416.12 396.66 C 417.88 396.56 419.64 396.46 421.41 396.35 C 421.05 392.33 420.49 388.34 420.19 384.32 C 423.35 383.85 426.51 383.43 429.69 383.09 C 430.44 386.58 431.13 390.09 431.77 393.62 C 433.45 393.62 435.13 393.61 436.82 393.60 C 435.93 385.09 434.40 376.63 432.73 368.24 C 430.98 367.73 429.16 367.70 427.37 367.55 M 268.01 394.06 C 273.81 395.25 279.62 396.55 285.55 396.94 C 285.56 395.47 285.59 394.01 285.61 392.55 C 281.83 391.90 278.03 391.29 274.28 390.49 C 274.61 388.35 274.97 386.22 275.34 384.09 C 278.53 384.41 281.68 385.09 284.89 385.17 C 285.82 384.14 286.55 382.97 287.32 381.84 C 283.65 381.04 279.96 380.38 276.28 379.65 C 276.46 377.81 276.65 375.98 276.86 374.15 C 280.16 374.32 283.46 374.79 286.78 374.71 C 288.52 374.84 289.26 372.89 290.35 371.92 C 284.55 370.23 278.56 369.37 272.61 368.40 C 270.71 376.88 268.94 385.41 268.01 394.06 M 297.31 373.21 C 296.40 377.76 296.44 382.45 295.87 387.05 C 295.62 390.47 295.21 394.52 297.84 397.19 C 301.20 400.56 306.51 400.69 310.96 400.19 C 314.71 399.78 317.23 396.33 317.74 392.80 C 318.76 386.83 319.38 380.78 319.62 374.73 C 317.86 374.60 316.11 374.49 314.35 374.39 C 313.19 381.27 313.93 388.63 311.12 395.14 C 308.09 396.01 303.48 396.69 301.65 393.43 C 300.67 386.40 302.78 379.39 302.48 372.35 C 300.74 372.59 299.00 372.75 297.31 373.21 M 386.00 376.01 C 382.71 379.72 383.07 385.14 383.58 389.74 C 384.27 393.46 385.79 397.95 389.75 399.26 C 394.03 400.32 398.88 400.10 402.73 397.78 C 405.26 396.39 405.83 393.31 406.93 390.90 C 405.91 390.83 403.88 390.70 402.87 390.63 C 401.14 392.33 399.58 394.31 397.43 395.50 C 395.24 396.11 392.56 395.82 391.03 393.99 C 388.48 390.97 388.24 386.73 388.55 382.96 C 388.68 379.63 391.56 376.60 394.93 376.51 C 397.55 377.20 399.60 379.11 401.85 380.52 C 402.71 380.13 404.42 379.35 405.27 378.95 C 403.49 376.67 402.05 373.50 398.93 372.87 C 394.49 372.00 389.37 372.82 386.00 376.01 M 356.32 378.31 C 353.86 381.17 353.96 386.54 357.64 388.34 C 361.75 390.29 366.27 391.23 370.36 393.25 C 369.38 395.26 368.75 398.38 365.94 398.39 C 362.43 398.93 360.55 395.42 358.50 393.27 C 356.95 393.44 355.39 393.64 353.85 393.85 C 354.93 396.35 355.50 399.52 358.11 400.93 C 362.72 403.29 368.42 402.28 372.79 399.85 C 376.65 397.71 376.71 391.33 373.07 388.96 C 369.22 386.37 364.22 386.23 360.48 383.45 C 360.25 382.01 359.82 380.08 361.63 379.50 C 365.05 376.97 368.26 380.68 370.91 382.54 C 371.79 382.40 373.55 382.11 374.43 381.96 C 373.26 379.82 372.54 377.02 370.12 375.95 C 365.66 373.88 359.60 374.39 356.32 378.31 M 327.57 375.70 C 327.57 377.19 327.58 378.68 327.59 380.18 C 330.17 380.24 332.75 380.30 335.33 380.36 C 335.28 387.69 334.44 395.01 334.88 402.34 C 336.75 402.21 338.62 402.06 340.49 401.90 C 340.44 394.75 340.57 387.59 340.63 380.44 C 343.30 380.43 345.97 380.44 348.64 380.44 C 348.67 379.06 348.71 377.69 348.76 376.32 C 341.72 375.63 334.64 375.68 327.57 375.70 Z" />
<path fill="#b07507" opacity="1.00" d=" M 125.80 149.72 C 129.01 150.77 132.17 151.99 135.27 153.33 C 133.85 155.14 132.40 156.91 130.93 158.68 C 129.04 155.80 127.29 152.83 125.80 149.72 Z" />
<path fill="#b07507" opacity="1.00" d=" M 595.27 220.45 C 597.19 220.24 599.12 220.02 601.06 219.84 C 601.44 222.56 601.70 225.30 601.95 228.05 C 599.50 228.21 597.06 228.34 594.63 228.46 C 594.76 225.78 594.96 223.11 595.27 220.45 Z" />
<path fill="#b07507" opacity="1.00" d=" M 181.71 236.58 C 182.61 233.38 184.79 230.78 186.75 228.18 C 205.52 247.53 227.72 264.40 253.58 272.90 C 251.81 276.85 250.09 280.82 248.17 284.70 C 243.52 279.81 240.63 272.59 233.86 270.23 C 221.54 266.08 208.35 272.06 196.00 268.04 C 190.44 266.40 187.34 261.03 184.81 256.23 C 181.61 250.27 180.28 243.24 181.71 236.58 Z" />
<path fill="#b07507" opacity="1.00" d=" M 99.61 238.93 C 108.61 237.51 117.89 238.19 126.74 240.26 C 133.12 241.71 139.33 243.87 145.77 245.04 C 155.48 246.63 165.30 245.04 174.82 243.04 C 174.31 247.49 173.19 252.06 174.48 256.49 C 177.83 269.57 187.57 279.44 194.13 290.85 C 192.20 290.40 190.09 289.98 188.82 288.30 C 183.72 282.44 179.01 276.16 175.54 269.18 C 169.43 269.22 163.33 271.07 157.24 269.80 C 143.06 267.24 129.55 261.23 115.01 260.64 C 103.05 260.13 91.73 264.75 80.78 268.98 C 78.43 262.72 76.63 256.28 75.29 249.73 C 82.67 244.72 91.05 241.32 99.61 238.93 Z" />
<path fill="#b07507" opacity="1.00" d=" M 83.06 276.39 C 95.52 270.89 108.92 264.79 122.89 266.98 C 126.30 267.70 130.64 268.05 132.44 271.54 C 134.89 275.58 137.04 279.79 139.37 283.91 C 128.46 282.88 117.40 281.31 106.51 283.47 C 100.46 284.38 94.75 286.62 89.10 288.89 C 86.91 284.81 84.82 280.67 83.06 276.39 Z" />
<path fill="#b07507" opacity="1.00" d=" M 187.59 295.29 C 200.54 292.79 212.90 287.42 226.15 286.37 C 234.15 285.91 242.41 286.01 249.99 288.93 C 261.15 293.30 273.02 295.89 284.99 296.33 C 301.24 296.47 316.89 291.70 332.70 288.68 C 341.22 287.14 349.99 285.80 358.62 287.38 C 366.28 288.21 373.28 291.69 380.77 293.27 C 400.88 297.44 421.87 296.01 441.62 290.63 C 452.44 287.32 463.89 287.82 475.05 286.89 C 487.14 287.72 498.76 291.55 510.70 293.41 C 521.16 295.40 531.86 294.70 542.42 294.13 C 537.00 300.49 530.50 305.81 523.93 310.92 C 521.55 312.55 519.12 314.83 516.03 314.56 C 513.01 314.42 510.08 313.61 507.15 312.95 C 491.06 309.23 474.66 304.92 458.00 306.75 C 444.50 308.99 431.38 313.21 417.86 315.29 C 408.20 315.57 398.34 317.81 388.83 315.17 C 379.34 312.66 369.84 310.17 360.37 307.60 C 354.70 306.02 348.77 306.20 342.95 306.29 C 327.94 306.47 313.84 312.53 299.03 314.10 C 285.75 315.20 272.32 314.39 259.29 311.57 C 252.14 310.25 245.38 307.09 238.05 306.73 C 218.13 305.48 198.81 311.70 179.05 312.81 C 169.30 313.84 159.40 312.66 150.01 309.97 C 138.93 307.13 127.23 305.40 115.88 307.56 C 111.84 308.29 107.97 309.65 104.07 310.89 C 100.04 305.71 96.27 300.32 92.94 294.67 C 101.99 290.36 112.09 289.30 121.96 288.68 C 132.02 288.17 141.48 292.17 151.28 293.66 C 163.22 296.01 175.49 296.26 187.59 295.29 Z" />
<path fill="#b07507" opacity="1.00" d=" M 108.54 315.86 C 121.21 310.42 135.38 312.72 148.36 315.69 C 156.11 317.71 164.06 318.79 172.04 319.37 C 179.74 319.45 185.43 325.36 191.50 329.29 C 177.20 334.64 161.78 331.61 147.00 330.95 C 139.11 329.78 131.26 331.54 123.40 331.56 C 117.40 327.50 113.11 321.39 108.54 315.86 Z" />
<path fill="#b07507" opacity="1.00" d=" M 532.54 329.37 C 534.29 328.25 536.62 328.33 538.32 329.53 C 541.87 331.94 544.47 335.83 545.24 340.06 C 545.75 344.43 540.81 348.23 536.77 346.19 C 533.28 344.02 530.70 340.41 529.48 336.53 C 528.59 333.74 529.82 330.58 532.54 329.37 Z" />
<path fill="#b07507" opacity="1.00" d=" M 200.91 334.96 C 209.70 332.46 218.85 331.13 227.99 331.46 C 244.11 331.40 259.53 336.72 275.29 339.34 C 283.46 340.24 291.74 339.45 299.76 337.74 C 311.08 335.36 322.43 332.90 333.96 331.81 C 347.07 331.09 360.04 333.99 372.62 337.38 C 386.89 341.08 402.02 341.45 416.43 338.31 C 425.39 336.25 434.47 334.77 443.47 332.85 C 454.41 331.64 465.98 331.91 476.01 336.99 C 469.41 340.69 462.03 342.60 454.85 344.81 C 419.64 355.54 382.73 360.07 346.00 360.07 C 339.00 359.59 331.97 359.78 324.99 359.12 C 311.83 357.66 298.56 358.91 285.38 357.78 C 275.53 357.34 265.49 356.59 256.18 353.09 C 248.73 350.54 240.80 350.00 232.99 350.16 C 216.79 349.97 201.01 354.11 185.01 355.98 C 175.19 357.03 165.17 358.39 155.36 356.46 C 151.19 355.73 147.95 352.80 144.65 350.37 C 139.76 346.43 134.58 342.78 130.38 338.08 C 144.90 336.04 159.48 338.73 174.00 339.33 C 183.15 339.47 192.16 337.44 200.91 334.96 Z" />
<path fill="#b07507" opacity="1.00" d=" M 503.86 346.75 C 506.07 345.85 508.23 344.48 510.68 344.42 C 513.06 344.71 514.31 347.67 512.92 349.60 C 511.45 351.44 509.17 352.33 507.20 353.52 C 506.07 351.27 504.96 349.01 503.86 346.75 Z" />
<path fill="#b07507" opacity="1.00" d=" M 247.55 366.77 C 250.59 367.61 254.69 367.83 256.03 371.24 C 257.20 375.11 256.35 379.66 253.83 382.84 C 251.27 385.38 247.30 384.28 244.09 384.40 C 244.62 378.41 246.12 372.58 247.55 366.77 Z" />
</g>
</svg>
