<?xml version="1.0" encoding="UTF-8" ?>
<!DOCTYPE svg PUBLIC "-//W3C//DTD SVG 1.1//EN" "http://www.w3.org/Graphics/SVG/1.1/DTD/svg11.dtd">
<svg width="700pt" height="467pt" viewBox="0 0 700 467" version="1.1" xmlns="http://www.w3.org/2000/svg">
<g id="#ffffffff">
<path fill="#ffffff" opacity="1.00" d=" M 0.00 0.00 L 700.00 0.00 L 700.00 467.00 L 0.00 467.00 L 0.00 0.00 M 320.43 45.50 C 275.28 48.42 230.39 58.50 188.98 76.91 C 154.95 92.10 123.04 113.24 98.76 141.78 C 79.38 164.55 65.70 192.92 63.56 223.01 C 63.25 230.00 63.28 237.00 63.66 243.99 C 65.22 259.28 69.40 274.30 75.98 288.18 C 89.24 315.79 110.74 338.71 135.19 356.81 C 162.79 377.11 194.22 391.86 226.89 401.93 C 252.30 410.10 278.65 415.13 305.19 417.80 C 317.74 419.34 330.39 419.43 342.99 420.25 C 378.04 420.36 413.23 417.17 447.39 409.09 C 489.68 398.88 530.90 382.09 565.93 355.95 C 593.56 335.28 617.62 308.14 629.33 275.25 C 640.45 244.66 638.90 209.94 625.63 180.26 C 616.98 160.67 603.94 143.25 588.69 128.32 C 558.34 98.68 519.99 78.30 480.01 64.89 C 443.31 52.38 404.63 46.39 366.00 44.64 C 350.81 44.75 335.57 44.04 320.43 45.50 Z" />
</g>
<g id="#1e1816ff">
<path fill="#1e1816" opacity="1.00" d=" M 320.43 45.50 C 335.57 44.04 350.81 44.75 366.00 44.64 C 404.63 46.39 443.31 52.38 480.01 64.89 C 519.99 78.30 558.34 98.68 588.69 128.32 C 603.94 143.25 616.98 160.67 625.63 180.26 C 638.90 209.94 640.45 244.66 629.33 275.25 C 617.62 308.14 593.56 335.28 565.93 355.95 C 530.90 382.09 489.68 398.88 447.39 409.09 C 413.23 417.17 378.04 420.36 342.99 420.25 C 330.39 419.43 317.74 419.34 305.19 417.80 C 278.65 415.13 252.30 410.10 226.89 401.93 C 194.22 391.86 162.79 377.11 135.19 356.81 C 110.74 338.71 89.24 315.79 75.98 288.18 C 69.40 274.30 65.22 259.28 63.66 243.99 C 63.28 237.00 63.25 230.00 63.56 223.01 C 65.70 192.92 79.38 164.55 98.76 141.78 C 123.04 113.24 154.95 92.10 188.98 76.91 C 230.39 58.50 275.28 48.42 320.43 45.50 M 210.77 77.81 C 179.64 89.54 149.87 105.76 124.97 127.99 C 104.79 146.10 87.73 168.52 79.23 194.51 C 74.12 209.34 71.92 225.32 73.67 240.93 C 78.85 238.91 83.67 236.03 88.93 234.19 C 99.71 230.51 111.58 229.58 122.59 232.90 C 122.94 223.65 124.50 214.39 127.89 205.75 C 137.15 181.85 155.95 163.03 176.80 148.80 C 208.13 127.63 244.64 115.34 281.57 108.28 C 313.32 102.34 345.78 101.23 377.98 102.87 C 381.25 102.92 384.63 103.93 387.84 103.16 C 393.19 96.53 398.42 89.79 403.69 83.09 C 401.76 79.34 400.95 74.79 402.85 70.86 C 405.87 64.21 415.51 62.50 421.03 66.99 C 426.12 70.81 426.46 78.77 422.61 83.58 C 420.11 87.17 415.55 87.85 411.51 88.02 C 413.25 95.66 418.73 101.56 423.89 107.14 C 426.08 109.77 429.85 109.47 432.88 110.34 C 452.48 114.79 471.65 121.13 490.11 129.05 C 491.33 129.59 492.60 129.69 493.91 129.35 C 501.05 127.70 508.27 126.05 514.90 122.80 C 525.13 117.92 535.90 113.65 544.62 106.20 C 494.65 74.93 436.14 59.17 377.69 54.85 C 321.30 51.10 263.88 58.17 210.77 77.81 M 405.20 75.98 C 404.97 78.41 406.74 80.46 406.88 82.81 C 405.66 84.88 404.10 86.73 402.64 88.63 C 370.55 130.31 338.73 172.21 306.69 213.93 C 301.00 212.50 295.54 210.21 289.75 209.14 C 269.16 204.85 247.70 203.83 226.94 207.54 C 228.77 211.33 231.87 214.26 234.71 217.29 C 244.18 226.74 255.68 234.08 268.05 239.10 C 269.24 239.57 270.48 240.13 271.80 239.92 C 277.20 235.31 281.65 229.61 287.59 225.59 C 293.53 221.52 300.32 216.61 307.89 217.77 C 319.42 222.70 330.18 230.07 337.87 240.07 C 337.82 240.40 337.70 241.05 337.64 241.38 C 318.84 247.65 298.38 246.49 279.25 242.33 C 276.90 241.92 274.60 240.67 272.17 241.06 C 271.11 241.81 270.34 242.86 269.64 243.94 C 279.68 247.19 290.15 249.15 300.69 249.82 C 313.40 251.19 326.44 250.40 338.73 246.76 C 340.36 246.34 342.62 245.34 343.64 247.34 C 348.17 253.30 351.72 260.09 353.86 267.27 C 341.47 270.44 328.79 272.56 316.00 273.08 C 295.91 273.75 275.95 270.11 256.59 265.03 C 255.28 267.49 254.19 270.06 253.15 272.65 C 232.14 266.01 213.59 253.30 197.24 238.78 C 193.32 235.42 190.09 231.34 186.05 228.12 C 183.53 231.32 181.03 234.79 180.57 238.96 C 179.51 247.56 183.52 255.78 188.30 262.66 C 192.10 268.34 199.63 269.42 205.96 269.35 C 215.86 269.68 226.46 266.52 235.77 271.21 C 241.01 274.50 243.73 280.39 247.76 284.91 C 249.50 280.97 250.69 276.72 253.18 273.16 C 256.63 273.03 259.90 274.39 263.24 275.02 C 287.89 280.83 313.68 282.74 338.74 278.52 C 344.80 277.73 350.67 275.91 356.73 275.11 C 357.82 278.49 358.72 281.92 359.61 285.36 C 360.71 285.52 361.82 285.68 362.93 285.84 C 362.18 276.61 358.75 267.90 355.19 259.44 C 362.02 259.91 368.34 262.72 375.00 264.06 C 391.95 267.83 409.84 268.94 426.84 264.85 C 441.95 261.16 457.64 256.72 473.27 259.73 C 483.59 262.22 493.78 265.19 504.04 267.93 C 507.85 268.83 511.78 269.62 515.72 269.15 C 523.47 268.20 531.40 268.96 539.03 267.00 C 546.73 264.86 554.61 263.47 562.50 262.21 C 565.35 255.59 566.89 248.42 566.90 241.21 C 564.28 241.42 561.61 241.41 559.10 242.23 C 545.61 247.02 531.44 251.27 516.96 250.38 C 503.02 249.43 490.53 242.28 476.77 240.43 C 461.38 237.54 445.97 241.77 431.07 245.31 C 425.49 246.62 419.76 247.02 414.14 248.14 C 400.04 250.03 385.60 248.25 372.16 243.66 C 367.07 242.14 362.38 239.26 357.01 238.74 C 352.16 238.23 347.32 239.06 342.50 239.54 C 337.08 233.57 331.23 227.92 324.45 223.50 C 320.06 220.37 315.09 218.22 310.58 215.29 C 343.71 171.77 376.99 128.37 410.01 84.77 C 413.00 84.61 416.62 85.37 418.93 82.93 C 423.22 79.52 422.62 71.92 417.76 69.31 C 412.83 66.15 405.18 70.04 405.20 75.98 M 401.38 111.20 C 397.17 122.01 391.50 132.25 384.57 141.55 C 373.22 155.14 358.82 165.68 346.11 177.89 C 356.62 187.03 370.53 190.94 384.01 193.09 C 407.38 196.41 431.37 194.78 454.25 189.11 C 483.61 180.30 511.41 163.81 530.22 139.22 C 537.13 130.09 543.42 120.21 547.08 109.30 C 543.94 111.37 540.95 113.66 537.83 115.75 C 518.65 128.39 495.92 135.40 473.00 136.32 C 454.84 136.62 438.04 127.02 425.46 114.55 C 418.75 108.28 413.61 100.63 407.95 93.46 C 405.63 99.33 403.78 105.37 401.38 111.20 M 550.36 111.05 C 548.67 117.31 547.75 123.85 544.66 129.65 C 541.13 138.16 534.83 144.97 529.21 152.11 C 538.50 159.28 547.18 167.27 554.81 176.19 C 565.30 188.80 573.92 203.46 577.23 219.68 C 580.86 237.19 577.98 255.87 569.75 271.71 C 562.41 286.80 550.87 299.38 538.25 310.24 C 520.88 324.71 500.80 335.58 479.93 344.09 C 423.38 366.54 361.04 371.56 300.95 364.55 C 296.28 364.15 291.60 364.87 286.93 364.62 C 271.70 364.01 257.03 359.48 242.03 357.26 C 230.80 355.76 219.03 355.52 208.19 359.27 C 199.80 362.25 190.77 361.92 182.04 362.91 C 177.11 363.61 172.02 363.16 167.22 364.62 C 190.60 378.35 216.13 388.19 242.13 395.69 C 281.39 406.52 322.27 411.64 362.97 410.07 C 418.03 408.08 473.36 396.15 522.46 370.63 C 555.02 353.72 585.17 330.33 605.15 299.16 C 617.80 279.18 625.73 255.79 625.55 232.00 C 625.63 215.78 621.72 199.71 615.12 184.95 C 606.76 165.71 593.68 148.85 578.78 134.22 C 569.96 125.75 560.57 117.78 550.36 111.05 M 191.33 224.05 C 195.97 229.28 201.39 233.73 206.62 238.35 C 221.26 250.11 237.55 260.95 256.18 264.93 C 260.42 257.94 264.55 250.89 269.11 244.11 C 253.05 238.39 238.51 228.54 226.99 216.00 C 224.92 213.95 223.57 211.04 220.99 209.61 C 210.37 212.60 200.22 217.49 191.33 224.05 M 99.07 238.75 C 90.68 241.24 82.41 244.40 75.07 249.24 C 75.80 255.92 77.49 262.70 80.44 268.72 C 90.95 264.97 101.57 260.15 112.99 260.51 C 128.99 260.59 143.69 267.87 159.34 270.15 C 164.29 271.03 169.03 268.88 173.92 268.72 C 175.39 269.40 175.99 270.98 176.79 272.28 C 180.42 279.08 185.62 284.83 190.43 290.79 C 191.57 290.59 193.13 290.75 193.16 289.16 C 186.01 278.97 177.57 269.11 174.12 256.89 C 172.68 252.27 173.58 247.43 174.54 242.82 C 164.30 244.82 153.61 247.02 143.28 244.40 C 128.83 241.07 114.08 235.66 99.07 238.75 M 82.64 276.14 C 84.21 280.56 86.47 284.68 88.51 288.90 C 104.39 281.28 122.84 280.67 139.79 284.68 C 136.95 280.29 134.25 275.82 131.83 271.18 C 130.56 267.90 126.57 267.93 123.69 267.07 C 109.36 264.39 95.44 270.42 82.64 276.14 M 207.74 289.76 C 198.58 291.96 189.61 295.72 180.05 295.62 C 165.35 296.25 150.66 294.11 136.48 290.34 C 127.86 287.73 118.68 288.49 109.88 289.62 C 103.90 290.58 97.81 291.78 92.44 294.71 C 95.83 300.27 99.57 305.60 103.49 310.79 C 114.32 306.40 126.31 305.51 137.79 307.43 C 147.93 308.81 157.61 312.95 167.97 312.81 C 191.23 313.97 213.71 305.30 236.97 306.57 C 242.74 306.59 248.11 308.85 253.62 310.23 C 267.44 313.62 281.77 315.26 295.99 314.16 C 310.57 313.11 324.34 307.36 338.92 306.29 C 345.24 305.59 351.65 305.98 357.90 307.01 C 368.15 309.69 378.42 312.31 388.64 315.12 C 392.98 316.27 397.51 316.68 401.97 316.16 C 409.28 315.19 416.77 315.90 423.96 314.05 C 433.74 311.49 443.71 309.73 453.53 307.35 C 458.92 305.92 464.54 306.29 470.05 306.40 C 481.92 306.60 493.36 310.07 504.92 312.37 C 509.24 313.15 513.54 314.95 517.98 314.39 C 527.27 308.63 535.38 301.15 542.81 293.16 C 528.06 296.29 512.90 294.25 498.38 290.92 C 488.64 289.37 478.99 285.45 468.99 287.00 C 460.92 287.81 452.67 287.46 444.75 289.49 C 419.34 296.92 391.29 298.35 366.20 288.91 C 347.50 283.16 328.17 289.47 309.80 293.41 C 300.24 294.63 290.66 296.94 280.96 295.89 C 269.31 295.36 257.97 292.12 247.16 287.90 C 234.25 284.07 220.43 286.02 207.74 289.76 M 109.26 314.73 C 109.17 315.27 109.00 316.35 108.91 316.89 C 112.46 321.97 117.12 326.17 121.41 330.62 C 122.52 332.12 124.45 331.66 126.03 331.50 C 141.96 328.78 158.00 332.55 173.99 332.22 C 179.82 331.91 185.75 331.28 191.16 328.94 C 186.98 326.03 182.56 323.49 178.31 320.68 C 175.65 318.71 172.21 319.56 169.15 319.20 C 161.35 318.36 153.59 317.02 145.99 315.03 C 133.97 312.31 121.22 311.12 109.26 314.73 M 201.25 334.50 C 192.11 337.34 182.61 339.25 173.00 339.09 C 158.65 338.46 144.31 336.13 129.92 337.67 C 131.83 340.85 135.09 342.80 137.84 345.17 C 142.66 348.92 147.28 353.08 152.62 356.07 C 178.95 360.25 204.74 350.70 230.94 349.76 C 238.61 349.57 246.35 350.28 253.74 352.38 C 267.76 357.90 283.16 357.68 298.00 357.85 C 307.40 358.71 316.88 357.82 326.27 359.06 C 339.84 360.14 353.49 359.83 367.09 359.48 C 403.74 357.50 440.38 350.88 474.72 337.69 C 475.19 335.58 472.44 335.63 471.14 334.88 C 459.55 331.10 446.77 331.25 435.03 334.28 C 419.53 336.92 404.07 341.94 388.17 339.88 C 377.40 339.39 367.26 335.46 356.74 333.51 C 347.93 331.88 338.90 331.00 329.96 331.92 C 324.38 332.66 318.84 333.72 313.28 334.62 C 301.07 336.95 288.80 340.63 276.25 339.42 C 264.14 337.22 252.19 334.23 240.09 332.03 C 227.13 330.72 213.84 330.79 201.25 334.50 Z" />
<path fill="#1e1816" opacity="1.00" d=" M 354.19 63.36 C 355.97 63.39 357.75 63.44 359.53 63.50 C 359.62 72.22 359.77 80.94 359.71 89.67 C 357.91 89.68 356.12 89.67 354.33 89.65 C 354.32 85.82 354.37 81.98 354.26 78.15 C 351.01 77.89 347.76 77.80 344.51 77.95 C 344.29 81.84 344.47 85.73 344.61 89.62 C 342.64 89.75 340.66 89.85 338.70 89.94 C 338.44 81.18 338.31 72.40 338.43 63.63 C 340.37 63.58 342.32 63.56 344.28 63.59 C 344.34 66.99 344.26 70.38 344.28 73.77 C 347.56 73.72 350.85 73.68 354.14 73.68 C 354.29 70.24 354.18 66.80 354.19 63.36 Z" />
<path fill="#1e1816" opacity="1.00" d=" M 311.57 66.60 C 317.07 61.74 328.91 62.72 330.07 71.23 C 328.47 71.22 326.84 71.50 325.27 71.11 C 323.56 69.90 322.42 67.29 319.98 67.71 C 317.87 67.77 315.62 68.53 314.66 70.55 C 312.59 74.44 313.32 79.21 314.71 83.21 C 315.92 86.68 320.27 87.69 323.41 86.39 C 324.97 85.57 325.62 83.80 326.55 82.40 C 328.05 82.30 329.56 82.25 331.07 82.24 C 331.40 88.21 325.04 91.00 320.01 91.32 C 314.08 91.76 308.89 86.54 308.36 80.81 C 307.91 75.96 307.59 70.17 311.57 66.60 Z" />
<path fill="#1e1816" opacity="1.00" d=" M 366.47 63.48 C 373.50 63.49 380.47 64.53 387.50 64.53 C 387.50 65.50 387.50 67.44 387.50 68.41 C 384.82 68.39 382.16 68.34 379.49 68.34 C 379.56 75.73 378.68 83.09 378.55 90.47 C 376.79 90.44 375.04 90.41 373.29 90.39 C 372.98 82.81 373.89 75.24 373.74 67.66 C 371.32 67.63 368.91 67.57 366.49 67.50 C 366.49 66.49 366.48 64.48 366.47 63.48 Z" />
<path fill="#1e1816" opacity="1.00" d=" M 285.60 68.22 C 287.87 67.74 290.18 67.41 292.50 67.24 C 296.13 74.06 299.58 80.99 303.34 87.75 C 304.18 89.18 304.61 90.79 304.93 92.41 C 303.21 92.43 301.50 92.45 299.79 92.42 C 299.03 90.68 298.26 88.94 297.50 87.21 C 293.87 87.65 290.24 88.25 286.72 89.25 C 286.43 91.02 286.39 92.90 285.55 94.52 C 284.14 95.55 282.32 95.32 280.69 95.48 C 282.20 86.37 284.14 77.34 285.60 68.22 M 289.69 73.80 C 288.93 77.16 288.45 80.56 288.14 83.99 C 290.35 83.78 292.55 83.52 294.75 83.17 C 293.29 79.95 292.19 76.41 289.69 73.80 Z" />
<path fill="#1e1816" opacity="1.00" d=" M 267.17 71.53 C 268.95 71.10 270.75 70.69 272.55 70.31 C 272.65 79.25 272.42 88.19 272.34 97.13 C 270.21 97.70 268.09 98.27 265.94 98.73 C 262.77 92.81 260.32 86.49 256.66 80.85 C 256.21 87.23 256.65 93.64 256.24 100.02 C 255.12 102.25 252.01 101.74 249.97 102.47 C 247.02 96.91 244.34 91.20 241.43 85.61 C 240.12 83.05 238.50 80.54 238.18 77.62 C 240.06 77.44 241.94 77.29 243.83 77.15 C 246.93 83.01 248.64 89.54 252.26 95.11 C 252.49 88.34 252.44 81.57 252.47 74.80 C 254.56 74.73 257.69 72.39 259.02 74.90 C 262.02 80.50 264.35 86.46 267.49 92.00 C 267.42 85.18 267.28 78.35 267.17 71.53 Z" />
<path fill="#1e1816" opacity="1.00" d=" M 211.70 87.71 C 216.03 85.89 220.42 84.11 225.01 83.04 C 228.09 82.18 232.18 83.78 232.81 87.19 C 233.97 89.64 232.45 92.06 231.33 94.18 C 235.89 96.17 237.21 101.31 239.70 105.17 C 237.83 106.09 235.84 106.77 233.74 106.82 C 232.48 104.03 231.20 101.26 229.93 98.48 C 227.41 98.63 224.88 99.07 222.59 100.17 C 223.19 103.69 224.88 106.92 225.96 110.31 C 224.28 111.21 222.44 111.74 220.55 111.95 C 217.71 103.83 214.67 95.78 211.70 87.71 M 219.75 88.91 C 218.20 91.03 220.21 93.66 220.52 95.93 C 223.19 95.63 226.23 95.09 227.82 92.65 C 228.07 90.88 227.75 88.55 225.87 87.78 C 223.77 87.53 221.67 88.12 219.75 88.91 Z" />
<path fill="#1e1816" opacity="1.00" d=" M 187.93 97.21 C 193.01 94.91 198.10 92.59 203.22 90.37 C 203.69 91.71 205.45 93.10 204.72 94.58 C 201.71 96.50 198.24 97.54 195.07 99.17 C 195.74 100.95 196.45 102.72 197.16 104.49 C 200.64 103.40 203.98 101.89 207.25 100.28 C 207.78 101.58 208.30 102.88 208.81 104.19 C 205.60 105.75 202.31 107.13 199.03 108.55 C 199.77 110.73 200.78 112.80 201.90 114.81 C 205.60 113.32 209.19 111.58 212.94 110.24 C 213.50 111.52 214.02 112.83 214.50 114.16 C 209.35 116.79 204.00 118.97 198.75 121.39 C 194.78 113.52 190.92 105.51 187.93 97.21 Z" />
<path fill="#1e1816" opacity="1.00" d=" M 164.83 110.87 C 167.53 107.44 171.99 104.43 176.54 105.52 C 178.45 105.92 179.54 107.71 180.83 109.00 C 179.04 110.46 176.93 111.29 174.73 110.20 C 172.27 108.87 169.90 110.50 168.42 112.46 C 168.04 113.91 168.91 115.29 169.25 116.66 C 174.72 117.25 180.04 114.37 185.46 115.65 C 188.63 117.74 190.39 122.59 187.91 125.85 C 184.92 129.75 180.29 133.39 175.10 132.73 C 172.63 132.61 171.19 130.34 169.50 128.87 C 170.59 127.85 171.56 126.54 173.08 126.17 C 175.12 126.24 176.75 128.06 178.86 127.90 C 180.69 127.89 182.07 126.52 183.53 125.62 C 183.64 124.11 183.70 122.61 183.73 121.11 C 178.80 119.34 174.01 122.21 169.10 122.27 C 163.98 121.57 161.77 114.81 164.83 110.87 Z" />
<path fill="#1e1816" opacity="1.00" d=" M 141.64 126.57 C 143.75 123.45 147.16 121.02 150.98 120.66 C 153.42 120.65 155.31 122.39 157.00 123.92 C 155.93 124.66 155.21 126.18 153.86 126.39 C 151.67 126.01 149.20 124.43 147.18 126.14 C 144.98 127.23 145.09 129.77 145.13 131.85 C 150.99 134.00 156.63 128.58 162.54 130.53 C 165.06 132.04 166.66 135.07 166.45 138.01 C 164.80 143.19 160.11 147.05 154.93 148.42 C 151.87 148.97 149.40 146.57 147.10 144.94 C 148.35 143.65 149.65 142.40 150.95 141.17 C 153.09 142.06 155.35 144.09 157.77 142.84 C 159.98 142.28 160.57 139.83 161.56 138.09 C 161.21 137.46 160.51 136.19 160.16 135.55 C 154.64 134.57 149.75 139.72 144.29 137.76 C 139.86 136.10 139.28 130.16 141.64 126.57 Z" />
<path fill="#1e1816" opacity="1.00" d=" M 413.09 142.58 C 416.56 138.01 419.50 133.08 422.97 128.52 C 427.93 131.79 432.86 135.13 437.52 138.81 C 434.08 143.56 430.23 148.02 427.12 152.99 C 431.85 156.37 436.99 159.16 441.49 162.87 C 438.18 167.59 434.90 172.34 431.63 177.10 C 426.44 174.34 422.08 170.32 417.15 167.16 C 413.76 171.50 410.89 176.23 407.45 180.53 C 407.13 180.57 406.48 180.66 406.16 180.71 C 401.65 177.88 397.55 174.47 393.08 171.59 C 396.07 166.61 399.94 162.21 402.79 157.14 C 398.19 153.96 393.56 150.82 388.96 147.64 C 391.45 142.36 395.31 137.91 398.41 133.00 C 403.59 135.73 408.10 139.53 413.09 142.58 Z" />
<path fill="#1e1816" opacity="1.00" d=" M 569.06 140.10 C 570.01 139.25 571.00 138.44 572.04 137.68 C 576.55 142.06 581.04 146.50 585.28 151.14 C 585.05 152.92 583.15 154.06 581.78 155.03 C 574.84 156.18 567.80 156.54 560.85 157.58 C 563.60 160.90 566.89 163.71 569.72 166.96 C 568.81 167.84 567.90 168.72 567.00 169.60 C 562.53 165.10 557.92 160.73 553.74 155.97 C 555.12 154.72 556.13 152.64 558.19 152.48 C 564.83 151.44 571.58 151.33 578.25 150.39 C 575.72 146.49 571.74 143.87 569.06 140.10 Z" />
<path fill="#1e1816" opacity="1.00" d=" M 118.69 147.85 C 120.06 146.07 121.51 144.37 123.00 142.71 C 130.32 145.29 137.42 148.44 144.68 151.18 C 145.86 151.76 147.36 151.97 148.19 153.09 C 147.66 154.75 146.17 155.82 145.07 157.09 C 143.16 156.47 141.25 155.84 139.33 155.24 C 137.31 157.60 134.95 159.69 133.13 162.22 C 133.14 164.30 134.51 166.06 135.02 168.04 C 134.75 169.69 133.17 170.57 132.12 171.70 C 127.41 163.88 123.16 155.80 118.69 147.85 M 124.94 149.15 C 126.39 152.24 127.86 155.40 130.08 158.04 C 132.17 157.19 133.44 155.15 135.06 153.67 C 131.89 151.74 128.45 150.31 124.94 149.15 Z" />
<path fill="#1e1816" opacity="1.00" d=" M 103.38 166.03 C 104.17 164.35 104.97 162.69 105.81 161.04 C 112.29 166.24 118.37 171.92 124.65 177.35 C 127.52 179.35 124.02 182.43 123.22 184.71 C 116.81 183.15 110.52 181.03 104.00 179.97 C 108.42 184.71 113.74 188.47 118.21 193.15 C 118.48 195.16 116.79 196.90 116.19 198.77 C 107.28 197.27 98.54 194.89 89.70 193.05 C 90.45 191.21 91.25 189.39 92.05 187.58 C 98.73 189.16 105.18 191.66 111.94 192.94 C 106.86 188.24 101.14 184.23 96.37 179.19 C 97.31 177.58 98.20 175.94 99.04 174.27 C 105.79 175.07 112.24 177.45 118.93 178.60 C 114.03 174.07 108.37 170.46 103.38 166.03 Z" />
<path fill="#1e1816" opacity="1.00" d=" M 582.78 163.66 C 585.45 162.15 588.69 160.46 591.78 161.84 C 596.12 163.99 598.96 168.44 600.27 172.99 C 601.33 177.42 597.83 181.22 594.37 183.40 C 590.00 185.92 585.84 188.81 581.30 191.02 C 580.32 189.61 579.36 188.20 578.40 186.78 C 583.13 182.91 588.77 180.37 593.60 176.65 C 598.32 173.24 592.40 164.27 587.40 167.29 C 582.13 170.01 577.45 173.77 572.14 176.43 C 571.18 174.94 570.23 173.45 569.30 171.95 C 573.72 169.07 578.26 166.38 582.78 163.66 Z" />
<path fill="#1e1816" opacity="1.00" d=" M 603.40 186.96 C 604.85 186.59 606.33 186.27 607.82 186.03 C 609.90 191.41 611.70 196.90 613.81 202.27 C 605.77 205.97 597.23 208.42 588.98 211.58 C 587.28 206.36 585.01 201.33 583.51 196.04 C 583.42 193.93 586.14 194.50 587.49 194.11 C 588.69 197.71 589.85 201.35 591.62 204.72 C 593.38 203.99 595.14 203.26 596.90 202.52 C 595.82 199.00 594.45 195.57 593.51 192.00 C 594.86 191.67 596.22 191.36 597.59 191.10 C 598.66 194.43 599.81 197.74 601.14 200.97 C 603.41 200.32 605.58 199.36 607.66 198.22 C 606.05 194.54 604.50 190.83 603.40 186.96 Z" />
<path fill="#1e1816" opacity="1.00" d=" M 601.97 217.55 C 604.78 212.82 610.68 212.87 615.37 211.42 C 615.43 213.40 615.48 215.39 615.49 217.38 C 612.49 218.00 609.27 218.10 606.56 219.61 C 604.78 221.64 606.21 224.47 606.28 226.83 C 609.77 226.61 613.25 226.18 616.75 226.10 C 617.09 227.84 617.37 229.60 617.63 231.37 C 609.70 233.15 601.46 233.09 593.39 233.97 C 595.64 238.40 599.13 242.01 602.13 245.93 C 607.61 243.86 612.83 241.12 618.44 239.38 C 618.04 241.23 617.68 243.11 617.10 244.93 C 612.62 247.57 607.50 248.88 602.69 250.79 C 602.67 250.96 602.63 251.31 602.61 251.48 C 606.64 252.80 610.93 253.14 614.90 254.69 C 614.62 256.29 614.34 257.90 614.07 259.51 C 605.34 258.44 596.89 255.80 588.29 254.03 C 588.58 252.14 589.07 250.29 589.72 248.49 C 593.08 249.47 596.48 250.35 599.96 250.78 C 597.49 247.25 594.17 244.42 591.70 240.90 C 592.35 232.86 588.55 224.76 590.87 216.78 C 592.67 213.62 596.69 214.30 599.74 214.24 C 600.50 215.32 601.24 216.44 601.97 217.55 M 594.65 221.09 C 593.99 223.47 594.39 225.97 594.49 228.40 C 596.91 228.23 599.33 227.99 601.75 227.70 C 601.46 225.52 601.69 223.17 600.75 221.14 C 599.86 218.65 595.95 219.26 594.65 221.09 Z" />
<path fill="#1e1816" opacity="1.00" d=" M 582.56 270.49 C 584.64 268.68 587.54 269.75 589.99 269.92 C 589.49 271.97 588.79 274.81 586.05 274.41 C 582.32 273.98 581.05 278.25 581.41 281.23 C 582.09 281.56 583.45 282.23 584.12 282.56 C 589.10 280.63 592.06 275.52 597.15 273.93 C 599.95 274.17 602.84 275.57 604.24 278.11 C 605.32 281.10 604.61 284.40 603.07 287.09 C 601.54 289.81 599.92 292.98 596.77 294.06 C 594.57 295.02 592.28 294.00 590.23 293.19 C 590.81 291.65 591.43 290.13 592.06 288.62 C 593.88 288.57 595.73 288.80 597.54 288.44 C 600.48 286.51 601.13 282.28 598.93 279.52 C 593.80 280.54 590.88 285.29 586.53 287.71 C 583.83 289.42 580.17 287.80 578.70 285.23 C 575.94 280.30 578.20 273.71 582.56 270.49 Z" />
<path fill="#1e1816" opacity="1.00" d=" M 561.09 300.87 C 564.36 296.05 568.23 291.68 571.99 287.24 C 572.93 288.32 574.99 288.97 574.69 290.74 C 572.84 293.68 569.70 295.72 568.22 298.88 C 569.29 300.63 571.11 301.70 572.71 302.92 C 574.85 300.18 577.07 297.50 579.20 294.75 C 580.39 295.49 581.56 296.25 582.74 297.02 C 580.98 300.02 578.46 302.45 576.42 305.24 C 576.50 307.64 579.75 308.24 581.19 309.81 C 583.89 306.82 586.34 303.62 588.99 300.59 C 590.10 301.45 591.18 302.35 592.25 303.28 C 589.05 308.25 585.15 312.76 581.11 317.06 C 574.53 311.55 567.69 306.35 561.09 300.87 Z" />
<path fill="#1e1816" opacity="1.00" d=" M 542.36 317.94 C 547.67 313.11 552.91 308.14 558.65 303.82 C 559.38 304.86 560.08 305.93 560.75 307.03 C 558.95 308.75 557.11 310.42 555.29 312.11 C 560.10 317.52 565.14 322.72 570.01 328.07 C 568.72 329.38 567.45 330.73 565.99 331.85 C 560.33 327.28 556.34 320.93 551.06 315.91 C 549.04 317.52 547.10 319.24 545.04 320.81 C 544.14 319.85 543.24 318.89 542.36 317.94 Z" />
<path fill="#1e1816" opacity="1.00" d=" M 532.44 324.68 C 535.93 323.85 539.92 323.80 542.89 326.11 C 546.66 329.01 549.45 333.35 550.26 338.06 C 550.78 347.00 539.13 354.95 531.34 349.64 C 525.79 346.09 521.80 338.75 524.27 332.22 C 525.52 328.56 528.70 325.64 532.44 324.68 M 532.30 329.11 C 529.77 330.27 527.52 333.10 528.70 336.00 C 530.17 340.10 532.80 344.03 536.59 346.31 C 541.60 348.44 546.56 342.38 544.25 337.70 C 542.40 333.12 538.03 326.64 532.30 329.11 Z" />
<path fill="#1e1816" opacity="1.00" d=" M 507.93 340.00 C 510.64 338.61 514.71 338.63 516.47 341.51 C 518.66 344.00 517.83 347.58 516.41 350.24 C 521.72 350.67 523.79 356.20 526.47 359.98 C 524.67 360.85 522.86 361.71 521.03 362.51 C 519.16 359.83 517.67 356.88 515.60 354.35 C 512.93 354.00 510.71 355.84 508.47 356.97 C 510.00 360.13 511.67 363.21 513.38 366.28 C 511.77 367.27 510.11 368.18 508.39 368.95 C 504.38 361.23 500.33 353.54 496.42 345.77 C 500.19 343.72 504.11 341.97 507.93 340.00 M 503.36 346.84 C 504.37 348.91 505.38 350.98 506.39 353.07 C 508.65 352.34 511.03 351.44 512.52 349.47 C 513.03 347.90 512.52 346.23 512.44 344.64 C 509.14 343.61 506.03 344.97 503.36 346.84 Z" />
<path fill="#1e1816" opacity="1.00" d=" M 467.92 356.90 C 470.80 354.32 474.93 353.73 478.63 354.39 C 480.90 354.98 481.89 357.34 483.00 359.17 C 480.97 360.27 478.63 361.26 476.97 359.06 C 474.04 355.93 466.88 360.74 470.65 364.22 C 474.81 365.69 479.33 364.91 483.63 365.52 C 488.22 366.36 489.80 372.79 487.36 376.35 C 484.11 380.07 478.98 381.96 474.09 381.70 C 470.77 381.57 468.38 378.50 468.03 375.37 C 469.56 374.89 471.11 374.46 472.68 374.08 C 474.30 375.60 475.95 378.36 478.58 377.48 C 480.59 376.73 482.78 375.21 483.29 373.02 C 482.61 369.65 478.50 370.40 475.97 370.23 C 472.07 370.13 466.57 370.25 464.98 365.82 C 463.42 362.57 465.32 358.95 467.92 356.90 Z" />
<path fill="#1e1816" opacity="1.00" d=" M 243.21 361.17 C 249.41 362.53 257.12 363.20 260.53 369.41 C 264.15 376.87 259.98 388.21 251.02 389.17 C 246.04 389.30 241.28 387.45 236.56 386.11 C 238.74 377.78 240.70 369.40 243.21 361.17 M 247.17 367.03 C 245.41 372.51 244.30 378.18 243.21 383.82 C 246.39 384.41 250.35 385.47 252.99 382.94 C 255.96 379.64 256.43 374.67 255.37 370.53 C 253.63 368.14 249.90 366.09 247.17 367.03 Z" />
<path fill="#1e1816" opacity="1.00" d=" M 439.54 364.98 C 445.26 363.71 450.92 362.11 456.70 361.13 C 456.88 362.42 457.04 363.72 457.19 365.03 C 453.59 365.91 450.03 366.89 446.47 367.88 C 447.04 369.78 446.60 372.58 448.34 373.83 C 451.73 373.54 454.96 372.36 458.25 371.53 C 458.48 372.92 458.71 374.32 458.93 375.72 C 455.76 376.59 452.55 377.32 449.31 377.88 C 449.30 380.23 449.75 382.55 450.67 384.73 C 454.56 383.58 458.47 382.38 462.55 382.10 C 462.62 383.52 462.69 384.95 462.73 386.38 C 457.12 387.65 451.58 389.21 445.99 390.56 C 443.75 382.06 441.37 373.58 439.54 364.98 Z" />
<path fill="#1e1816" opacity="1.00" d=" M 426.75 368.00 C 428.57 367.77 430.40 367.56 432.23 367.38 C 433.32 373.99 434.34 380.62 435.59 387.20 C 435.97 389.28 436.39 391.43 435.99 393.55 C 434.43 393.61 432.87 393.66 431.32 393.68 C 430.63 389.96 430.03 386.21 429.12 382.54 C 425.83 383.04 422.53 383.58 419.34 384.55 C 420.02 388.32 420.70 392.10 420.94 395.93 C 419.22 396.16 417.50 396.37 415.78 396.56 C 414.04 388.00 412.70 379.36 411.32 370.73 C 413.13 370.52 414.96 370.34 416.79 370.19 C 417.46 373.45 418.01 376.74 418.56 380.03 C 421.93 379.83 425.28 379.28 428.49 378.19 C 427.66 374.84 427.14 371.42 426.75 368.00 Z" />
<path fill="#1e1816" opacity="1.00" d=" M 271.84 368.47 C 277.52 368.91 283.07 370.24 288.69 371.14 C 288.69 372.38 288.69 373.62 288.70 374.87 C 284.68 374.87 280.70 374.22 276.78 373.38 C 276.27 375.46 275.91 377.57 275.78 379.72 C 279.14 380.29 282.52 380.72 285.88 381.35 C 285.68 382.73 285.49 384.12 285.28 385.52 C 281.74 384.74 278.18 383.96 274.53 383.92 C 274.38 386.18 274.23 388.45 274.17 390.72 C 277.99 391.30 281.86 391.62 285.58 392.75 C 285.29 394.14 285.01 395.54 284.71 396.94 C 278.89 396.39 273.24 394.78 267.44 394.08 C 268.11 385.44 270.56 377.04 271.84 368.47 Z" />
<path fill="#1e1816" opacity="1.00" d=" M 295.30 392.05 C 295.21 385.44 296.11 378.87 296.82 372.32 C 298.52 372.50 300.21 372.70 301.91 372.94 C 301.93 379.33 300.74 385.65 300.66 392.02 C 301.40 395.95 306.40 396.12 309.54 395.45 C 311.73 394.39 311.90 391.69 312.24 389.59 C 312.70 384.49 313.22 379.41 313.97 374.35 C 315.68 374.39 317.39 374.45 319.11 374.52 C 319.16 378.37 318.39 382.17 318.09 386.00 C 317.57 390.06 317.59 394.56 314.94 397.95 C 310.68 401.12 304.76 400.64 300.02 398.86 C 297.22 397.81 295.19 395.09 295.30 392.05 Z" />
<path fill="#1e1816" opacity="1.00" d=" M 386.24 375.22 C 389.51 372.58 394.02 372.12 398.05 372.73 C 401.54 373.23 403.90 376.47 404.34 379.81 C 402.27 379.80 399.81 380.50 398.46 378.44 C 395.76 374.48 389.05 376.70 388.39 381.19 C 387.87 385.35 387.66 390.10 390.39 393.60 C 392.04 396.16 395.68 396.15 398.21 395.09 C 399.80 393.94 400.66 392.10 401.80 390.56 C 402.78 390.59 404.75 390.64 405.74 390.67 C 406.24 395.42 401.89 398.72 397.63 399.40 C 393.73 399.96 388.99 400.13 386.04 397.04 C 383.68 393.89 382.98 389.83 382.63 386.00 C 382.24 382.14 383.25 377.88 386.24 375.22 Z" />
<path fill="#1e1816" opacity="1.00" d=" M 360.61 375.25 C 365.87 373.39 373.27 375.72 373.54 382.12 C 372.07 382.21 370.60 382.25 369.14 382.25 C 367.81 380.59 366.59 377.96 364.03 378.46 C 361.37 377.96 357.86 381.21 360.29 383.55 C 364.34 386.60 370.22 386.23 373.88 389.98 C 375.49 392.30 375.68 395.73 373.99 398.10 C 371.75 400.64 368.30 401.79 364.98 401.79 C 362.01 401.82 358.50 402.08 356.23 399.78 C 354.37 398.20 354.24 395.65 353.99 393.41 C 355.78 393.38 357.57 393.36 359.37 393.38 C 359.80 394.71 360.25 396.04 360.69 397.38 C 363.83 398.78 369.54 398.76 369.35 394.07 C 366.34 388.84 358.23 391.22 354.94 386.17 C 352.65 381.72 355.70 376.01 360.61 375.25 Z" />
<path fill="#1e1816" opacity="1.00" d=" M 326.79 375.73 C 333.91 375.49 341.04 375.78 348.17 375.87 C 348.21 377.33 348.24 378.79 348.26 380.25 C 345.58 380.25 342.90 380.19 340.23 380.20 C 340.37 387.41 339.55 394.58 339.68 401.79 C 337.89 401.80 336.10 401.79 334.32 401.76 C 334.21 394.54 334.72 387.33 334.51 380.12 C 332.02 380.10 329.54 380.01 327.06 379.84 C 326.95 378.47 326.86 377.10 326.79 375.73 Z" />
</g>
<g id="#d6cfc5ff">
<path fill="#d6cfc5" opacity="1.00" d=" M 210.77 77.81 C 263.88 58.17 321.30 51.10 377.69 54.85 C 436.14 59.17 494.65 74.93 544.62 106.20 C 535.90 113.65 525.13 117.92 514.90 122.80 C 508.27 126.05 501.05 127.70 493.91 129.35 C 492.60 129.69 491.33 129.59 490.11 129.05 C 471.65 121.13 452.48 114.79 432.88 110.34 C 429.85 109.47 426.08 109.77 423.89 107.14 C 418.73 101.56 413.25 95.66 411.51 88.02 C 415.55 87.85 420.11 87.17 422.61 83.58 C 426.46 78.77 426.12 70.81 421.03 66.99 C 415.51 62.50 405.87 64.21 402.85 70.86 C 400.95 74.79 401.76 79.34 403.69 83.09 C 398.42 89.79 393.19 96.53 387.84 103.16 C 384.63 103.93 381.25 102.92 377.98 102.87 C 345.78 101.23 313.32 102.34 281.57 108.28 C 244.64 115.34 208.13 127.63 176.80 148.80 C 155.95 163.03 137.15 181.85 127.89 205.75 C 124.50 214.39 122.94 223.65 122.59 232.90 C 111.58 229.58 99.71 230.51 88.93 234.19 C 83.67 236.03 78.85 238.91 73.67 240.93 C 71.92 225.32 74.12 209.34 79.23 194.51 C 87.73 168.52 104.79 146.10 124.97 127.99 C 149.87 105.76 179.64 89.54 210.77 77.81 M 354.19 63.36 C 354.18 66.80 354.29 70.24 354.14 73.68 C 350.85 73.68 347.56 73.72 344.28 73.77 C 344.26 70.38 344.34 66.99 344.28 63.59 C 342.32 63.56 340.37 63.58 338.43 63.63 C 338.31 72.40 338.44 81.18 338.70 89.94 C 340.66 89.85 342.64 89.75 344.61 89.62 C 344.47 85.73 344.29 81.84 344.51 77.95 C 347.76 77.80 351.01 77.89 354.26 78.15 C 354.37 81.98 354.32 85.82 354.33 89.65 C 356.12 89.67 357.91 89.68 359.71 89.67 C 359.77 80.94 359.62 72.22 359.53 63.50 C 357.75 63.44 355.97 63.39 354.19 63.36 M 311.57 66.60 C 307.59 70.17 307.91 75.96 308.36 80.81 C 308.89 86.54 314.08 91.76 320.01 91.32 C 325.04 91.00 331.40 88.21 331.07 82.24 C 329.56 82.25 328.05 82.30 326.55 82.40 C 325.62 83.80 324.97 85.57 323.41 86.39 C 320.27 87.69 315.92 86.68 314.71 83.21 C 313.32 79.21 312.59 74.44 314.66 70.55 C 315.62 68.53 317.87 67.77 319.98 67.71 C 322.42 67.29 323.56 69.90 325.27 71.11 C 326.84 71.50 328.47 71.22 330.07 71.23 C 328.91 62.72 317.07 61.74 311.57 66.60 M 366.47 63.48 C 366.48 64.48 366.49 66.49 366.49 67.50 C 368.91 67.57 371.32 67.63 373.74 67.66 C 373.89 75.24 372.98 82.81 373.29 90.39 C 375.04 90.41 376.79 90.44 378.55 90.47 C 378.68 83.09 379.56 75.73 379.49 68.34 C 382.16 68.34 384.82 68.39 387.50 68.41 C 387.50 67.44 387.50 65.50 387.50 64.53 C 380.47 64.53 373.50 63.49 366.47 63.48 M 285.60 68.22 C 284.14 77.34 282.20 86.37 280.69 95.48 C 282.32 95.32 284.14 95.55 285.55 94.52 C 286.39 92.90 286.43 91.02 286.72 89.25 C 290.24 88.25 293.87 87.65 297.50 87.21 C 298.26 88.94 299.03 90.68 299.79 92.42 C 301.50 92.45 303.21 92.43 304.93 92.41 C 304.61 90.79 304.18 89.18 303.34 87.75 C 299.58 80.99 296.13 74.06 292.50 67.24 C 290.18 67.41 287.87 67.74 285.60 68.22 M 267.17 71.53 C 267.28 78.35 267.42 85.18 267.49 92.00 C 264.35 86.46 262.02 80.50 259.02 74.90 C 257.69 72.39 254.56 74.73 252.47 74.80 C 252.44 81.57 252.49 88.34 252.26 95.11 C 248.64 89.54 246.93 83.01 243.83 77.15 C 241.94 77.29 240.06 77.44 238.18 77.62 C 238.50 80.54 240.12 83.05 241.43 85.61 C 244.34 91.20 247.02 96.91 249.97 102.47 C 252.01 101.74 255.12 102.25 256.24 100.02 C 256.65 93.64 256.21 87.23 256.66 80.85 C 260.32 86.49 262.77 92.81 265.94 98.73 C 268.09 98.27 270.21 97.70 272.34 97.13 C 272.42 88.19 272.65 79.25 272.55 70.31 C 270.75 70.69 268.95 71.10 267.17 71.53 M 211.70 87.71 C 214.67 95.78 217.71 103.83 220.55 111.95 C 222.44 111.74 224.28 111.21 225.96 110.31 C 224.88 106.92 223.19 103.69 222.59 100.17 C 224.88 99.07 227.41 98.63 229.93 98.48 C 231.20 101.26 232.48 104.03 233.74 106.82 C 235.84 106.77 237.83 106.09 239.70 105.17 C 237.21 101.31 235.89 96.17 231.33 94.18 C 232.45 92.06 233.97 89.64 232.81 87.19 C 232.18 83.78 228.09 82.18 225.01 83.04 C 220.42 84.11 216.03 85.89 211.70 87.71 M 187.93 97.21 C 190.92 105.51 194.78 113.52 198.75 121.39 C 204.00 118.97 209.35 116.79 214.50 114.16 C 214.02 112.83 213.50 111.52 212.94 110.24 C 209.19 111.58 205.60 113.32 201.90 114.81 C 200.78 112.80 199.77 110.73 199.03 108.55 C 202.31 107.13 205.60 105.75 208.81 104.19 C 208.30 102.88 207.78 101.58 207.25 100.28 C 203.98 101.89 200.64 103.40 197.16 104.49 C 196.45 102.72 195.74 100.95 195.07 99.17 C 198.24 97.54 201.71 96.50 204.72 94.58 C 205.45 93.10 203.69 91.71 203.22 90.37 C 198.10 92.59 193.01 94.91 187.93 97.21 M 164.83 110.87 C 161.77 114.81 163.98 121.57 169.10 122.27 C 174.01 122.21 178.80 119.34 183.73 121.11 C 183.70 122.61 183.64 124.11 183.53 125.62 C 182.07 126.52 180.69 127.89 178.86 127.90 C 176.75 128.06 175.12 126.24 173.08 126.17 C 171.56 126.54 170.59 127.85 169.50 128.87 C 171.19 130.34 172.63 132.61 175.10 132.73 C 180.29 133.39 184.92 129.75 187.91 125.85 C 190.39 122.59 188.63 117.74 185.46 115.65 C 180.04 114.37 174.72 117.25 169.25 116.66 C 168.91 115.29 168.04 113.91 168.42 112.46 C 169.90 110.50 172.27 108.87 174.73 110.20 C 176.93 111.29 179.04 110.46 180.83 109.00 C 179.54 107.71 178.45 105.92 176.54 105.52 C 171.99 104.43 167.53 107.44 164.83 110.87 M 141.64 126.57 C 139.28 130.16 139.86 136.10 144.29 137.76 C 149.75 139.72 154.64 134.57 160.16 135.55 C 160.51 136.19 161.21 137.46 161.56 138.09 C 160.57 139.83 159.98 142.28 157.77 142.84 C 155.35 144.09 153.09 142.06 150.95 141.17 C 149.65 142.40 148.35 143.65 147.10 144.94 C 149.40 146.57 151.87 148.97 154.93 148.42 C 160.11 147.05 164.80 143.19 166.45 138.01 C 166.66 135.07 165.06 132.04 162.54 130.53 C 156.63 128.58 150.99 134.00 145.13 131.85 C 145.09 129.77 144.98 127.23 147.18 126.14 C 149.20 124.43 151.67 126.01 153.86 126.39 C 155.21 126.18 155.93 124.66 157.00 123.92 C 155.31 122.39 153.42 120.65 150.98 120.66 C 147.16 121.02 143.75 123.45 141.64 126.57 M 118.69 147.85 C 123.16 155.80 127.41 163.88 132.12 171.70 C 133.17 170.57 134.75 169.69 135.02 168.04 C 134.51 166.06 133.14 164.30 133.13 162.22 C 134.95 159.69 137.31 157.60 139.33 155.24 C 141.25 155.84 143.16 156.47 145.07 157.09 C 146.17 155.82 147.66 154.75 148.19 153.09 C 147.36 151.97 145.86 151.76 144.68 151.18 C 137.42 148.44 130.32 145.29 123.00 142.71 C 121.51 144.37 120.06 146.07 118.69 147.85 M 103.38 166.03 C 108.37 170.46 114.03 174.07 118.93 178.60 C 112.24 177.45 105.79 175.07 99.04 174.27 C 98.20 175.94 97.31 177.58 96.37 179.19 C 101.14 184.23 106.86 188.24 111.94 192.94 C 105.18 191.66 98.73 189.16 92.05 187.58 C 91.25 189.39 90.45 191.21 89.70 193.05 C 98.54 194.89 107.28 197.27 116.19 198.77 C 116.79 196.90 118.48 195.16 118.21 193.15 C 113.74 188.47 108.42 184.71 104.00 179.97 C 110.52 181.03 116.81 183.15 123.22 184.71 C 124.02 182.43 127.52 179.35 124.65 177.35 C 118.37 171.92 112.29 166.24 105.81 161.04 C 104.97 162.69 104.17 164.35 103.38 166.03 Z" />
<path fill="#d6cfc5" opacity="1.00" d=" M 405.20 75.98 C 405.18 70.04 412.83 66.15 417.76 69.31 C 422.62 71.92 423.22 79.52 418.93 82.93 C 416.62 85.37 413.00 84.61 410.01 84.77 C 376.99 128.37 343.71 171.77 310.58 215.29 C 315.09 218.22 320.06 220.37 324.45 223.50 C 331.23 227.92 337.08 233.57 342.50 239.54 C 347.32 239.06 352.16 238.23 357.01 238.74 C 362.38 239.26 367.07 242.14 372.16 243.66 C 385.60 248.25 400.04 250.03 414.14 248.14 C 419.76 247.02 425.49 246.62 431.07 245.31 C 445.97 241.77 461.38 237.54 476.77 240.43 C 490.53 242.28 503.02 249.43 516.96 250.38 C 531.44 251.27 545.61 247.02 559.10 242.23 C 561.61 241.41 564.28 241.42 566.90 241.21 C 566.89 248.42 565.35 255.59 562.50 262.21 C 554.61 263.47 546.73 264.86 539.03 267.00 C 531.40 268.96 523.47 268.20 515.72 269.15 C 511.78 269.62 507.85 268.83 504.04 267.93 C 493.78 265.19 483.59 262.22 473.27 259.73 C 457.64 256.72 441.95 261.16 426.84 264.85 C 409.84 268.94 391.95 267.83 375.00 264.06 C 368.34 262.72 362.02 259.91 355.19 259.44 C 358.75 267.90 362.18 276.61 362.93 285.84 C 361.82 285.68 360.71 285.52 359.61 285.36 C 358.72 281.92 357.82 278.49 356.73 275.11 C 350.67 275.91 344.80 277.73 338.74 278.52 C 313.68 282.74 287.89 280.83 263.24 275.02 C 259.90 274.39 256.63 273.03 253.18 273.16 C 250.69 276.72 249.50 280.97 247.76 284.91 C 243.73 280.39 241.01 274.50 235.77 271.21 C 226.46 266.52 215.86 269.68 205.96 269.35 C 199.63 269.42 192.10 268.34 188.30 262.66 C 183.52 255.78 179.51 247.56 180.57 238.96 C 181.03 234.79 183.53 231.32 186.05 228.12 C 190.09 231.34 193.32 235.42 197.24 238.78 C 213.59 253.30 232.14 266.01 253.15 272.65 C 254.19 270.06 255.28 267.49 256.59 265.03 C 275.95 270.11 295.91 273.75 316.00 273.08 C 328.79 272.56 341.47 270.44 353.86 267.27 C 351.72 260.09 348.17 253.30 343.64 247.34 C 342.62 245.34 340.36 246.34 338.73 246.76 C 326.44 250.40 313.40 251.19 300.69 249.82 C 290.15 249.15 279.68 247.19 269.64 243.94 C 270.34 242.86 271.11 241.81 272.17 241.06 C 274.60 240.67 276.90 241.92 279.25 242.33 C 298.38 246.49 318.84 247.65 337.64 241.38 C 337.70 241.05 337.82 240.40 337.87 240.07 C 330.18 230.07 319.42 222.70 307.89 217.77 C 300.32 216.61 293.53 221.52 287.59 225.59 C 281.65 229.61 277.20 235.31 271.80 239.92 C 270.48 240.13 269.24 239.57 268.05 239.10 C 255.68 234.08 244.18 226.74 234.71 217.29 C 231.87 214.26 228.77 211.33 226.94 207.54 C 247.70 203.83 269.16 204.85 289.75 209.14 C 295.54 210.21 301.00 212.50 306.69 213.93 C 338.73 172.21 370.55 130.31 402.64 88.63 C 404.10 86.73 405.66 84.88 406.88 82.81 C 406.74 80.46 404.97 78.41 405.20 75.98 Z" />
<path fill="#d6cfc5" opacity="1.00" d=" M 289.69 73.80 C 292.19 76.41 293.29 79.95 294.75 83.17 C 292.55 83.52 290.35 83.78 288.14 83.99 C 288.45 80.56 288.93 77.16 289.69 73.80 Z" />
<path fill="#d6cfc5" opacity="1.00" d=" M 219.75 88.91 C 221.67 88.12 223.77 87.53 225.87 87.78 C 227.75 88.55 228.07 90.88 227.82 92.65 C 226.23 95.09 223.19 95.63 220.52 95.93 C 220.21 93.66 218.20 91.03 219.75 88.91 Z" />
<path fill="#d6cfc5" opacity="1.00" d=" M 401.38 111.20 C 403.78 105.37 405.63 99.33 407.95 93.46 C 413.61 100.63 418.75 108.28 425.46 114.55 C 438.04 127.02 454.84 136.62 473.00 136.32 C 495.92 135.40 518.65 128.39 537.83 115.75 C 540.95 113.66 543.94 111.37 547.08 109.30 C 543.42 120.21 537.13 130.09 530.22 139.22 C 511.41 163.81 483.61 180.30 454.25 189.11 C 431.37 194.78 407.38 196.41 384.01 193.09 C 370.53 190.94 356.62 187.03 346.11 177.89 C 358.82 165.68 373.22 155.14 384.57 141.55 C 391.50 132.25 397.17 122.01 401.38 111.20 M 413.09 142.58 C 408.10 139.53 403.59 135.73 398.41 133.00 C 395.31 137.91 391.45 142.36 388.96 147.64 C 393.56 150.82 398.19 153.96 402.79 157.14 C 399.94 162.21 396.07 166.61 393.08 171.59 C 397.55 174.47 401.65 177.88 406.16 180.71 C 406.48 180.66 407.13 180.57 407.45 180.53 C 410.89 176.23 413.76 171.50 417.15 167.16 C 422.08 170.32 426.44 174.34 431.63 177.10 C 434.90 172.34 438.18 167.59 441.49 162.87 C 436.99 159.16 431.85 156.37 427.12 152.99 C 430.23 148.02 434.08 143.56 437.52 138.81 C 432.86 135.13 427.93 131.79 422.97 128.52 C 419.50 133.08 416.56 138.01 413.09 142.58 Z" />
<path fill="#d6cfc5" opacity="1.00" d=" M 550.36 111.05 C 560.57 117.78 569.96 125.75 578.78 134.22 C 593.68 148.85 606.76 165.71 615.12 184.95 C 621.72 199.71 625.63 215.78 625.55 232.00 C 625.73 255.79 617.80 279.18 605.15 299.16 C 585.17 330.33 555.02 353.72 522.46 370.63 C 473.36 396.15 418.03 408.08 362.97 410.07 C 322.27 411.64 281.39 406.52 242.13 395.69 C 216.13 388.19 190.60 378.35 167.22 364.62 C 172.02 363.16 177.11 363.61 182.04 362.91 C 190.77 361.92 199.80 362.25 208.19 359.27 C 219.03 355.52 230.80 355.76 242.03 357.26 C 257.03 359.48 271.70 364.01 286.93 364.62 C 291.60 364.87 296.28 364.15 300.95 364.55 C 361.04 371.56 423.38 366.54 479.93 344.09 C 500.80 335.58 520.88 324.71 538.25 310.24 C 550.87 299.38 562.41 286.80 569.75 271.71 C 577.98 255.87 580.86 237.19 577.23 219.68 C 573.92 203.46 565.30 188.80 554.81 176.19 C 547.18 167.27 538.50 159.28 529.21 152.11 C 534.83 144.97 541.13 138.16 544.66 129.65 C 547.75 123.85 548.67 117.31 550.36 111.05 M 569.06 140.10 C 571.74 143.87 575.72 146.49 578.25 150.39 C 571.58 151.33 564.83 151.44 558.19 152.48 C 556.13 152.64 555.12 154.72 553.74 155.97 C 557.92 160.73 562.53 165.10 567.00 169.60 C 567.90 168.72 568.81 167.84 569.72 166.96 C 566.89 163.71 563.60 160.90 560.85 157.58 C 567.80 156.54 574.84 156.18 581.78 155.03 C 583.15 154.06 585.05 152.92 585.28 151.14 C 581.04 146.50 576.55 142.06 572.04 137.68 C 571.00 138.44 570.01 139.25 569.06 140.10 M 582.78 163.66 C 578.26 166.38 573.72 169.07 569.30 171.95 C 570.23 173.45 571.18 174.94 572.14 176.43 C 577.45 173.77 582.13 170.01 587.40 167.29 C 592.40 164.27 598.32 173.24 593.60 176.65 C 588.77 180.37 583.13 182.91 578.40 186.78 C 579.36 188.20 580.32 189.61 581.30 191.02 C 585.84 188.81 590.00 185.92 594.37 183.40 C 597.83 181.22 601.33 177.42 600.27 172.99 C 598.96 168.44 596.12 163.99 591.78 161.84 C 588.69 160.46 585.45 162.15 582.78 163.66 M 603.40 186.96 C 604.50 190.83 606.05 194.54 607.66 198.22 C 605.58 199.36 603.41 200.32 601.14 200.97 C 599.81 197.74 598.66 194.43 597.59 191.10 C 596.22 191.36 594.86 191.67 593.51 192.00 C 594.45 195.57 595.82 199.00 596.90 202.52 C 595.14 203.26 593.38 203.99 591.62 204.72 C 589.85 201.35 588.69 197.71 587.49 194.11 C 586.14 194.50 583.42 193.93 583.51 196.04 C 585.01 201.33 587.28 206.36 588.98 211.58 C 597.23 208.42 605.77 205.97 613.81 202.27 C 611.70 196.90 609.90 191.41 607.82 186.03 C 606.33 186.27 604.85 186.59 603.40 186.96 M 601.97 217.55 C 601.24 216.44 600.50 215.32 599.74 214.24 C 596.69 214.30 592.67 213.62 590.87 216.78 C 588.55 224.76 592.35 232.86 591.70 240.90 C 594.17 244.42 597.49 247.25 599.96 250.78 C 596.48 250.35 593.08 249.47 589.72 248.49 C 589.07 250.29 588.58 252.14 588.29 254.03 C 596.89 255.80 605.34 258.44 614.07 259.51 C 614.34 257.90 614.62 256.29 614.90 254.69 C 610.93 253.14 606.64 252.80 602.61 251.48 C 602.63 251.31 602.67 250.96 602.69 250.79 C 607.50 248.88 612.62 247.57 617.10 244.93 C 617.68 243.11 618.04 241.23 618.44 239.38 C 612.83 241.12 607.61 243.86 602.13 245.93 C 599.13 242.01 595.64 238.40 593.39 233.97 C 601.46 233.09 609.70 233.15 617.63 231.37 C 617.37 229.60 617.09 227.84 616.75 226.10 C 613.25 226.18 609.77 226.61 606.28 226.83 C 606.21 224.47 604.78 221.64 606.56 219.61 C 609.27 218.10 612.49 218.00 615.49 217.38 C 615.48 215.39 615.43 213.40 615.37 211.42 C 610.68 212.87 604.78 212.82 601.97 217.55 M 582.56 270.49 C 578.20 273.71 575.94 280.30 578.70 285.23 C 580.17 287.80 583.83 289.42 586.53 287.71 C 590.88 285.29 593.80 280.54 598.93 279.52 C 601.13 282.28 600.48 286.51 597.54 288.44 C 595.73 288.80 593.88 288.57 592.06 288.62 C 591.43 290.13 590.81 291.65 590.23 293.19 C 592.28 294.00 594.57 295.02 596.77 294.06 C 599.92 292.98 601.54 289.81 603.07 287.09 C 604.61 284.40 605.32 281.10 604.24 278.11 C 602.84 275.57 599.95 274.17 597.15 273.93 C 592.06 275.52 589.10 280.63 584.12 282.56 C 583.45 282.23 582.09 281.56 581.41 281.23 C 581.05 278.25 582.32 273.98 586.05 274.41 C 588.79 274.81 589.49 271.97 589.99 269.92 C 587.54 269.75 584.64 268.68 582.56 270.49 M 561.09 300.87 C 567.69 306.35 574.53 311.55 581.11 317.06 C 585.15 312.76 589.05 308.25 592.25 303.28 C 591.18 302.35 590.10 301.45 588.99 300.59 C 586.34 303.62 583.89 306.82 581.19 309.81 C 579.75 308.24 576.50 307.64 576.42 305.24 C 578.46 302.45 580.98 300.02 582.74 297.02 C 581.56 296.25 580.39 295.49 579.20 294.75 C 577.07 297.50 574.85 300.18 572.71 302.92 C 571.11 301.70 569.29 300.63 568.22 298.88 C 569.70 295.72 572.84 293.68 574.69 290.74 C 574.99 288.97 572.93 288.32 571.99 287.24 C 568.23 291.68 564.36 296.05 561.09 300.87 M 542.36 317.94 C 543.24 318.89 544.14 319.85 545.04 320.81 C 547.10 319.24 549.04 317.52 551.06 315.91 C 556.34 320.93 560.33 327.28 565.99 331.85 C 567.45 330.73 568.72 329.38 570.01 328.07 C 565.14 322.72 560.10 317.52 555.29 312.11 C 557.11 310.42 558.95 308.75 560.75 307.03 C 560.08 305.93 559.38 304.86 558.65 303.82 C 552.91 308.14 547.67 313.11 542.36 317.94 M 532.44 324.68 C 528.70 325.64 525.52 328.56 524.27 332.22 C 521.80 338.75 525.79 346.09 531.34 349.64 C 539.13 354.95 550.78 347.00 550.26 338.06 C 549.45 333.35 546.66 329.01 542.89 326.11 C 539.92 323.80 535.93 323.85 532.44 324.68 M 507.93 340.00 C 504.11 341.97 500.19 343.72 496.42 345.77 C 500.33 353.54 504.38 361.23 508.39 368.95 C 510.11 368.18 511.77 367.27 513.38 366.28 C 511.67 363.21 510.00 360.13 508.47 356.97 C 510.71 355.84 512.93 354.00 515.60 354.35 C 517.67 356.88 519.16 359.83 521.03 362.51 C 522.86 361.71 524.67 360.85 526.47 359.98 C 523.79 356.20 521.72 350.67 516.41 350.24 C 517.83 347.58 518.66 344.00 516.47 341.51 C 514.71 338.63 510.64 338.61 507.93 340.00 M 467.92 356.90 C 465.32 358.95 463.42 362.57 464.98 365.82 C 466.57 370.25 472.07 370.13 475.97 370.23 C 478.50 370.40 482.61 369.65 483.29 373.02 C 482.78 375.21 480.59 376.73 478.58 377.48 C 475.95 378.36 474.30 375.60 472.68 374.08 C 471.11 374.46 469.56 374.89 468.03 375.37 C 468.38 378.50 470.77 381.57 474.09 381.70 C 478.98 381.96 484.11 380.07 487.36 376.35 C 489.80 372.79 488.22 366.36 483.63 365.52 C 479.33 364.91 474.81 365.69 470.65 364.22 C 466.88 360.74 474.04 355.93 476.97 359.06 C 478.63 361.26 480.97 360.27 483.00 359.17 C 481.89 357.34 480.90 354.98 478.63 354.39 C 474.93 353.73 470.80 354.32 467.92 356.90 M 243.21 361.17 C 240.70 369.40 238.74 377.78 236.56 386.11 C 241.28 387.45 246.04 389.30 251.02 389.17 C 259.98 388.21 264.15 376.87 260.53 369.41 C 257.12 363.20 249.41 362.53 243.21 361.17 M 439.54 364.98 C 441.37 373.58 443.75 382.06 445.99 390.56 C 451.58 389.21 457.12 387.65 462.73 386.38 C 462.69 384.95 462.62 383.52 462.55 382.10 C 458.47 382.38 454.56 383.58 450.67 384.73 C 449.75 382.55 449.30 380.23 449.31 377.88 C 452.55 377.32 455.76 376.59 458.93 375.72 C 458.71 374.32 458.48 372.92 458.25 371.53 C 454.96 372.36 451.73 373.54 448.34 373.83 C 446.60 372.58 447.04 369.78 446.47 367.88 C 450.03 366.89 453.59 365.91 457.19 365.03 C 457.04 363.72 456.88 362.42 456.70 361.13 C 450.92 362.11 445.26 363.71 439.54 364.98 M 426.75 368.00 C 427.14 371.42 427.66 374.84 428.49 378.19 C 425.28 379.28 421.93 379.83 418.56 380.03 C 418.01 376.74 417.46 373.45 416.79 370.19 C 414.96 370.34 413.13 370.52 411.32 370.73 C 412.70 379.36 414.04 388.00 415.78 396.56 C 417.50 396.37 419.22 396.16 420.94 395.93 C 420.70 392.10 420.02 388.32 419.34 384.55 C 422.53 383.58 425.83 383.04 429.12 382.54 C 430.03 386.21 430.63 389.96 431.32 393.68 C 432.87 393.66 434.43 393.61 435.99 393.55 C 436.39 391.43 435.97 389.28 435.59 387.20 C 434.34 380.62 433.32 373.99 432.23 367.38 C 430.40 367.56 428.57 367.77 426.75 368.00 M 271.84 368.47 C 270.56 377.04 268.11 385.44 267.44 394.08 C 273.24 394.78 278.89 396.39 284.71 396.94 C 285.01 395.54 285.29 394.14 285.58 392.75 C 281.86 391.62 277.99 391.30 274.17 390.72 C 274.23 388.45 274.38 386.18 274.53 383.92 C 278.18 383.96 281.74 384.74 285.28 385.52 C 285.49 384.12 285.68 382.73 285.88 381.35 C 282.52 380.72 279.14 380.29 275.78 379.72 C 275.91 377.57 276.27 375.46 276.78 373.38 C 280.70 374.22 284.68 374.87 288.70 374.87 C 288.69 373.62 288.69 372.38 288.69 371.14 C 283.07 370.24 277.52 368.91 271.84 368.47 M 295.30 392.05 C 295.19 395.09 297.22 397.81 300.02 398.86 C 304.76 400.64 310.68 401.12 314.94 397.95 C 317.59 394.56 317.57 390.06 318.09 386.00 C 318.39 382.17 319.16 378.37 319.11 374.52 C 317.39 374.45 315.68 374.39 313.97 374.35 C 313.22 379.41 312.70 384.49 312.24 389.59 C 311.90 391.69 311.73 394.39 309.54 395.45 C 306.40 396.12 301.40 395.95 300.66 392.02 C 300.74 385.65 301.93 379.33 301.91 372.94 C 300.21 372.70 298.52 372.50 296.82 372.32 C 296.11 378.87 295.21 385.44 295.30 392.05 M 386.24 375.22 C 383.25 377.88 382.24 382.14 382.63 386.00 C 382.98 389.83 383.68 393.89 386.04 397.04 C 388.99 400.13 393.73 399.96 397.63 399.40 C 401.89 398.72 406.24 395.42 405.74 390.67 C 404.75 390.64 402.78 390.59 401.80 390.56 C 400.66 392.10 399.80 393.94 398.21 395.09 C 395.68 396.15 392.04 396.16 390.39 393.60 C 387.66 390.10 387.87 385.35 388.39 381.19 C 389.05 376.70 395.76 374.48 398.46 378.44 C 399.81 380.50 402.27 379.80 404.34 379.81 C 403.90 376.47 401.54 373.23 398.05 372.73 C 394.02 372.12 389.51 372.58 386.24 375.22 M 360.61 375.25 C 355.70 376.01 352.65 381.72 354.94 386.17 C 358.23 391.22 366.34 388.84 369.35 394.07 C 369.54 398.76 363.83 398.78 360.69 397.38 C 360.25 396.04 359.80 394.71 359.37 393.38 C 357.57 393.36 355.78 393.38 353.99 393.41 C 354.24 395.65 354.37 398.20 356.23 399.78 C 358.50 402.08 362.01 401.82 364.98 401.79 C 368.30 401.79 371.75 400.64 373.99 398.10 C 375.68 395.73 375.49 392.30 373.88 389.98 C 370.22 386.23 364.34 386.60 360.29 383.55 C 357.86 381.21 361.37 377.96 364.03 378.46 C 366.59 377.96 367.81 380.59 369.14 382.25 C 370.60 382.25 372.07 382.21 373.54 382.12 C 373.27 375.72 365.87 373.39 360.61 375.25 M 326.79 375.73 C 326.86 377.10 326.95 378.47 327.06 379.84 C 329.54 380.01 332.02 380.10 334.51 380.12 C 334.72 387.33 334.21 394.54 334.32 401.76 C 336.10 401.79 337.89 401.80 339.68 401.79 C 339.55 394.58 340.37 387.41 340.23 380.20 C 342.90 380.19 345.58 380.25 348.26 380.25 C 348.24 378.79 348.21 377.33 348.17 375.87 C 341.04 375.78 333.91 375.49 326.79 375.73 Z" />
<path fill="#d6cfc5" opacity="1.00" d=" M 124.94 149.15 C 128.45 150.31 131.89 151.74 135.06 153.67 C 133.44 155.15 132.17 157.19 130.08 158.04 C 127.86 155.40 126.39 152.24 124.94 149.15 Z" />
<path fill="#d6cfc5" opacity="1.00" d=" M 191.33 224.05 C 200.22 217.49 210.37 212.60 220.99 209.61 C 223.57 211.04 224.92 213.95 226.99 216.00 C 238.51 228.54 253.05 238.39 269.11 244.11 C 264.55 250.89 260.42 257.94 256.18 264.93 C 237.55 260.95 221.26 250.11 206.62 238.35 C 201.39 233.73 195.97 229.28 191.33 224.05 Z" />
<path fill="#d6cfc5" opacity="1.00" d=" M 594.65 221.09 C 595.95 219.26 599.86 218.65 600.75 221.14 C 601.69 223.17 601.46 225.52 601.75 227.70 C 599.33 227.99 596.91 228.23 594.49 228.40 C 594.39 225.97 593.99 223.47 594.65 221.09 Z" />
<path fill="#d6cfc5" opacity="1.00" d=" M 99.07 238.75 C 114.08 235.66 128.83 241.07 143.28 244.40 C 153.61 247.02 164.30 244.82 174.54 242.82 C 173.58 247.43 172.68 252.27 174.12 256.89 C 177.57 269.11 186.01 278.97 193.16 289.16 C 193.13 290.75 191.57 290.59 190.43 290.79 C 185.62 284.83 180.42 279.08 176.79 272.28 C 175.99 270.98 175.39 269.40 173.92 268.72 C 169.03 268.88 164.29 271.03 159.34 270.15 C 143.69 267.87 128.99 260.59 112.99 260.51 C 101.57 260.15 90.95 264.97 80.44 268.72 C 77.49 262.70 75.80 255.92 75.07 249.24 C 82.41 244.40 90.68 241.24 99.07 238.75 Z" />
<path fill="#d6cfc5" opacity="1.00" d=" M 82.64 276.14 C 95.44 270.42 109.36 264.39 123.69 267.07 C 126.57 267.93 130.56 267.90 131.83 271.18 C 134.25 275.82 136.95 280.29 139.79 284.68 C 122.84 280.67 104.39 281.28 88.51 288.90 C 86.47 284.68 84.21 280.56 82.64 276.14 Z" />
<path fill="#d6cfc5" opacity="1.00" d=" M 207.74 289.76 C 220.43 286.02 234.25 284.07 247.16 287.90 C 257.97 292.12 269.31 295.36 280.96 295.89 C 290.66 296.94 300.24 294.63 309.80 293.41 C 328.17 289.47 347.50 283.16 366.20 288.91 C 391.29 298.35 419.34 296.92 444.75 289.49 C 452.67 287.46 460.92 287.81 468.99 287.00 C 478.99 285.45 488.64 289.37 498.38 290.92 C 512.90 294.25 528.06 296.29 542.81 293.16 C 535.38 301.15 527.27 308.63 517.98 314.39 C 513.54 314.95 509.24 313.15 504.92 312.37 C 493.36 310.07 481.92 306.60 470.05 306.40 C 464.54 306.29 458.92 305.92 453.53 307.35 C 443.71 309.73 433.74 311.49 423.96 314.05 C 416.77 315.90 409.28 315.19 401.97 316.16 C 397.51 316.68 392.98 316.27 388.64 315.12 C 378.42 312.31 368.15 309.69 357.90 307.01 C 351.65 305.98 345.24 305.59 338.92 306.29 C 324.34 307.36 310.57 313.11 295.99 314.16 C 281.77 315.26 267.44 313.62 253.62 310.23 C 248.11 308.85 242.74 306.59 236.97 306.57 C 213.71 305.30 191.23 313.97 167.97 312.81 C 157.61 312.95 147.93 308.81 137.79 307.43 C 126.31 305.51 114.32 306.40 103.49 310.79 C 99.57 305.60 95.83 300.27 92.44 294.71 C 97.81 291.78 103.90 290.58 109.88 289.62 C 118.68 288.49 127.86 287.73 136.48 290.34 C 150.66 294.11 165.35 296.25 180.05 295.62 C 189.61 295.72 198.58 291.96 207.74 289.76 Z" />
<path fill="#d6cfc5" opacity="1.00" d=" M 109.26 314.73 C 121.22 311.12 133.97 312.31 145.99 315.03 C 153.59 317.02 161.35 318.36 169.15 319.20 C 172.21 319.56 175.65 318.71 178.31 320.68 C 182.56 323.49 186.98 326.03 191.16 328.94 C 185.75 331.28 179.82 331.91 173.99 332.22 C 158.00 332.55 141.96 328.78 126.03 331.50 C 124.45 331.66 122.52 332.12 121.41 330.62 C 117.12 326.17 112.46 321.97 108.91 316.89 C 109.00 316.35 109.17 315.27 109.26 314.73 Z" />
<path fill="#d6cfc5" opacity="1.00" d=" M 532.30 329.11 C 538.03 326.64 542.40 333.12 544.25 337.70 C 546.56 342.38 541.60 348.44 536.59 346.31 C 532.80 344.03 530.17 340.10 528.70 336.00 C 527.52 333.10 529.77 330.27 532.30 329.11 Z" />
<path fill="#d6cfc5" opacity="1.00" d=" M 201.25 334.50 C 213.84 330.79 227.13 330.72 240.09 332.03 C 252.19 334.23 264.14 337.22 276.25 339.42 C 288.80 340.63 301.07 336.95 313.28 334.62 C 318.84 333.72 324.38 332.66 329.96 331.92 C 338.90 331.00 347.93 331.88 356.74 333.51 C 367.26 335.46 377.40 339.39 388.17 339.88 C 404.07 341.94 419.53 336.92 435.03 334.28 C 446.77 331.25 459.55 331.10 471.14 334.88 C 472.44 335.63 475.19 335.58 474.72 337.69 C 440.38 350.88 403.74 357.50 367.09 359.48 C 353.49 359.83 339.84 360.14 326.27 359.06 C 316.88 357.82 307.40 358.71 298.00 357.85 C 283.16 357.68 267.76 357.90 253.74 352.38 C 246.35 350.28 238.61 349.57 230.94 349.76 C 204.74 350.70 178.95 360.25 152.62 356.07 C 147.28 353.08 142.66 348.92 137.84 345.17 C 135.09 342.80 131.83 340.85 129.92 337.67 C 144.31 336.13 158.65 338.46 173.00 339.09 C 182.61 339.25 192.11 337.34 201.25 334.50 Z" />
<path fill="#d6cfc5" opacity="1.00" d=" M 503.36 346.84 C 506.03 344.97 509.14 343.61 512.44 344.64 C 512.52 346.23 513.03 347.90 512.52 349.47 C 511.03 351.44 508.65 352.34 506.39 353.07 C 505.38 350.98 504.37 348.91 503.36 346.84 Z" />
<path fill="#d6cfc5" opacity="1.00" d=" M 247.17 367.03 C 249.90 366.09 253.63 368.14 255.37 370.53 C 256.43 374.67 255.96 379.64 252.99 382.94 C 250.35 385.47 246.39 384.41 243.21 383.82 C 244.30 378.18 245.41 372.51 247.17 367.03 Z" />
</g>
</svg>
