<?xml version="1.0" encoding="UTF-8" ?>
<!DOCTYPE svg PUBLIC "-//W3C//DTD SVG 1.1//EN" "http://www.w3.org/Graphics/SVG/1.1/DTD/svg11.dtd">
<svg width="1024pt" height="1024pt" viewBox="0 0 1024 1024" version="1.1" xmlns="http://www.w3.org/2000/svg">
<g id="#ffffffff">
<path fill="#ffffff" opacity="1.00" d=" M 0.00 0.00 L 1024.00 0.00 L 1024.00 1024.00 L 0.00 1024.00 L 0.00 0.00 M 483.35 1.33 C 389.89 6.14 298.10 37.91 221.31 91.33 C 170.86 126.28 126.75 170.33 91.73 220.73 C 57.37 270.11 31.78 325.60 16.72 383.85 C 5.64 426.94 -0.15 471.49 0.81 516.00 C 0.31 527.70 1.23 539.39 1.95 551.06 C 5.25 595.59 14.59 639.67 29.42 681.78 C 55.41 755.44 98.61 822.93 154.50 877.47 C 203.36 925.35 261.87 963.37 325.55 988.36 C 377.40 1008.72 432.62 1020.58 488.27 1022.91 C 500.49 1023.84 512.75 1022.75 524.99 1023.33 C 599.64 1021.64 673.84 1002.98 740.52 969.36 C 809.63 934.66 870.67 884.09 917.74 822.74 C 968.98 756.27 1003.56 677.00 1016.91 594.11 C 1021.22 567.32 1023.72 540.15 1023.17 513.00 C 1023.92 474.74 1019.30 436.48 1010.95 399.17 C 998.37 343.62 976.28 290.25 946.04 241.99 C 905.09 176.47 849.22 120.34 783.84 79.15 C 714.07 34.98 633.40 8.05 551.02 1.96 C 540.36 1.34 529.68 0.34 518.99 0.77 C 507.10 1.00 495.21 0.23 483.35 1.33 Z" />
</g>
<g id="#1f1a17ff">
<path fill="#1f1a17" opacity="1.00" d=" M 483.35 1.33 C 495.21 0.23 507.10 1.00 518.99 0.77 C 529.68 0.34 540.36 1.34 551.02 1.96 C 633.40 8.05 714.07 34.98 783.84 79.15 C 849.22 120.34 905.09 176.47 946.04 241.99 C 976.28 290.25 998.37 343.62 1010.95 399.17 C 1019.30 436.48 1023.92 474.74 1023.17 513.00 C 1023.72 540.15 1021.22 567.32 1016.91 594.11 C 1003.56 677.00 968.98 756.27 917.74 822.74 C 870.67 884.09 809.63 934.66 740.52 969.36 C 673.84 1002.98 599.64 1021.64 524.99 1023.33 C 512.75 1022.75 500.49 1023.84 488.27 1022.91 C 432.62 1020.58 377.40 1008.72 325.55 988.36 C 261.87 963.37 203.36 925.35 154.50 877.47 C 98.61 822.93 55.41 755.44 29.42 681.78 C 14.59 639.67 5.25 595.59 1.95 551.06 C 1.23 539.39 0.31 527.70 0.81 516.00 C -0.15 471.49 5.64 426.94 16.72 383.85 C 31.78 325.60 57.37 270.11 91.73 220.73 C 126.75 170.33 170.86 126.28 221.31 91.33 C 298.10 37.91 389.89 6.14 483.35 1.33 M 483.54 48.00 C 423.69 51.82 364.54 67.27 310.62 93.57 C 253.31 121.34 201.87 161.10 160.40 209.41 C 116.37 260.50 83.65 321.29 65.38 386.23 C 54.05 426.78 47.94 468.88 48.25 511.00 C 47.76 544.36 51.59 577.68 58.55 610.28 C 75.64 689.87 114.43 764.59 169.32 824.67 C 220.45 880.97 285.55 924.51 357.22 950.00 C 410.21 969.00 466.73 978.02 523.00 976.66 C 595.12 975.47 666.81 956.45 730.38 922.43 C 796.45 887.17 853.74 835.67 895.94 773.82 C 948.40 697.34 977.29 604.79 976.74 512.00 C 977.07 447.42 963.29 382.85 937.04 323.85 C 906.91 255.85 860.13 195.37 802.07 148.91 C 740.69 99.57 666.55 66.13 588.79 53.41 C 554.09 47.31 518.67 46.24 483.54 48.00 Z" />
<path fill="#1f1a17" opacity="1.00" d=" M 494.37 70.38 C 574.84 66.86 656.19 86.09 726.44 125.57 C 794.37 163.38 851.95 219.47 891.74 286.24 C 926.86 344.90 948.02 411.83 952.86 480.03 C 954.14 494.99 953.82 510.03 953.77 525.03 C 951.45 616.54 919.15 706.85 863.50 779.47 C 817.10 840.46 754.73 889.25 684.15 919.18 C 635.15 940.09 582.26 951.78 529.03 953.71 C 512.66 953.86 496.25 954.17 479.92 952.77 C 418.97 948.23 359.04 930.72 305.23 901.72 C 234.97 864.08 175.22 807.13 134.13 738.84 C 113.77 705.20 98.04 668.79 87.33 630.97 C 73.76 582.69 68.53 532.08 71.98 482.05 C 75.62 426.96 90.01 372.64 113.81 322.84 C 143.87 259.77 189.18 204.10 244.56 161.54 C 296.76 121.33 358.02 92.87 422.54 79.41 C 446.16 74.33 470.25 71.47 494.37 70.38 M 620.19 119.29 C 614.65 122.62 612.57 129.10 609.65 134.49 C 549.87 250.81 489.86 367.01 430.17 483.38 C 438.07 486.92 445.91 490.61 453.97 493.74 C 465.58 471.21 477.04 448.59 488.80 426.14 C 512.59 433.25 536.23 440.85 560.03 447.91 C 599.50 455.37 640.15 457.98 680.08 452.81 C 701.28 449.64 722.35 444.10 741.51 434.29 C 748.71 430.77 755.32 426.20 762.19 422.12 C 767.85 416.40 774.79 412.18 780.56 406.57 C 806.82 383.11 825.46 352.38 839.30 320.28 C 846.08 301.58 850.80 281.96 851.32 262.01 C 852.18 257.69 846.36 256.56 843.22 257.01 C 821.46 261.19 798.99 260.59 777.28 256.48 C 756.21 252.17 735.72 245.04 716.46 235.47 C 698.51 224.91 680.48 214.43 663.21 202.77 C 649.26 193.03 635.33 182.82 624.50 169.55 C 623.36 168.05 621.50 166.14 623.10 164.28 C 627.95 155.10 632.34 145.67 637.55 136.68 C 639.35 133.45 640.65 129.35 639.16 125.77 C 635.84 119.20 626.84 115.32 620.19 119.29 M 334.95 494.90 C 331.89 496.22 330.99 500.46 332.99 503.05 C 340.61 515.37 351.16 525.61 362.59 534.38 C 391.55 555.92 426.19 568.56 461.29 575.83 C 470.84 577.65 480.37 579.81 490.08 580.57 C 492.43 580.91 494.03 578.86 495.85 577.75 C 495.75 575.53 496.09 573.11 494.70 571.20 C 482.03 550.29 465.10 531.78 444.63 518.31 C 426.77 506.30 406.38 498.30 385.36 493.91 C 372.98 492.50 360.45 492.03 348.01 492.97 C 343.68 493.70 339.03 493.04 334.95 494.90 M 293.50 505.70 C 281.40 511.52 269.42 518.28 259.74 527.73 C 257.97 529.48 255.32 531.98 257.28 534.60 C 279.11 567.61 306.17 597.59 338.77 620.27 C 365.08 638.71 394.88 652.03 426.02 659.84 C 431.44 661.12 436.94 663.48 442.60 662.33 C 455.25 658.03 468.43 655.63 481.30 652.07 C 486.25 650.66 491.51 651.12 496.44 649.57 C 500.15 648.45 504.06 648.83 507.84 648.21 C 510.53 647.47 514.06 646.76 514.54 643.46 C 518.20 631.62 511.75 620.17 509.17 608.85 C 508.45 606.46 508.27 602.66 505.00 602.59 C 468.48 600.99 431.91 594.16 398.12 579.92 C 380.89 572.51 364.10 563.51 349.85 551.19 C 333.95 538.14 320.27 522.70 306.50 507.50 C 303.35 503.56 297.77 504.91 293.50 505.70 M 509.09 560.33 C 509.60 562.26 510.07 564.21 510.87 566.06 C 515.23 575.17 519.59 584.30 523.54 593.60 C 525.53 600.85 528.53 607.76 531.24 614.77 C 531.65 616.67 533.61 617.28 535.21 617.90 C 576.35 632.78 619.17 642.16 661.61 652.43 C 670.59 654.72 679.71 656.43 688.83 658.09 C 698.24 659.76 707.63 657.15 716.87 655.59 C 751.95 648.05 785.02 632.88 820.57 627.27 C 840.64 622.42 861.57 626.52 880.72 633.19 C 890.76 636.52 900.43 640.81 910.29 644.61 C 913.42 646.21 917.81 643.90 918.23 640.39 C 921.70 625.05 924.66 609.59 928.17 594.25 C 928.82 590.96 929.83 587.69 929.75 584.32 C 926.46 580.49 921.81 578.06 917.50 575.54 C 902.14 567.55 885.02 563.54 867.92 561.42 C 861.63 560.32 855.23 560.75 849.00 562.01 C 824.73 565.76 802.35 576.26 779.44 584.52 C 759.49 592.19 738.36 596.82 717.04 598.24 C 696.81 599.14 676.54 596.72 656.89 591.99 C 618.58 583.14 582.08 567.82 543.58 559.69 C 534.40 558.42 525.22 557.03 515.99 556.16 C 512.79 555.37 510.97 558.37 509.09 560.33 M 241.40 559.27 C 241.11 572.74 241.35 586.26 243.14 599.63 C 245.29 619.95 251.02 639.66 256.75 659.20 C 261.60 666.61 269.98 670.85 277.91 674.24 C 293.61 680.77 310.47 683.64 326.54 689.00 C 336.41 690.73 346.48 689.98 356.39 689.02 C 372.00 687.08 387.46 683.05 401.52 675.90 C 402.16 672.27 398.51 671.15 395.80 670.23 C 336.06 649.01 282.54 609.47 246.63 557.00 C 244.76 557.44 242.99 558.18 241.40 559.27 M 152.46 559.77 C 135.42 563.73 117.99 567.79 102.83 576.87 C 99.28 578.98 95.78 583.24 97.29 587.59 C 100.35 601.38 103.04 615.26 106.07 629.06 C 106.95 634.62 108.65 640.04 110.99 645.15 C 112.54 645.93 114.19 646.50 115.83 647.10 C 117.35 645.49 118.89 643.74 121.06 643.02 C 134.00 638.60 147.08 634.61 160.02 630.18 C 161.93 629.52 163.95 629.26 165.97 629.29 C 178.64 629.33 191.31 629.34 203.99 629.30 C 210.10 628.69 215.93 631.13 222.04 630.59 C 222.22 628.75 222.28 626.90 222.21 625.06 C 221.26 605.38 220.39 585.69 219.41 566.01 C 213.13 561.88 205.92 559.20 198.43 558.50 C 183.09 557.55 167.75 558.98 152.46 559.77 M 525.44 672.78 C 492.25 674.98 459.84 682.89 427.55 690.39 C 388.65 699.57 349.25 709.21 309.01 708.51 C 276.35 708.35 243.54 700.16 215.19 683.77 C 211.54 681.51 207.03 682.66 203.00 681.89 C 182.39 680.86 161.04 681.62 141.74 689.65 C 138.47 691.20 134.49 692.53 132.92 696.12 C 132.41 699.08 132.50 702.32 134.17 704.94 C 139.95 715.14 145.79 725.32 151.45 735.59 C 153.72 741.20 160.20 744.43 166.05 743.00 C 175.24 741.19 184.66 741.09 193.99 741.64 C 223.85 744.13 251.43 756.71 279.47 766.25 C 290.76 769.72 302.00 774.23 313.95 774.59 C 322.08 776.96 330.53 778.24 339.01 777.31 C 350.17 776.27 360.98 773.05 372.03 771.26 C 376.09 770.45 379.86 768.52 384.02 768.08 C 387.73 767.64 391.04 765.89 394.49 764.60 C 398.08 763.16 402.12 764.09 405.71 762.61 C 426.35 757.22 446.73 750.88 467.29 745.16 C 474.09 742.91 481.20 741.90 488.29 741.09 C 523.89 737.36 559.14 746.55 592.78 757.24 C 626.80 767.64 661.08 779.47 696.99 780.52 C 711.56 781.27 725.95 778.01 739.91 774.16 C 749.80 771.99 759.32 768.47 769.07 765.78 C 778.51 763.09 787.70 759.22 797.52 758.15 C 809.32 754.46 821.83 755.21 834.03 755.23 C 840.97 755.20 847.85 756.55 854.78 756.62 C 862.08 754.17 868.06 748.64 872.46 742.45 C 880.37 731.08 884.40 717.56 891.99 706.00 C 893.76 703.44 895.14 699.72 893.00 696.97 C 889.75 694.31 885.91 692.50 882.19 690.61 C 859.70 680.06 833.53 678.25 809.59 684.51 C 776.06 691.91 744.28 705.63 710.59 712.37 C 705.50 713.40 700.35 714.74 695.11 714.21 C 686.23 713.01 676.91 714.43 668.53 710.58 C 632.00 698.68 595.45 686.85 558.93 674.96 C 554.65 673.81 550.20 673.51 545.95 672.25 C 539.13 671.93 532.26 672.37 525.44 672.78 M 352.35 828.13 C 339.01 830.31 325.53 831.78 312.00 831.65 C 280.37 832.57 248.49 824.74 220.99 809.05 C 217.58 807.48 213.64 808.39 210.09 809.01 C 217.14 818.16 225.27 826.43 233.62 834.38 C 263.19 862.09 297.89 884.33 335.42 899.62 C 343.83 903.65 353.44 902.02 362.38 901.35 C 396.84 897.00 426.63 876.56 460.77 870.89 C 466.88 869.78 473.17 870.96 479.26 869.58 C 508.42 863.69 538.55 868.10 566.94 875.82 C 597.22 883.67 626.60 894.89 657.41 900.68 C 664.55 901.99 671.63 905.43 679.03 903.70 C 685.36 904.12 690.94 900.92 696.59 898.58 C 741.24 879.21 780.40 848.95 814.44 814.49 C 816.00 813.28 815.90 811.21 816.16 809.46 C 807.52 811.64 799.30 815.23 790.67 817.48 C 777.38 821.19 763.96 824.51 750.31 826.57 C 734.98 829.09 719.50 831.00 703.95 830.81 C 695.98 831.34 687.97 831.73 680.00 831.03 C 636.49 829.27 593.44 819.21 553.16 802.76 C 546.09 800.14 538.48 799.40 530.99 799.20 C 519.98 797.91 508.95 799.26 497.94 799.60 C 448.48 803.93 401.21 820.34 352.35 828.13 Z" />
<path fill="#1f1a17" opacity="1.00" d=" M 572.63 262.55 C 587.78 233.31 602.56 203.88 617.91 174.74 C 620.50 180.23 624.80 184.91 626.10 190.96 C 631.60 211.45 631.29 233.83 623.62 253.74 C 622.31 257.01 621.94 260.54 620.85 263.88 C 604.54 302.44 587.66 341.45 561.71 374.70 C 555.63 382.22 549.78 390.08 542.24 396.23 C 539.92 398.92 537.37 401.38 534.46 403.43 C 531.40 405.43 530.26 409.50 526.65 410.74 C 520.00 413.41 513.27 416.60 506.02 417.04 C 502.13 417.47 498.62 415.47 494.95 414.58 C 499.77 403.80 505.54 393.46 510.88 382.92 C 531.43 342.78 552.08 302.69 572.63 262.55 Z" />
<path fill="#1f1a17" opacity="1.00" d=" M 675.90 325.01 C 680.67 312.15 685.45 299.28 690.00 286.34 C 702.39 289.07 714.82 291.69 727.10 294.94 C 722.83 308.34 717.52 321.38 713.11 334.73 C 724.68 336.70 736.22 339.30 748.01 339.58 C 742.95 352.62 735.80 364.72 728.48 376.59 C 716.53 376.67 704.84 373.72 693.06 372.05 C 685.75 382.74 679.33 394.08 671.05 404.08 C 669.96 405.64 667.94 404.60 666.48 404.41 C 655.40 401.42 644.05 399.35 633.26 395.41 C 642.02 385.45 648.92 374.08 655.72 362.74 C 645.17 358.91 634.44 355.37 624.52 350.02 C 631.63 337.99 638.51 325.80 644.24 313.04 C 654.06 318.70 664.63 323.28 675.90 325.01 Z" />
</g>
<g id="#d5cec4ff">
<path fill="#d5cec4" opacity="1.00" d=" M 483.54 48.00 C 518.67 46.24 554.09 47.31 588.79 53.41 C 666.55 66.13 740.69 99.57 802.07 148.91 C 860.13 195.37 906.91 255.85 937.04 323.85 C 963.29 382.85 977.07 447.42 976.74 512.00 C 977.29 604.79 948.40 697.34 895.94 773.82 C 853.74 835.67 796.45 887.17 730.38 922.43 C 666.81 956.45 595.12 975.47 523.00 976.66 C 466.73 978.02 410.21 969.00 357.22 950.00 C 285.55 924.51 220.45 880.97 169.32 824.67 C 114.43 764.59 75.64 689.87 58.55 610.28 C 51.59 577.68 47.76 544.36 48.25 511.00 C 47.94 468.88 54.05 426.78 65.38 386.23 C 83.65 321.29 116.37 260.50 160.40 209.41 C 201.87 161.10 253.31 121.34 310.62 93.57 C 364.54 67.27 423.69 51.82 483.54 48.00 M 494.37 70.38 C 470.25 71.47 446.16 74.33 422.54 79.41 C 358.02 92.87 296.76 121.33 244.56 161.54 C 189.18 204.10 143.87 259.77 113.81 322.84 C 90.01 372.64 75.62 426.96 71.98 482.05 C 68.53 532.08 73.76 582.69 87.33 630.97 C 98.04 668.79 113.77 705.20 134.13 738.84 C 175.22 807.13 234.97 864.08 305.23 901.72 C 359.04 930.72 418.97 948.23 479.92 952.77 C 496.25 954.17 512.66 953.86 529.03 953.71 C 582.26 951.78 635.15 940.09 684.15 919.18 C 754.73 889.25 817.10 840.46 863.50 779.47 C 919.15 706.85 951.45 616.54 953.77 525.03 C 953.82 510.03 954.14 494.99 952.86 480.03 C 948.02 411.83 926.86 344.90 891.74 286.24 C 851.95 219.47 794.37 163.38 726.44 125.57 C 656.19 86.09 574.84 66.86 494.37 70.38 Z" />
<path fill="#d5cec4" opacity="1.00" d=" M 620.19 119.29 C 626.84 115.32 635.84 119.20 639.16 125.77 C 640.65 129.35 639.35 133.45 637.55 136.68 C 632.34 145.67 627.95 155.10 623.10 164.28 C 621.50 166.14 623.36 168.05 624.50 169.55 C 635.33 182.82 649.26 193.03 663.21 202.77 C 680.48 214.43 698.51 224.91 716.46 235.47 C 735.72 245.04 756.21 252.17 777.28 256.48 C 798.99 260.59 821.46 261.19 843.22 257.01 C 846.36 256.56 852.18 257.69 851.32 262.01 C 850.80 281.96 846.08 301.58 839.30 320.28 C 825.46 352.38 806.82 383.11 780.56 406.57 C 774.79 412.18 767.85 416.40 762.19 422.12 C 755.32 426.20 748.71 430.77 741.51 434.29 C 722.35 444.10 701.28 449.64 680.08 452.81 C 640.15 457.98 599.50 455.37 560.03 447.91 C 536.23 440.85 512.59 433.25 488.80 426.14 C 477.04 448.59 465.58 471.21 453.97 493.74 C 445.91 490.61 438.07 486.92 430.17 483.38 C 489.86 367.01 549.87 250.81 609.65 134.49 C 612.57 129.10 614.65 122.62 620.19 119.29 M 572.63 262.55 C 552.08 302.69 531.43 342.78 510.88 382.92 C 505.54 393.46 499.77 403.80 494.95 414.58 C 498.62 415.47 502.13 417.47 506.02 417.04 C 513.27 416.60 520.00 413.41 526.65 410.74 C 530.26 409.50 531.40 405.43 534.46 403.43 C 537.37 401.38 539.92 398.92 542.24 396.23 C 549.78 390.08 555.63 382.22 561.71 374.70 C 587.66 341.45 604.54 302.44 620.85 263.88 C 621.94 260.54 622.31 257.01 623.62 253.74 C 631.29 233.83 631.60 211.45 626.10 190.96 C 624.80 184.91 620.50 180.23 617.91 174.74 C 602.56 203.88 587.78 233.31 572.63 262.55 M 675.90 325.01 C 664.63 323.28 654.06 318.70 644.24 313.04 C 638.51 325.80 631.63 337.99 624.52 350.02 C 634.44 355.37 645.17 358.91 655.72 362.74 C 648.92 374.08 642.02 385.45 633.26 395.41 C 644.05 399.35 655.40 401.42 666.48 404.41 C 667.94 404.60 669.96 405.64 671.05 404.08 C 679.33 394.08 685.75 382.74 693.06 372.05 C 704.84 373.72 716.53 376.67 728.48 376.59 C 735.80 364.72 742.95 352.62 748.01 339.58 C 736.22 339.30 724.68 336.70 713.11 334.73 C 717.52 321.38 722.83 308.34 727.10 294.94 C 714.82 291.69 702.39 289.07 690.00 286.34 C 685.45 299.28 680.67 312.15 675.90 325.01 Z" />
<path fill="#d5cec4" opacity="1.00" d=" M 334.95 494.90 C 339.03 493.04 343.68 493.70 348.01 492.97 C 360.45 492.03 372.98 492.50 385.36 493.91 C 406.38 498.30 426.77 506.30 444.63 518.31 C 465.10 531.78 482.03 550.29 494.70 571.20 C 496.09 573.11 495.75 575.53 495.85 577.75 C 494.03 578.86 492.43 580.91 490.08 580.57 C 480.37 579.81 470.84 577.65 461.29 575.83 C 426.19 568.56 391.55 555.92 362.59 534.38 C 351.16 525.61 340.61 515.37 332.99 503.05 C 330.99 500.46 331.89 496.22 334.95 494.90 Z" />
<path fill="#d5cec4" opacity="1.00" d=" M 293.50 505.70 C 297.77 504.91 303.35 503.56 306.50 507.50 C 320.27 522.70 333.95 538.14 349.85 551.19 C 364.10 563.51 380.89 572.51 398.12 579.92 C 431.91 594.16 468.48 600.99 505.00 602.59 C 508.27 602.66 508.45 606.46 509.17 608.85 C 511.75 620.17 518.20 631.62 514.54 643.46 C 514.06 646.76 510.53 647.47 507.84 648.21 C 504.06 648.83 500.15 648.45 496.44 649.57 C 491.51 651.12 486.25 650.66 481.30 652.07 C 468.43 655.63 455.25 658.03 442.60 662.33 C 436.94 663.48 431.44 661.12 426.02 659.84 C 394.88 652.03 365.08 638.71 338.77 620.27 C 306.17 597.59 279.11 567.61 257.28 534.60 C 255.32 531.98 257.97 529.48 259.74 527.73 C 269.42 518.28 281.40 511.52 293.50 505.70 Z" />
<path fill="#d5cec4" opacity="1.00" d=" M 509.09 560.33 C 510.97 558.37 512.79 555.37 515.99 556.16 C 525.22 557.03 534.40 558.42 543.58 559.69 C 582.08 567.82 618.58 583.14 656.89 591.99 C 676.54 596.72 696.81 599.14 717.04 598.24 C 738.36 596.82 759.49 592.19 779.44 584.52 C 802.35 576.26 824.73 565.76 849.00 562.01 C 855.23 560.75 861.63 560.32 867.92 561.42 C 885.02 563.54 902.14 567.55 917.50 575.54 C 921.81 578.06 926.46 580.49 929.75 584.32 C 929.83 587.69 928.82 590.96 928.17 594.25 C 924.66 609.59 921.70 625.05 918.23 640.39 C 917.81 643.90 913.42 646.21 910.29 644.61 C 900.43 640.81 890.76 636.52 880.72 633.19 C 861.57 626.52 840.64 622.42 820.57 627.27 C 785.02 632.88 751.95 648.05 716.87 655.59 C 707.63 657.15 698.24 659.76 688.83 658.09 C 679.71 656.43 670.59 654.72 661.61 652.43 C 619.17 642.16 576.35 632.78 535.21 617.90 C 533.61 617.28 531.65 616.67 531.24 614.77 C 528.53 607.76 525.53 600.85 523.54 593.60 C 519.59 584.30 515.23 575.17 510.87 566.06 C 510.07 564.21 509.60 562.26 509.09 560.33 Z" />
<path fill="#d5cec4" opacity="1.00" d=" M 241.40 559.27 C 242.99 558.18 244.76 557.44 246.63 557.00 C 282.54 609.47 336.06 649.01 395.80 670.23 C 398.51 671.15 402.16 672.27 401.52 675.90 C 387.46 683.05 372.00 687.08 356.39 689.02 C 346.48 689.98 336.41 690.73 326.54 689.00 C 310.47 683.64 293.61 680.77 277.91 674.24 C 269.98 670.85 261.60 666.61 256.75 659.20 C 251.02 639.66 245.29 619.95 243.14 599.63 C 241.35 586.26 241.11 572.74 241.40 559.27 Z" />
<path fill="#d5cec4" opacity="1.00" d=" M 152.46 559.77 C 167.75 558.98 183.09 557.55 198.43 558.50 C 205.92 559.20 213.13 561.88 219.41 566.01 C 220.39 585.69 221.26 605.38 222.21 625.06 C 222.28 626.90 222.22 628.75 222.04 630.59 C 215.93 631.13 210.10 628.69 203.99 629.30 C 191.31 629.34 178.64 629.33 165.97 629.29 C 163.95 629.26 161.93 629.52 160.02 630.18 C 147.08 634.61 134.00 638.60 121.06 643.02 C 118.89 643.74 117.35 645.49 115.83 647.10 C 114.19 646.50 112.54 645.93 110.99 645.15 C 108.65 640.04 106.95 634.62 106.07 629.06 C 103.04 615.26 100.35 601.38 97.29 587.59 C 95.78 583.24 99.28 578.98 102.83 576.87 C 117.99 567.79 135.42 563.73 152.46 559.77 Z" />
<path fill="#d5cec4" opacity="1.00" d=" M 525.44 672.78 C 532.26 672.37 539.13 671.93 545.95 672.25 C 550.20 673.51 554.65 673.81 558.93 674.96 C 595.45 686.85 632.00 698.68 668.53 710.58 C 676.91 714.43 686.23 713.01 695.11 714.21 C 700.35 714.74 705.50 713.40 710.59 712.37 C 744.28 705.63 776.06 691.91 809.59 684.51 C 833.53 678.25 859.70 680.06 882.19 690.61 C 885.91 692.50 889.75 694.31 893.00 696.97 C 895.14 699.72 893.76 703.44 891.99 706.00 C 884.40 717.56 880.37 731.08 872.46 742.45 C 868.06 748.64 862.08 754.17 854.78 756.62 C 847.85 756.55 840.97 755.20 834.03 755.23 C 821.83 755.21 809.32 754.46 797.52 758.15 C 787.70 759.22 778.51 763.09 769.07 765.78 C 759.32 768.47 749.80 771.99 739.91 774.16 C 725.95 778.01 711.56 781.27 696.99 780.52 C 661.08 779.47 626.80 767.64 592.78 757.24 C 559.14 746.55 523.89 737.36 488.29 741.09 C 481.20 741.90 474.09 742.91 467.29 745.16 C 446.73 750.88 426.35 757.22 405.71 762.61 C 402.12 764.09 398.08 763.16 394.49 764.60 C 391.04 765.89 387.73 767.64 384.02 768.08 C 379.86 768.52 376.09 770.45 372.03 771.26 C 360.98 773.05 350.17 776.27 339.01 777.31 C 330.53 778.24 322.08 776.96 313.95 774.59 C 302.00 774.23 290.76 769.72 279.47 766.25 C 251.43 756.71 223.85 744.13 193.99 741.64 C 184.66 741.09 175.24 741.19 166.05 743.00 C 160.20 744.43 153.72 741.20 151.45 735.59 C 145.79 725.32 139.95 715.14 134.17 704.94 C 132.50 702.32 132.41 699.08 132.92 696.12 C 134.49 692.53 138.47 691.20 141.74 689.65 C 161.04 681.62 182.39 680.86 203.00 681.89 C 207.03 682.66 211.54 681.51 215.19 683.77 C 243.54 700.16 276.35 708.35 309.01 708.51 C 349.25 709.21 388.65 699.57 427.55 690.39 C 459.84 682.89 492.25 674.98 525.44 672.78 Z" />
<path fill="#d5cec4" opacity="1.00" d=" M 352.35 828.13 C 401.21 820.34 448.48 803.93 497.94 799.60 C 508.95 799.26 519.98 797.91 530.99 799.20 C 538.48 799.40 546.09 800.14 553.16 802.76 C 593.44 819.21 636.49 829.27 680.00 831.03 C 687.97 831.73 695.98 831.34 703.95 830.81 C 719.50 831.00 734.98 829.09 750.31 826.57 C 763.96 824.51 777.38 821.19 790.67 817.48 C 799.30 815.23 807.52 811.64 816.16 809.46 C 815.90 811.21 816.00 813.28 814.44 814.49 C 780.40 848.95 741.24 879.21 696.59 898.58 C 690.94 900.92 685.36 904.12 679.03 903.70 C 671.63 905.43 664.55 901.99 657.41 900.68 C 626.60 894.89 597.22 883.67 566.94 875.82 C 538.55 868.10 508.42 863.69 479.26 869.58 C 473.17 870.96 466.88 869.78 460.77 870.89 C 426.63 876.56 396.84 897.00 362.38 901.35 C 353.44 902.02 343.83 903.65 335.42 899.62 C 297.89 884.33 263.19 862.09 233.62 834.38 C 225.27 826.43 217.14 818.16 210.09 809.01 C 213.64 808.39 217.58 807.48 220.99 809.05 C 248.49 824.74 280.37 832.57 312.00 831.65 C 325.53 831.78 339.01 830.31 352.35 828.13 Z" />
</g>
</svg>
