<?xml version="1.0" encoding="UTF-8" ?>
<!DOCTYPE svg PUBLIC "-//W3C//DTD SVG 1.1//EN" "http://www.w3.org/Graphics/SVG/1.1/DTD/svg11.dtd">
<svg width="1024pt" height="1024pt" viewBox="0 0 1024 1024" version="1.1" xmlns="http://www.w3.org/2000/svg">
<g id="#ffffffff">
<path fill="#ffffff" opacity="1.00" d=" M 0.00 0.00 L 1024.00 0.00 L 1024.00 1024.00 L 0.00 1024.00 L 0.00 0.00 M 363.25 22.49 C 300.88 41.45 242.33 72.70 191.63 113.65 C 144.14 151.97 103.51 198.77 72.31 251.22 C 42.15 301.75 20.89 357.55 9.70 415.31 C 6.29 434.06 3.20 452.93 2.24 471.99 C 1.96 471.03 1.69 470.07 1.42 469.11 C 2.43 479.06 0.48 489.05 0.67 499.02 C 0.86 508.01 0.86 517.00 0.67 525.98 C 2.09 584.39 13.73 642.56 34.95 697.01 C 63.78 771.45 110.52 838.79 169.86 892.15 C 217.46 935.16 273.27 969.06 333.37 991.49 C 385.98 1011.16 441.89 1021.97 498.02 1023.33 C 506.68 1023.17 515.33 1023.10 523.99 1023.32 C 622.84 1021.35 720.76 989.30 801.96 932.94 C 866.65 888.36 920.89 828.75 959.16 760.14 C 1002.10 683.31 1024.96 595.08 1023.21 507.00 C 1023.67 493.31 1022.43 479.65 1021.43 466.01 C 1013.37 375.31 980.06 287.08 926.53 213.44 C 879.90 148.90 818.16 95.32 747.57 58.46 C 678.80 22.36 601.63 2.29 523.98 0.67 C 511.64 1.20 499.28 0.15 486.96 1.13 C 445.04 2.91 403.38 10.28 363.25 22.49 Z" />
</g>
<g id="#1f1a17ff">
<path fill="#1f1a17" opacity="1.00" d=" M 363.25 22.49 C 403.38 10.28 445.04 2.91 486.96 1.13 C 499.28 0.15 511.64 1.20 523.98 0.67 C 601.63 2.29 678.80 22.36 747.57 58.46 C 818.16 95.32 879.90 148.90 926.53 213.44 C 980.06 287.08 1013.37 375.31 1021.43 466.01 C 1022.43 479.65 1023.67 493.31 1023.21 507.00 C 1024.96 595.08 1002.10 683.31 959.16 760.14 C 920.89 828.75 866.65 888.36 801.96 932.94 C 720.76 989.30 622.84 1021.35 523.99 1023.32 C 515.33 1023.10 506.68 1023.17 498.02 1023.33 C 441.89 1021.97 385.98 1011.16 333.37 991.49 C 273.27 969.06 217.46 935.16 169.86 892.15 C 110.52 838.79 63.78 771.45 34.95 697.01 C 13.73 642.56 2.09 584.39 0.67 525.98 C 0.86 517.00 0.86 508.01 0.67 499.02 C 0.48 489.05 2.43 479.06 1.42 469.11 C 1.69 470.07 1.96 471.03 2.24 471.99 C 3.20 452.93 6.29 434.06 9.70 415.31 C 20.89 357.55 42.15 301.75 72.31 251.22 C 103.51 198.77 144.14 151.97 191.63 113.65 C 242.33 72.70 300.88 41.45 363.25 22.49 M 496.40 47.45 C 438.66 49.21 381.30 62.29 328.34 85.34 C 267.83 111.60 213.13 151.01 168.85 199.87 C 120.57 252.89 84.74 317.19 65.32 386.23 C 54.32 425.48 48.22 466.21 48.24 507.00 C 46.91 587.64 67.86 668.40 107.38 738.64 C 145.21 806.19 200.11 864.08 265.60 905.38 C 320.45 940.15 382.70 963.18 447.02 972.28 C 476.09 976.65 505.59 977.41 534.95 976.38 C 578.65 974.27 622.10 965.97 663.44 951.59 C 738.43 925.86 806.38 880.28 859.17 821.17 C 914.20 759.88 952.63 683.75 968.78 602.95 C 979.79 548.11 980.75 491.26 971.65 436.08 C 960.63 369.19 934.42 304.91 895.84 249.19 C 852.75 186.76 794.35 134.95 727.09 99.85 C 656.48 62.72 576.12 44.42 496.40 47.45 Z" />
<path fill="#1f1a17" opacity="1.00" d=" M 485.50 71.75 C 574.03 65.91 664.11 87.95 739.96 133.96 C 806.40 173.90 862.10 231.52 899.70 299.31 C 932.42 357.85 951.24 424.02 954.54 490.98 C 954.73 498.32 954.69 505.67 955.20 513.00 C 954.38 523.65 955.01 534.37 953.86 545.00 C 950.08 594.78 937.97 643.96 917.65 689.59 C 887.75 757.46 840.37 817.44 781.57 862.60 C 708.25 919.25 616.70 952.13 523.98 953.86 C 517.67 954.26 511.32 954.39 505.00 953.96 C 434.79 952.78 364.95 934.37 303.29 900.77 C 233.40 862.93 174.00 806.01 133.24 737.79 C 86.94 660.95 65.21 569.62 72.09 480.17 C 76.59 417.09 95.19 355.10 125.93 299.85 C 158.53 240.91 204.83 189.68 259.96 151.00 C 325.96 104.54 404.90 76.67 485.50 71.75 M 488.95 177.13 C 488.36 183.06 489.01 189.04 488.95 194.99 C 489.18 219.19 489.99 243.39 489.81 267.59 C 461.14 272.47 432.43 279.86 406.75 293.86 C 393.81 301.27 380.97 310.57 373.98 324.13 C 368.57 334.32 368.71 347.25 374.66 357.19 C 382.62 371.14 396.70 380.20 410.72 387.23 C 432.02 397.56 455.22 403.16 478.42 407.29 C 483.06 408.16 487.92 408.05 492.39 409.74 C 492.41 420.15 492.52 430.58 492.63 441.00 C 492.56 454.73 493.59 468.43 493.34 482.17 C 473.74 487.06 454.12 493.16 436.82 503.85 C 426.17 510.46 416.09 518.80 409.97 529.92 C 404.76 539.24 403.62 551.00 408.21 560.79 C 413.93 573.43 425.56 582.07 437.46 588.49 C 455.40 597.82 475.24 602.80 495.10 606.02 C 495.55 613.00 495.38 620.00 495.58 626.99 C 495.83 650.82 496.54 674.64 496.55 698.46 C 487.44 705.00 478.99 713.36 475.14 724.12 C 472.67 730.78 473.00 738.40 476.18 744.77 C 480.40 753.86 488.83 760.13 497.60 764.49 C 497.57 777.34 498.40 790.15 498.36 803.00 C 498.58 822.25 498.55 841.52 499.28 860.76 C 508.08 860.85 516.89 860.83 525.69 860.76 C 525.50 850.50 526.45 840.27 526.26 830.01 C 526.47 810.70 526.34 791.38 526.99 772.09 C 549.98 774.33 572.09 786.52 585.79 805.19 C 589.88 809.75 595.55 814.22 602.06 813.32 C 606.34 812.63 608.39 807.92 608.22 804.01 C 607.91 798.26 605.01 793.15 603.19 787.81 C 598.06 774.15 587.13 763.49 574.69 756.29 C 559.62 747.06 541.93 742.85 527.47 732.54 C 527.43 729.35 527.37 726.15 527.45 722.96 C 527.58 721.73 527.23 720.18 528.47 719.41 C 532.31 716.43 536.74 714.33 541.06 712.15 C 550.14 707.88 559.17 703.48 568.27 699.23 C 574.75 695.86 581.70 693.13 587.23 688.22 C 596.29 680.47 604.02 670.97 609.16 660.17 C 613.89 650.10 616.14 638.31 612.61 627.51 C 608.50 613.85 597.35 603.74 585.58 596.43 C 568.39 586.03 549.11 579.55 529.65 574.90 C 529.37 571.60 529.45 568.30 529.53 565.00 C 529.79 547.18 529.65 529.36 530.45 511.56 C 553.34 505.71 575.61 496.63 594.97 482.95 C 605.28 475.42 614.96 466.47 621.19 455.19 C 626.28 446.04 628.03 434.71 624.31 424.75 C 619.78 412.10 609.02 402.98 598.02 395.93 C 577.88 383.49 555.00 376.45 532.20 370.69 C 531.47 366.80 532.32 362.90 532.26 359.00 C 532.29 345.34 532.44 331.68 532.53 318.01 C 532.57 314.74 532.36 311.44 533.05 308.22 C 546.43 306.88 559.78 305.19 573.13 303.56 C 578.88 302.99 584.72 301.72 590.50 302.69 C 595.99 304.12 601.13 306.60 606.51 308.39 C 619.22 312.53 632.57 314.88 645.96 314.64 C 652.89 314.34 659.76 312.28 665.77 308.84 C 669.55 306.84 669.82 302.09 671.67 298.67 C 674.21 292.19 681.00 287.64 687.96 287.84 C 698.58 287.75 709.64 288.65 719.77 284.77 C 725.80 282.39 731.65 278.10 733.87 271.79 C 734.80 269.56 733.26 267.38 732.68 265.27 C 721.03 264.29 710.38 270.27 699.00 271.45 C 692.93 271.93 686.20 271.74 681.23 267.78 C 679.00 264.96 677.48 261.62 674.98 259.00 C 666.72 249.62 654.40 244.40 642.01 243.88 C 627.72 242.38 613.60 246.39 600.41 251.50 C 589.47 257.12 577.02 258.13 564.99 259.30 C 554.42 260.06 543.87 261.15 533.29 261.81 C 533.47 233.56 534.15 205.30 534.25 177.05 C 526.47 170.48 515.49 171.22 505.95 171.37 C 500.06 171.87 493.10 172.40 488.95 177.13 Z" />
<path fill="#1f1a17" opacity="1.00" d=" M 636.47 272.68 C 638.48 271.89 640.59 271.37 642.66 272.33 C 642.83 274.82 642.83 277.73 640.01 278.70 C 637.44 277.65 635.67 275.55 636.47 272.68 Z" />
<path fill="#1f1a17" opacity="1.00" d=" M 433.08 326.14 C 451.02 317.59 470.87 314.24 490.36 311.25 C 491.34 317.45 490.38 323.77 491.07 330.00 C 491.42 341.18 491.46 352.37 491.48 363.56 C 476.91 362.10 462.39 359.71 448.19 356.07 C 441.03 354.32 433.93 352.05 427.44 348.53 C 423.86 346.44 420.04 343.42 419.77 338.95 C 420.98 332.32 427.73 329.07 433.08 326.14 Z" />
<path fill="#1f1a17" opacity="1.00" d=" M 531.44 414.30 C 543.29 416.61 555.20 419.55 566.08 424.94 C 573.11 428.48 580.95 433.63 582.19 442.07 C 582.52 449.17 577.07 454.82 571.71 458.70 C 559.51 467.14 545.06 471.62 530.73 474.92 C 530.33 454.70 531.64 434.52 531.44 414.30 Z" />
<path fill="#1f1a17" opacity="1.00" d=" M 485.00 521.77 C 487.93 521.02 490.76 519.67 493.85 519.61 C 494.43 535.40 494.35 551.21 494.48 567.01 C 482.16 564.31 469.88 560.99 458.43 555.62 C 454.25 553.42 449.68 550.94 447.49 546.55 C 445.61 541.21 450.14 536.88 454.21 534.27 C 463.68 528.40 474.39 524.98 485.00 521.77 Z" />
<path fill="#1f1a17" opacity="1.00" d=" M 528.99 613.27 C 540.50 617.12 551.94 621.43 562.49 627.50 C 567.74 630.83 573.77 635.22 574.26 641.98 C 574.08 649.82 567.38 655.20 561.89 659.86 C 551.32 667.69 539.93 674.42 528.16 680.25 C 528.27 657.93 528.55 635.59 528.99 613.27 Z" />
</g>
<g id="#d5cec4ff">
<path fill="#d5cec4" opacity="1.00" d=" M 496.40 47.45 C 576.12 44.42 656.48 62.72 727.09 99.85 C 794.35 134.95 852.75 186.76 895.84 249.19 C 934.42 304.91 960.63 369.19 971.65 436.08 C 980.75 491.26 979.79 548.11 968.78 602.95 C 952.63 683.75 914.20 759.88 859.17 821.17 C 806.38 880.28 738.43 925.86 663.44 951.59 C 622.10 965.97 578.65 974.27 534.95 976.38 C 505.59 977.41 476.09 976.65 447.02 972.28 C 382.70 963.18 320.45 940.15 265.60 905.38 C 200.11 864.08 145.21 806.19 107.38 738.64 C 67.86 668.40 46.91 587.64 48.24 507.00 C 48.22 466.21 54.32 425.48 65.32 386.23 C 84.74 317.19 120.57 252.89 168.85 199.87 C 213.13 151.01 267.83 111.60 328.34 85.34 C 381.30 62.29 438.66 49.21 496.40 47.45 M 485.50 71.75 C 404.90 76.67 325.96 104.54 259.96 151.00 C 204.83 189.68 158.53 240.91 125.93 299.85 C 95.19 355.10 76.59 417.09 72.09 480.17 C 65.21 569.62 86.94 660.95 133.24 737.79 C 174.00 806.01 233.40 862.93 303.29 900.77 C 364.95 934.37 434.79 952.78 505.00 953.96 C 511.32 954.39 517.67 954.26 523.98 953.86 C 616.70 952.13 708.25 919.25 781.57 862.60 C 840.37 817.44 887.75 757.46 917.65 689.59 C 937.97 643.96 950.08 594.78 953.86 545.00 C 955.01 534.37 954.38 523.65 955.20 513.00 C 954.69 505.67 954.73 498.32 954.54 490.98 C 951.24 424.02 932.42 357.85 899.70 299.31 C 862.10 231.52 806.40 173.90 739.96 133.96 C 664.11 87.95 574.03 65.91 485.50 71.75 Z" />
<path fill="#d5cec4" opacity="1.00" d=" M 488.95 177.13 C 493.10 172.40 500.06 171.87 505.95 171.37 C 515.49 171.22 526.47 170.48 534.25 177.05 C 534.15 205.30 533.47 233.56 533.29 261.81 C 543.87 261.15 554.42 260.06 564.99 259.30 C 577.02 258.13 589.47 257.12 600.41 251.50 C 613.60 246.39 627.72 242.38 642.01 243.88 C 654.40 244.40 666.72 249.62 674.98 259.00 C 677.48 261.62 679.00 264.96 681.23 267.78 C 686.20 271.74 692.93 271.93 699.00 271.45 C 710.38 270.27 721.03 264.29 732.68 265.27 C 733.26 267.38 734.80 269.56 733.87 271.79 C 731.65 278.10 725.80 282.39 719.77 284.77 C 709.64 288.65 698.58 287.75 687.96 287.84 C 681.00 287.64 674.21 292.19 671.67 298.67 C 669.82 302.09 669.55 306.84 665.77 308.84 C 659.76 312.28 652.89 314.34 645.96 314.64 C 632.57 314.88 619.22 312.53 606.51 308.39 C 601.13 306.60 595.99 304.12 590.50 302.69 C 584.72 301.72 578.88 302.99 573.13 303.56 C 559.78 305.19 546.43 306.88 533.05 308.22 C 532.36 311.44 532.57 314.74 532.53 318.01 C 532.44 331.68 532.29 345.34 532.26 359.00 C 532.32 362.90 531.47 366.80 532.20 370.69 C 555.00 376.45 577.88 383.49 598.02 395.93 C 609.02 402.98 619.78 412.10 624.31 424.75 C 628.03 434.71 626.28 446.04 621.19 455.19 C 614.96 466.47 605.28 475.42 594.97 482.95 C 575.61 496.63 553.34 505.71 530.45 511.56 C 529.65 529.36 529.79 547.18 529.53 565.00 C 529.45 568.30 529.37 571.60 529.65 574.90 C 549.11 579.55 568.39 586.03 585.58 596.43 C 597.35 603.74 608.50 613.85 612.61 627.51 C 616.14 638.31 613.89 650.10 609.16 660.17 C 604.02 670.97 596.29 680.47 587.23 688.22 C 581.70 693.13 574.75 695.86 568.27 699.23 C 559.17 703.48 550.14 707.88 541.06 712.15 C 536.74 714.33 532.31 716.43 528.47 719.41 C 527.23 720.18 527.58 721.73 527.45 722.96 C 527.37 726.15 527.43 729.35 527.47 732.54 C 541.93 742.85 559.62 747.06 574.69 756.29 C 587.13 763.49 598.06 774.15 603.19 787.81 C 605.01 793.15 607.91 798.26 608.22 804.01 C 608.39 807.92 606.34 812.63 602.06 813.32 C 595.55 814.22 589.88 809.75 585.79 805.19 C 572.09 786.52 549.98 774.33 526.99 772.09 C 526.34 791.38 526.47 810.70 526.26 830.01 C 526.45 840.27 525.50 850.50 525.69 860.76 C 516.89 860.83 508.08 860.85 499.28 860.76 C 498.55 841.52 498.58 822.25 498.36 803.00 C 498.40 790.15 497.57 777.34 497.60 764.49 C 488.83 760.13 480.40 753.86 476.18 744.77 C 473.00 738.40 472.67 730.78 475.14 724.12 C 478.99 713.36 487.44 705.00 496.55 698.46 C 496.54 674.64 495.83 650.82 495.58 626.99 C 495.38 620.00 495.55 613.00 495.10 606.02 C 475.24 602.80 455.40 597.82 437.46 588.49 C 425.56 582.07 413.93 573.43 408.21 560.79 C 403.62 551.00 404.76 539.24 409.97 529.92 C 416.09 518.80 426.17 510.46 436.82 503.85 C 454.12 493.16 473.74 487.06 493.34 482.17 C 493.59 468.43 492.56 454.73 492.63 441.00 C 492.52 430.58 492.41 420.15 492.39 409.74 C 487.92 408.05 483.06 408.16 478.42 407.29 C 455.22 403.16 432.02 397.56 410.72 387.23 C 396.70 380.20 382.62 371.14 374.66 357.19 C 368.71 347.25 368.57 334.32 373.98 324.13 C 380.97 310.57 393.81 301.27 406.75 293.86 C 432.43 279.86 461.14 272.47 489.81 267.59 C 489.99 243.39 489.18 219.19 488.95 194.99 C 489.01 189.04 488.36 183.06 488.95 177.13 M 636.47 272.68 C 635.67 275.55 637.44 277.65 640.01 278.70 C 642.83 277.73 642.83 274.82 642.66 272.33 C 640.59 271.37 638.48 271.89 636.47 272.68 M 433.08 326.14 C 427.73 329.07 420.98 332.32 419.77 338.95 C 420.04 343.42 423.86 346.44 427.44 348.53 C 433.93 352.05 441.03 354.32 448.19 356.07 C 462.39 359.71 476.91 362.10 491.48 363.56 C 491.46 352.37 491.42 341.18 491.07 330.00 C 490.38 323.77 491.34 317.45 490.36 311.25 C 470.87 314.24 451.02 317.59 433.08 326.14 M 531.44 414.30 C 531.64 434.52 530.33 454.70 530.73 474.92 C 545.06 471.62 559.51 467.14 571.71 458.70 C 577.07 454.82 582.52 449.17 582.19 442.07 C 580.95 433.63 573.11 428.48 566.08 424.94 C 555.20 419.55 543.29 416.61 531.44 414.30 M 485.00 521.77 C 474.39 524.98 463.68 528.40 454.21 534.27 C 450.14 536.88 445.61 541.21 447.49 546.55 C 449.68 550.94 454.25 553.42 458.43 555.62 C 469.88 560.99 482.16 564.31 494.48 567.01 C 494.35 551.21 494.43 535.40 493.85 519.61 C 490.76 519.67 487.93 521.02 485.00 521.77 M 528.99 613.27 C 528.55 635.59 528.27 657.93 528.16 680.25 C 539.93 674.42 551.32 667.69 561.89 659.86 C 567.38 655.20 574.08 649.82 574.26 641.98 C 573.77 635.22 567.74 630.83 562.49 627.50 C 551.94 621.43 540.50 617.12 528.99 613.27 Z" />
</g>
</svg>
