<!-- Wasserretter -->
<svg width="300" height="300" xmlns="http://www.w3.org/2000/svg">
  <g stroke="silver" fill="silver" >
    <circle cx="150" cy="150" r="149" fill="black" stroke="black"/>
    <circle cx="150" cy="150" r="130" stroke-width="6" fill="none" />
    <path d="m106,52 l0,103" stroke-width="5" />
    <path d="M116,142 c-3,-5 -7,-5 -10,-5" stroke-width="2" />
    <path d="M106,137 c-12,-0 -12,-10 0,-10" stroke-width="3"  fill="none" />
    <path d="M106,127 c13,-0 14,-14 0,-14" stroke-width="4"  fill="none" />
    <path d="M106,113 c-20,-0 -20,-15 0,-15" stroke-width="5" fill="none" />
    <path d="M106,98 c22,-0 22,-15 0,-14" stroke-width="6" fill="none" />
    <path d="M106,84 c-30,5 -30,-18 0,-14 l20,0" stroke-width="7" fill="none" />
    <path d="M118,71 c0,7 15,7 16,0 c0,-7 -15,-7 -16,0 l23,0" stroke-width="2" />
    <path d="M167,157 l42,-84" stroke-width="5" />
    <path d="M205,83 c20,20 40,25 52,22 c-9,30 -10,47 -64,44  c-9,-2 -9,0 -17,-6 Z" stroke-width="1" />
    <path d="M221,112 l9,2 -3,9 7,1 -4,8 -7,-1 -5,7 -9,-2 5,-7 -7,-3 4,-8 7,2.5 z" stroke-width="1" fill="black" />
    <path d="M55,226 c9,13 20,22 44,34 c15,1 25,1 45,-12 c15,10 40,15 65,8 c7,-5 13,-4 33,-27 l-17,-7 c-30,17 -40,17 -81,0 c-30,17 -49,17 -84,0 z " />
    <path d="M52,221 l7,-5 c30,15 55,20 85,0 c35,15 50,20 81,0 l22,9 10,-15 -21,-8 c-15,13 -45,18 -80,0 c-20,13 -55,18 -85,0 c-10,6 -10,9 -25,11 z" />
    <path d="M44,209 c9,-1 15,-3 26,-12 c17,9 35,14 49,12 c-6,-5 -6,-5 -9,-10 c-20,0 -30,-4 -46,-12 c-10,10 -20,12 -26,12 z" />
    <path d="M36,194 c9,-1 16,-1 26,-14 c10,6 25,14 47,14 l-1,-6 c-5,1 -25,-2 -46,-20 l-11,0 c2,4 4,20 -17,21 z" />
    <path d="M191,195 c9,1 33,0 39,-15 c10,6 25,14 34,14 l3,-7 c-5,-1 -15,-2 -38,-20 l-10,0 c5,20 -10,23 -29.5,21 z"  />
    <path d="M187,208 c20,3 35,-1 49,-12 10,5 10,4 23,9 l3,-6 c-10,-2 -20,-6 -30,-12 c-10,13 -30,14 -41,13 c0,3 -1,7 -3,8" />
    <path d="m116,176 c-9,17 4,30 10,32 c7,-1 15,-3 20,-6 c-8,-6 -16,-8 -30,-26 z" />
    <path d="m119,170 c7,12 20,23 32,29 l4,-3 c7,4 15,7 28,11 c3,-3 5,-8 2,-19 c-20,-0 -38,-8 -54,-27 c-4,2 -5,2 -12,9 z" />
    <path d="m135,159 c8,10 26,25 49,24 c-8,-15 -24,-28 -49,-24" stroke="silver" />
    <circle cx="150" cy="150" r="124" stroke-width="6" stroke="black"  fill="none" />
  </g>
</svg>